<svg width="3622" height="1842" viewBox="0 0 3622 1842" fill="none" xmlns="http://www.w3.org/2000/svg">
<rect width="3622" height="1841" transform="translate(0 0.921875)" fill="#161720"/>
<path d="M845.428 983.003C842.113 1002.53 833.665 1020.72 821.017 1035.57C808.369 1050.42 792.014 1061.35 773.761 1067.15C755.507 1072.94 736.066 1073.38 717.586 1068.42C699.106 1063.46 682.308 1053.28 669.048 1039.02C655.789 1024.75 646.585 1006.96 642.453 987.604C638.322 968.247 639.424 948.08 645.639 929.333C651.853 910.585 662.937 893.989 677.666 881.377C692.395 868.765 710.194 860.63 729.096 857.871L734.281 896.197C722.184 897.964 710.793 903.17 701.366 911.242C691.94 919.313 684.846 929.935 680.869 941.933C676.892 953.931 676.186 966.838 678.83 979.227C681.474 991.616 687.365 1003 695.851 1012.13C704.337 1021.26 715.088 1027.77 726.915 1030.95C738.742 1034.13 751.184 1033.84 762.867 1030.13C774.549 1026.42 785.016 1019.43 793.111 1009.93C801.206 1000.42 806.613 988.779 808.734 976.283L845.428 983.003Z" fill="#FE6B6B"/>
<path d="M1085.52 857.233C1104.54 858.961 1122.72 866.118 1138.06 877.912C1153.41 889.705 1165.31 905.677 1172.46 924.06C1179.61 942.444 1181.73 962.523 1178.58 982.079C1175.43 1001.63 1167.14 1019.9 1154.61 1034.87C1142.09 1049.83 1125.83 1060.91 1107.62 1066.87C1089.42 1072.83 1069.98 1073.45 1051.46 1068.65C1032.94 1063.85 1016.06 1053.83 1002.68 1039.69C989.301 1025.55 979.947 1007.84 975.653 988.519L1011.96 979.813C1014.71 992.177 1020.69 1003.51 1029.26 1012.56C1037.82 1021.61 1048.62 1028.03 1060.48 1031.1C1072.33 1034.17 1084.77 1033.77 1096.42 1029.96C1108.07 1026.14 1118.48 1019.05 1126.49 1009.48C1134.51 999.899 1139.82 988.206 1141.83 975.691C1143.85 963.175 1142.49 950.324 1137.92 938.559C1133.34 926.794 1125.72 916.572 1115.9 909.024C1106.08 901.476 1094.44 896.896 1082.27 895.79L1085.52 857.233Z" fill="#FE6B6B"/>
<path d="M976.527 590.606C981.253 572.285 990.561 555.589 1003.51 542.212C1016.45 528.835 1032.57 519.254 1050.24 514.441C1067.9 509.628 1086.47 509.754 1104.07 514.807C1121.67 519.86 1137.67 529.659 1150.45 543.211C1163.22 556.763 1172.32 573.584 1176.82 591.968C1181.31 610.352 1181.04 629.644 1176.04 647.885C1171.04 666.127 1161.48 682.67 1148.33 695.834C1135.19 708.997 1118.92 718.314 1101.19 722.839L1092.3 685.252C1103.65 682.357 1114.06 676.394 1122.47 667.969C1130.89 659.544 1137 648.957 1140.21 637.282C1143.41 625.607 1143.58 613.261 1140.7 601.495C1137.83 589.729 1132 578.964 1123.83 570.291C1115.65 561.618 1105.41 555.346 1094.15 552.112C1082.88 548.878 1071 548.797 1059.69 551.878C1048.39 554.958 1038.07 561.09 1029.78 569.651C1021.5 578.212 1015.54 588.898 1012.52 600.624L976.527 590.606Z" fill="#FE6B6B"/>
<path d="M721.981 723.593C703.311 719.471 686.101 710.065 672.255 696.417C658.41 682.769 648.467 665.409 643.527 646.258C638.586 627.106 638.841 606.908 644.262 587.897C649.683 568.887 660.06 551.803 674.245 538.536C688.43 525.269 705.871 516.335 724.639 512.722C743.407 509.109 762.771 510.957 780.591 518.063C798.411 525.168 813.992 537.254 825.612 552.984C837.232 568.714 844.438 587.475 846.433 607.194L809.377 611.24C808.1 598.62 803.489 586.613 796.052 576.545C788.615 566.478 778.643 558.743 767.238 554.196C755.834 549.648 743.44 548.465 731.429 550.778C719.417 553.09 708.255 558.808 699.177 567.299C690.098 575.79 683.457 586.723 679.988 598.89C676.518 611.057 676.355 623.983 679.517 636.24C682.679 648.498 689.042 659.608 697.903 668.342C706.765 677.077 717.779 683.097 729.728 685.735L721.981 723.593Z" fill="#FE6B6B"/>
<path d="M847 789.825C847 849.201 800.662 897.335 743.5 897.335C686.339 897.335 640 849.201 640 789.825C640 730.448 686.339 682.314 743.5 682.314C800.662 682.314 847 730.448 847 789.825ZM677.26 789.825C677.26 827.825 706.917 858.631 743.5 858.631C780.084 858.631 809.74 827.825 809.74 789.825C809.74 751.824 780.084 721.018 743.5 721.018C706.917 721.018 677.26 751.824 677.26 789.825Z" fill="#FE6B6B"/>
<path d="M1015 964.334C1015 1023.71 968.662 1071.84 911.5 1071.84C854.339 1071.84 808 1023.71 808 964.334C808 904.958 854.339 856.824 911.5 856.824C968.662 856.824 1015 904.958 1015 964.334ZM845.26 964.334C845.26 1002.34 874.917 1033.14 911.5 1033.14C948.084 1033.14 977.74 1002.34 977.74 964.334C977.74 926.334 948.084 895.528 911.5 895.528C874.917 895.528 845.26 926.334 845.26 964.334Z" fill="#FE6B6B"/>
<path d="M1180 789.825C1180 849.201 1133.66 897.335 1076.5 897.335C1019.34 897.335 973 849.201 973 789.825C973 730.448 1019.34 682.314 1076.5 682.314C1133.66 682.314 1180 730.448 1180 789.825ZM1010.26 789.825C1010.26 827.825 1039.92 858.631 1076.5 858.631C1113.08 858.631 1142.74 827.825 1142.74 789.825C1142.74 751.824 1113.08 721.018 1076.5 721.018C1039.92 721.018 1010.26 751.824 1010.26 789.825Z" fill="#FE6B6B"/>
<path d="M1015 618.432C1015 677.808 968.662 725.942 911.5 725.942C854.339 725.942 808 677.808 808 618.432C808 559.056 854.339 510.922 911.5 510.922C968.662 510.922 1015 559.056 1015 618.432ZM845.26 618.432C845.26 656.433 874.917 687.239 911.5 687.239C948.084 687.239 977.74 656.433 977.74 618.432C977.74 580.431 948.084 549.626 911.5 549.626C874.917 549.626 845.26 580.431 845.26 618.432Z" fill="#FE6B6B"/>
<path d="M1351.91 664.422C1350.43 664.422 1349.53 663.684 1349.2 662.208L1304.67 506.244C1304.18 504.276 1305 503.292 1307.13 503.292H1326.81C1328.45 503.292 1329.44 504.03 1329.77 505.506L1356.09 600.954C1357.24 604.89 1358.3 608.99 1359.29 613.254C1360.27 617.518 1361.25 621.782 1362.24 626.046C1363.22 630.146 1364.21 634.164 1365.19 638.1H1365.44C1367.08 632.36 1368.72 626.702 1370.36 621.126C1372.16 615.386 1373.96 609.728 1375.77 604.152L1395.45 539.454L1386.59 508.95C1386.26 508.13 1386.35 507.474 1386.84 506.982C1387.33 506.326 1387.99 505.998 1388.81 505.998H1408.73C1410.37 505.998 1411.36 506.818 1411.68 508.458L1438.01 605.628C1439.65 611.04 1441.12 616.452 1442.43 621.864C1443.75 627.276 1445.14 632.688 1446.62 638.1H1446.86C1447.68 634.328 1448.58 630.31 1449.57 626.046C1450.55 621.782 1451.54 617.518 1452.52 613.254C1453.5 608.99 1454.49 604.89 1455.47 600.954L1480.81 505.506C1481.14 504.03 1482.12 503.292 1483.76 503.292H1504.18C1506.31 503.292 1507.05 504.276 1506.39 506.244L1463.59 662.208C1463.26 663.684 1462.28 664.422 1460.64 664.422H1434.56C1432.92 664.422 1431.94 663.684 1431.61 662.208L1415.87 607.596C1414.23 602.02 1412.67 596.526 1411.19 591.114C1409.72 585.538 1408.24 579.962 1406.76 574.386H1406.27C1404.8 579.798 1403.24 585.21 1401.6 590.622C1400.12 596.034 1398.48 601.528 1396.68 607.104L1380.2 662.208C1379.87 663.028 1379.46 663.602 1378.97 663.93C1378.64 664.258 1378.06 664.422 1377.24 664.422H1351.91ZM1588.46 667.374C1567.47 667.374 1551.73 662.29 1541.23 652.122C1530.9 641.79 1525.73 627.194 1525.73 608.334V559.38C1525.73 540.356 1530.9 525.76 1541.23 515.592C1551.73 505.424 1567.47 500.34 1588.46 500.34C1609.45 500.34 1625.12 505.424 1635.45 515.592C1645.94 525.76 1651.19 540.356 1651.19 559.38V608.334C1651.19 627.194 1645.94 641.79 1635.45 652.122C1625.12 662.29 1609.45 667.374 1588.46 667.374ZM1588.46 645.48C1600.93 645.48 1610.36 642.282 1616.75 635.886C1623.15 629.326 1626.35 619.896 1626.35 607.596V560.118C1626.35 547.654 1623.15 538.224 1616.75 531.828C1610.36 525.432 1600.93 522.234 1588.46 522.234C1576.16 522.234 1566.73 525.432 1560.17 531.828C1553.78 538.224 1550.58 547.654 1550.58 560.118V607.596C1550.58 619.896 1553.78 629.326 1560.17 635.886C1566.73 642.282 1576.16 645.48 1588.46 645.48ZM1690.43 664.422C1688.62 664.422 1687.72 663.52 1687.72 661.716V505.998C1687.72 504.194 1688.62 503.292 1690.43 503.292H1721.67C1723.31 503.292 1724.37 503.948 1724.87 505.26L1768.16 592.59C1771.11 598.494 1773.74 603.906 1776.03 608.826C1778.49 613.746 1780.63 618.42 1782.43 622.848C1784.4 627.276 1786.2 631.54 1787.84 635.64H1788.33C1788.33 632.36 1788.25 628.834 1788.09 625.062C1788.09 621.29 1788.01 617.518 1787.84 613.746C1787.84 609.81 1787.84 606.038 1787.84 602.43C1787.84 598.658 1787.84 595.05 1787.84 591.606V505.998C1787.84 504.194 1788.66 503.292 1790.3 503.292H1809.49C1811.29 503.292 1812.2 504.194 1812.2 505.998V661.716C1812.2 663.52 1811.29 664.422 1809.49 664.422H1778.49C1777.02 664.422 1776.03 663.766 1775.54 662.454L1733.23 577.584C1730.61 572.336 1728.06 567.17 1725.6 562.086C1723.31 557.002 1721.01 552 1718.72 547.08C1716.42 541.996 1714.21 537.076 1712.07 532.32H1711.58C1711.58 536.42 1711.58 540.438 1711.58 544.374C1711.75 548.146 1711.83 552 1711.83 555.936C1711.99 559.708 1712.07 563.562 1712.07 567.498C1712.07 571.434 1712.07 575.452 1712.07 579.552V661.716C1712.07 663.52 1711.17 664.422 1709.37 664.422H1690.43ZM1854.03 664.422C1852.22 664.422 1851.32 663.52 1851.32 661.716V505.998C1851.32 504.194 1852.22 503.292 1854.03 503.292H1873.46C1875.26 503.292 1876.17 504.194 1876.17 505.998V661.716C1876.17 663.52 1875.26 664.422 1873.46 664.422H1854.03ZM1902.92 664.422C1901.11 664.422 1900.21 663.602 1900.21 661.962V661.224C1900.21 660.24 1900.62 659.092 1901.44 657.78L1971.3 549.54C1973.93 545.44 1976.47 541.422 1978.93 537.486C1981.55 533.55 1984.26 529.532 1987.05 525.432V525.186C1982.46 525.35 1977.78 525.432 1973.03 525.432C1968.43 525.432 1963.76 525.432 1959 525.432H1910.79C1908.98 525.432 1908.08 524.53 1908.08 522.726V505.998C1908.08 504.194 1908.98 503.292 1910.79 503.292H2023.21C2025.01 503.292 2025.92 504.112 2025.92 505.752V506.49C2025.92 507.146 2025.83 507.802 2025.67 508.458C2025.51 508.95 2025.26 509.442 2024.93 509.934L1955.81 615.714C1952.85 620.306 1949.98 624.816 1947.2 629.244C1944.41 633.508 1941.46 637.854 1938.34 642.282V642.528C1943.59 642.364 1948.84 642.282 1954.08 642.282C1959.33 642.282 1964.58 642.282 1969.83 642.282H2017.55C2019.36 642.282 2020.26 643.184 2020.26 644.988V661.716C2020.26 663.52 2019.36 664.422 2017.55 664.422H1902.92ZM2053.42 664.422C2051.62 664.422 2050.71 663.52 2050.71 661.716V505.998C2050.71 504.194 2051.62 503.292 2053.42 503.292H2143.95C2145.59 503.292 2146.41 504.194 2146.41 505.998V522.726C2146.41 524.53 2145.59 525.432 2143.95 525.432H2075.56V572.172H2138.04C2139.68 572.172 2140.5 572.992 2140.5 574.632V590.622C2140.5 592.426 2139.68 593.328 2138.04 593.328H2075.56V642.282H2143.95C2145.59 642.282 2146.41 643.184 2146.41 644.988V661.716C2146.41 663.52 2145.59 664.422 2143.95 664.422H2053.42ZM2289.13 667.374C2276.99 667.374 2266.58 665.078 2257.89 660.486C2249.19 655.894 2242.47 649.17 2237.71 640.314C2232.96 631.458 2230.58 620.798 2230.58 608.334V559.38C2230.58 540.684 2236.16 526.17 2247.31 515.838C2258.62 505.506 2274.12 500.34 2293.8 500.34C2307.41 500.34 2319.06 502.554 2328.73 506.982C2338.41 511.41 2345.54 517.642 2350.14 525.678C2354.89 533.714 2356.45 543.062 2354.81 553.722C2354.65 555.526 2353.74 556.428 2352.1 556.428L2332.42 556.182C2330.62 556.182 2329.8 555.28 2329.96 553.476C2330.46 546.752 2329.39 541.094 2326.77 536.502C2324.14 531.746 2320.12 528.138 2314.71 525.678C2309.46 523.218 2302.66 521.988 2294.29 521.988C2281.5 521.988 2271.83 525.104 2265.27 531.336C2258.71 537.568 2255.43 546.998 2255.43 559.626V608.088C2255.43 620.716 2258.54 630.146 2264.77 636.378C2271.17 642.61 2280.68 645.726 2293.31 645.726C2305.94 645.726 2315.53 642.692 2322.09 636.624C2328.82 630.392 2332.18 621.536 2332.18 610.056V601.2H2296.02C2294.21 601.2 2293.31 600.38 2293.31 598.74V583.98C2293.31 582.176 2294.21 581.274 2296.02 581.274H2352.84C2353.66 581.274 2354.32 581.52 2354.81 582.012C2355.3 582.504 2355.55 583.16 2355.55 583.98V630.966C2355.55 636.214 2355.63 641.462 2355.79 646.71C2356.12 651.794 2356.61 656.714 2357.27 661.47C2357.6 662.454 2357.52 663.192 2357.02 663.684C2356.53 664.176 2355.88 664.422 2355.06 664.422H2339.07C2338.41 664.422 2337.84 664.258 2337.34 663.93C2336.85 663.602 2336.52 663.028 2336.36 662.208C2335.87 660.076 2335.46 657.698 2335.13 655.074C2334.97 652.45 2334.8 649.662 2334.64 646.71H2334.39C2331.44 651.302 2327.67 655.156 2323.08 658.272C2318.65 661.224 2313.56 663.438 2307.82 664.914C2302.08 666.554 2295.85 667.374 2289.13 667.374ZM2397.68 664.422C2395.87 664.422 2394.97 663.52 2394.97 661.716V505.998C2394.97 504.194 2395.87 503.292 2397.68 503.292H2446.88C2467.21 503.292 2482.14 507.146 2491.65 514.854C2501.16 522.562 2505.92 533.96 2505.92 549.048C2505.92 560.692 2503.21 570.45 2497.8 578.322C2492.39 586.03 2484.51 591.36 2474.18 594.312V594.558L2514.77 661.224C2515.26 662.044 2515.35 662.782 2515.02 663.438C2514.69 664.094 2513.95 664.422 2512.8 664.422H2490.17C2488.7 664.422 2487.63 663.848 2486.97 662.7L2448.11 597.756H2419.82V661.716C2419.82 663.52 2418.91 664.422 2417.11 664.422H2397.68ZM2419.82 578.076H2445.15C2457.78 578.076 2466.88 575.862 2472.46 571.434C2478.2 567.006 2481.07 559.954 2481.07 550.278C2481.07 540.93 2478.45 534.288 2473.2 530.352C2467.95 526.416 2459.09 524.448 2446.63 524.448H2419.82V578.076ZM2602.01 667.374C2581.02 667.374 2565.28 662.29 2554.78 652.122C2544.45 641.79 2539.28 627.194 2539.28 608.334V559.38C2539.28 540.356 2544.45 525.76 2554.78 515.592C2565.28 505.424 2581.02 500.34 2602.01 500.34C2623 500.34 2638.67 505.424 2649 515.592C2659.49 525.76 2664.74 540.356 2664.74 559.38V608.334C2664.74 627.194 2659.49 641.79 2649 652.122C2638.67 662.29 2623 667.374 2602.01 667.374ZM2602.01 645.48C2614.48 645.48 2623.91 642.282 2630.3 635.886C2636.7 629.326 2639.9 619.896 2639.9 607.596V560.118C2639.9 547.654 2636.7 538.224 2630.3 531.828C2623.91 525.432 2614.48 522.234 2602.01 522.234C2589.71 522.234 2580.28 525.432 2573.72 531.828C2567.33 538.224 2564.13 547.654 2564.13 560.118V607.596C2564.13 619.896 2567.33 629.326 2573.72 635.886C2580.28 642.282 2589.71 645.48 2602.01 645.48ZM2761.29 667.374C2741.61 667.374 2726.44 662.372 2715.78 652.368C2705.29 642.2 2700.04 627.44 2700.04 608.088V505.998C2700.04 504.194 2700.94 503.292 2702.74 503.292H2722.18C2723 503.292 2723.65 503.538 2724.15 504.03C2724.64 504.358 2724.88 505.014 2724.88 505.998V608.088C2724.88 620.06 2727.92 629.326 2733.99 635.886C2740.22 642.446 2749.32 645.726 2761.29 645.726C2773.26 645.726 2782.28 642.446 2788.35 635.886C2794.58 629.326 2797.7 620.06 2797.7 608.088V505.998C2797.7 504.194 2798.52 503.292 2800.16 503.292H2819.84C2821.64 503.292 2822.55 504.194 2822.55 505.998V608.334C2822.55 627.03 2817.13 641.544 2806.31 651.876C2795.49 662.208 2780.48 667.374 2761.29 667.374ZM2863.25 664.422C2861.45 664.422 2860.54 663.52 2860.54 661.716V505.998C2860.54 504.194 2861.45 503.292 2863.25 503.292H2906.3C2926.8 503.292 2942.05 507.638 2952.06 516.33C2962.22 525.022 2967.31 537.732 2967.31 554.46C2967.31 571.188 2962.14 583.898 2951.81 592.59C2941.64 601.282 2926.47 605.628 2906.3 605.628H2885.39V661.716C2885.39 663.52 2884.49 664.422 2882.68 664.422H2863.25ZM2885.39 584.718H2905.81C2918.44 584.718 2927.7 582.34 2933.61 577.584C2939.51 572.828 2942.46 565.366 2942.46 555.198C2942.46 544.374 2939.43 536.584 2933.36 531.828C2927.46 526.908 2918.19 524.448 2905.56 524.448H2885.39V584.718Z" fill="#A5A6A9"/>
<path d="M1302.88 1030.42C1299.04 1030.42 1297.72 1028.5 1298.92 1024.66L1373.8 798.582C1374.76 795.942 1376.68 794.622 1379.56 794.622H1443.64C1446.52 794.622 1448.44 795.942 1449.4 798.582L1524.64 1024.66C1525.12 1026.34 1525 1027.78 1524.28 1028.98C1523.8 1029.94 1522.6 1030.42 1520.68 1030.42H1466.68C1463.56 1030.42 1461.64 1029.1 1460.92 1026.46L1424.56 896.142C1422.16 887.502 1419.88 878.862 1417.72 870.222C1415.56 861.582 1413.52 853.062 1411.6 844.662H1410.88C1408.96 853.302 1406.92 861.942 1404.76 870.582C1402.6 879.222 1400.32 887.862 1397.92 896.502L1362.28 1026.1C1361.56 1028.98 1359.64 1030.42 1356.52 1030.42H1302.88ZM1364.08 988.302L1373.44 941.862H1447.96L1457.68 988.302H1364.08ZM1549.87 1030.42C1546.51 1030.42 1544.83 1028.74 1544.83 1025.38V799.662C1544.83 796.302 1546.51 794.622 1549.87 794.622H1600.27C1602.91 794.622 1604.23 796.302 1604.23 799.662V978.942H1693.51C1696.63 978.942 1698.19 980.622 1698.19 983.982V1025.38C1698.19 1028.74 1696.63 1030.42 1693.51 1030.42H1549.87ZM1706.91 956.622C1703.55 956.622 1701.87 954.942 1701.87 951.582V917.382C1701.87 914.022 1703.55 912.342 1706.91 912.342H1836.15C1839.51 912.342 1841.19 914.022 1841.19 917.382V951.582C1841.19 954.942 1839.51 956.622 1836.15 956.622H1706.91ZM1884.56 1030.42C1881.2 1030.42 1879.52 1028.74 1879.52 1025.38V799.662C1879.52 796.302 1881.2 794.622 1884.56 794.622H1965.2C1995.2 794.622 2017.76 799.422 2032.88 809.022C2048 818.382 2055.56 832.782 2055.56 852.222C2055.56 866.622 2052.44 878.022 2046.2 886.422C2040.2 894.822 2030.84 901.182 2018.12 905.502V906.582C2033 909.462 2044.64 915.222 2053.04 923.862C2061.44 932.262 2065.64 944.262 2065.64 959.862C2065.64 985.062 2057.72 1003.18 2041.88 1014.22C2026.28 1025.02 2000.6 1030.42 1964.84 1030.42H1884.56ZM1938.92 982.542H1968.08C1981.52 982.542 1991.24 980.622 1997.24 976.782C2003.24 972.942 2006.24 966.342 2006.24 956.982C2006.24 948.582 2003.12 942.462 1996.88 938.622C1990.88 934.542 1981.16 932.502 1967.72 932.502H1938.92V982.542ZM1938.92 889.662H1964.84C1975.88 889.662 1983.8 887.622 1988.6 883.542C1993.64 879.462 1996.16 873.342 1996.16 865.182C1996.16 857.742 1993.4 852.102 1987.88 848.262C1982.6 844.422 1974.2 842.502 1962.68 842.502H1938.92V889.662ZM2103.23 1030.42C2099.87 1030.42 2098.19 1028.74 2098.19 1025.38V799.662C2098.19 796.302 2099.87 794.622 2103.23 794.622H2152.55C2155.91 794.622 2157.59 796.302 2157.59 799.662V1025.38C2157.59 1028.74 2155.91 1030.42 2152.55 1030.42H2103.23ZM2205.19 1030.42C2201.83 1030.42 2200.15 1028.74 2200.15 1025.38V799.662C2200.15 796.302 2201.83 794.622 2205.19 794.622H2288.35C2322.19 794.622 2346.55 801.222 2361.43 814.422C2376.31 827.622 2383.75 846.462 2383.75 870.942C2383.75 886.782 2380.39 900.342 2373.67 911.622C2366.95 922.902 2356.15 930.822 2341.27 935.382V936.102L2396.71 1024.3C2397.91 1025.98 2398.15 1027.42 2397.43 1028.62C2396.71 1029.82 2395.39 1030.42 2393.47 1030.42H2338.03C2335.39 1030.42 2333.35 1029.34 2331.91 1027.18L2282.95 944.382H2259.55V1025.38C2259.55 1028.74 2257.87 1030.42 2254.51 1030.42H2205.19ZM2259.55 897.942H2288.35C2300.35 897.942 2309.35 895.902 2315.35 891.822C2321.35 887.502 2324.35 880.662 2324.35 871.302C2324.35 862.182 2321.59 855.582 2316.07 851.502C2310.79 847.182 2302.03 845.022 2289.79 845.022H2259.55V897.942ZM2516.39 1034.74C2483.51 1034.74 2458.67 1027.18 2441.87 1012.06C2425.07 996.942 2416.67 973.422 2416.67 941.502V799.662C2416.67 796.302 2418.35 794.622 2421.71 794.622H2471.39C2472.59 794.622 2473.67 795.102 2474.63 796.062C2475.59 796.782 2476.07 797.982 2476.07 799.662V938.622C2476.07 952.782 2479.07 963.822 2485.07 971.742C2491.31 979.662 2501.75 983.622 2516.39 983.622C2530.79 983.622 2540.99 979.662 2546.99 971.742C2553.23 963.822 2556.35 952.782 2556.35 938.622V799.662C2556.35 796.302 2558.03 794.622 2561.39 794.622H2610.71C2614.07 794.622 2615.75 796.302 2615.75 799.662V941.502C2615.75 973.182 2607.35 996.702 2590.55 1012.06C2573.75 1027.18 2549.03 1034.74 2516.39 1034.74ZM2661.52 1030.42C2658.16 1030.42 2656.48 1028.74 2656.48 1025.38V799.662C2656.48 796.302 2658.16 794.622 2661.52 794.622H2724.52C2727.16 794.622 2729.08 795.822 2730.28 798.222L2775.64 888.582C2779 895.302 2782.48 902.502 2786.08 910.182C2789.68 917.862 2792.92 925.422 2795.8 932.862C2798.92 940.302 2801.44 946.902 2803.36 952.662H2804.44C2803.96 948.102 2803.48 942.942 2803 937.182C2802.76 931.422 2802.4 925.542 2801.92 919.542C2801.68 913.542 2801.44 907.662 2801.2 901.902C2801.2 896.142 2801.2 890.982 2801.2 886.422V799.662C2801.2 796.302 2802.76 794.622 2805.88 794.622H2853.4C2856.76 794.622 2858.44 796.302 2858.44 799.662V1025.38C2858.44 1028.74 2856.76 1030.42 2853.4 1030.42H2790.4C2788 1030.42 2786.08 1029.22 2784.64 1026.82L2741.44 940.782C2738.08 934.302 2734.72 927.102 2731.36 919.182C2728.24 911.262 2725.12 903.462 2722 895.782C2718.88 887.862 2716 880.902 2713.36 874.902H2712.28C2712.52 879.942 2712.76 885.342 2713 891.102C2713.24 896.862 2713.36 902.862 2713.36 909.102C2713.6 915.102 2713.72 920.982 2713.72 926.742C2713.72 932.502 2713.72 938.022 2713.72 943.302V1025.38C2713.72 1028.74 2712.04 1030.42 2708.68 1030.42H2661.52ZM2905.85 1030.42C2902.49 1030.42 2900.81 1028.74 2900.81 1025.38V799.662C2900.81 796.302 2902.49 794.622 2905.85 794.622H2955.17C2958.53 794.622 2960.21 796.302 2960.21 799.662V1025.38C2960.21 1028.74 2958.53 1030.42 2955.17 1030.42H2905.85Z" fill="#FE6B6B"/>
<rect x="2349" y="1186.42" width="633" height="187" rx="93.5" fill="#FE6B6B"/>
<path d="M2441.71 1308.42C2440.75 1308.42 2440.27 1307.94 2440.27 1306.98V1246.98C2440.27 1246.02 2440.75 1245.54 2441.71 1245.54H2483.18C2484.08 1245.54 2484.53 1246.02 2484.53 1246.98V1259.56C2484.53 1260.45 2484.08 1260.9 2483.18 1260.9H2458.13V1270.5H2479.53C2480.43 1270.5 2480.88 1270.98 2480.88 1271.94V1284.13C2480.88 1285.03 2480.43 1285.48 2479.53 1285.48H2458.13V1306.98C2458.13 1307.94 2457.68 1308.42 2456.78 1308.42H2441.71ZM2492.43 1308.42C2491.34 1308.42 2490.96 1307.88 2491.28 1306.79L2510.96 1246.69C2511.21 1245.93 2511.76 1245.54 2512.59 1245.54H2531.88C2532.72 1245.54 2533.26 1245.93 2533.52 1246.69L2553.2 1306.79C2553.32 1307.24 2553.29 1307.62 2553.1 1307.94C2552.97 1308.26 2552.65 1308.42 2552.14 1308.42H2535.63C2534.8 1308.42 2534.28 1308.04 2534.09 1307.27L2525.55 1274.82C2524.91 1272.39 2524.3 1269.99 2523.72 1267.62C2523.21 1265.19 2522.73 1262.79 2522.28 1260.42H2522C2521.55 1262.85 2521.04 1265.29 2520.46 1267.72C2519.95 1270.15 2519.37 1272.58 2518.73 1275.01L2510.48 1307.17C2510.28 1308.01 2509.74 1308.42 2508.84 1308.42H2492.43ZM2510.28 1298.15L2512.88 1284.33H2531.02L2533.8 1298.15H2510.28ZM2592.47 1309.57C2583.77 1309.57 2576.92 1307.49 2571.93 1303.33C2567 1299.17 2564.54 1292.65 2564.54 1283.75V1270.5C2564.54 1261.41 2567 1254.79 2571.93 1250.63C2576.92 1246.47 2583.77 1244.39 2592.47 1244.39C2599 1244.39 2604.44 1245.38 2608.79 1247.37C2613.15 1249.35 2616.31 1252.13 2618.3 1255.72C2620.35 1259.3 2621.05 1263.49 2620.41 1268.29C2620.35 1268.68 2620.19 1269 2619.93 1269.25C2619.74 1269.51 2619.42 1269.64 2618.97 1269.64H2603.9C2603 1269.64 2602.55 1269.13 2602.55 1268.1C2602.55 1265.67 2601.82 1263.69 2600.35 1262.15C2598.87 1260.55 2596.35 1259.75 2592.76 1259.75C2589.56 1259.75 2587.03 1260.65 2585.18 1262.44C2583.32 1264.17 2582.39 1267.08 2582.39 1271.17V1282.79C2582.39 1286.89 2583.32 1289.83 2585.18 1291.62C2587.03 1293.35 2589.56 1294.21 2592.76 1294.21C2596.6 1294.21 2599.19 1293.38 2600.54 1291.72C2601.88 1289.99 2602.55 1288.04 2602.55 1285.86C2602.55 1284.84 2603 1284.33 2603.9 1284.33H2618.97C2619.8 1284.33 2620.28 1284.77 2620.41 1285.67C2620.92 1290.53 2620.15 1294.76 2618.11 1298.34C2616.06 1301.93 2612.86 1304.71 2608.51 1306.69C2604.22 1308.61 2598.87 1309.57 2592.47 1309.57ZM2654.19 1308.42C2653.3 1308.42 2652.85 1307.94 2652.85 1306.98V1260.9H2637.58C2636.62 1260.9 2636.14 1260.45 2636.14 1259.56V1246.98C2636.14 1246.02 2636.62 1245.54 2637.58 1245.54H2685.97C2686.86 1245.54 2687.31 1246.02 2687.31 1246.98V1259.56C2687.31 1260.45 2686.86 1260.9 2685.97 1260.9H2670.7V1306.98C2670.7 1307.94 2670.22 1308.42 2669.26 1308.42H2654.19ZM2729.43 1309.57C2720.21 1309.57 2713.21 1307.43 2708.41 1303.14C2703.61 1298.79 2701.21 1292.36 2701.21 1283.85V1270.12C2701.21 1261.54 2703.61 1255.11 2708.41 1250.82C2713.21 1246.53 2720.21 1244.39 2729.43 1244.39C2738.65 1244.39 2745.65 1246.53 2750.45 1250.82C2755.25 1255.11 2757.65 1261.54 2757.65 1270.12V1283.85C2757.65 1292.36 2755.25 1298.79 2750.45 1303.14C2745.65 1307.43 2738.65 1309.57 2729.43 1309.57ZM2729.43 1294.02C2733.01 1294.02 2735.64 1293.03 2737.3 1291.05C2738.97 1289.06 2739.8 1286.21 2739.8 1282.5V1271.46C2739.8 1267.75 2738.97 1264.9 2737.3 1262.92C2735.64 1260.93 2733.01 1259.94 2729.43 1259.94C2725.91 1259.94 2723.29 1260.93 2721.56 1262.92C2719.89 1264.9 2719.06 1267.75 2719.06 1271.46V1282.5C2719.06 1286.21 2719.89 1289.06 2721.56 1291.05C2723.29 1293.03 2725.91 1294.02 2729.43 1294.02ZM2777.52 1308.42C2776.56 1308.42 2776.08 1307.94 2776.08 1306.98V1246.98C2776.08 1246.02 2776.56 1245.54 2777.52 1245.54H2800.66C2810.07 1245.54 2816.79 1247.4 2820.82 1251.11C2824.85 1254.76 2826.87 1259.97 2826.87 1266.76C2826.87 1270.85 2826.04 1274.41 2824.37 1277.41C2822.71 1280.42 2819.89 1282.53 2815.92 1283.75V1283.94L2830.42 1306.69C2830.74 1307.14 2830.8 1307.56 2830.61 1307.94C2830.42 1308.26 2830.04 1308.42 2829.46 1308.42H2812.76C2811.99 1308.42 2811.41 1308.1 2811.03 1307.46L2798.64 1286.53H2793.94V1306.98C2793.94 1307.94 2793.46 1308.42 2792.5 1308.42H2777.52ZM2793.94 1272.52H2800.95C2803.57 1272.52 2805.56 1272.07 2806.9 1271.17C2808.31 1270.21 2809.01 1268.71 2809.01 1266.66C2809.01 1264.61 2808.4 1263.11 2807.19 1262.15C2805.97 1261.19 2803.99 1260.71 2801.24 1260.71H2793.94V1272.52ZM2858.65 1308.42C2857.69 1308.42 2857.21 1307.94 2857.21 1306.98V1286.63L2836.76 1247.27C2836.5 1246.76 2836.47 1246.34 2836.66 1246.02C2836.92 1245.7 2837.3 1245.54 2837.81 1245.54H2854.52C2855.35 1245.54 2855.89 1245.89 2856.15 1246.6L2860.95 1257.93C2861.97 1260.29 2862.9 1262.63 2863.73 1264.93C2864.63 1267.17 2865.43 1269.38 2866.13 1271.56H2866.33C2867.03 1269.32 2867.8 1267.11 2868.63 1264.93C2869.53 1262.76 2870.49 1260.49 2871.51 1258.12L2876.31 1246.6C2876.63 1245.89 2877.17 1245.54 2877.94 1245.54H2894.45C2894.97 1245.54 2895.32 1245.7 2895.51 1246.02C2895.77 1246.34 2895.77 1246.76 2895.51 1247.27L2875.06 1286.63V1306.98C2875.06 1307.94 2874.61 1308.42 2873.72 1308.42H2858.65Z" fill="#161720"/>
</svg>
