<svg width="3622" height="1842" viewBox="0 0 3622 1842" fill="none" xmlns="http://www.w3.org/2000/svg">
<rect width="3622" height="1841" transform="translate(0 0.922852)" fill="#161720"/>
<path d="M845.428 983.004C842.113 1002.53 833.665 1020.72 821.017 1035.57C808.369 1050.42 792.014 1061.35 773.761 1067.15C755.507 1072.94 736.066 1073.39 717.586 1068.42C699.106 1063.46 682.308 1053.28 669.048 1039.02C655.789 1024.76 646.585 1006.96 642.453 987.605C638.322 968.248 639.424 948.081 645.639 929.333C651.853 910.586 662.937 893.99 677.666 881.378C692.395 868.766 710.194 860.631 729.096 857.871L734.281 896.198C722.184 897.965 710.793 903.171 701.366 911.243C691.94 919.314 684.846 929.936 680.869 941.934C676.892 953.932 676.186 966.839 678.83 979.228C681.474 991.616 687.365 1003 695.851 1012.13C704.337 1021.26 715.088 1027.77 726.915 1030.95C738.742 1034.13 751.184 1033.85 762.867 1030.14C774.549 1026.43 785.016 1019.43 793.111 1009.93C801.206 1000.42 806.613 988.78 808.734 976.283L845.428 983.004Z" fill="#FE6B6B"/>
<path d="M1085.52 857.234C1104.54 858.962 1122.72 866.119 1138.06 877.913C1153.41 889.706 1165.31 905.678 1172.46 924.061C1179.61 942.445 1181.73 962.524 1178.58 982.08C1175.43 1001.63 1167.14 1019.9 1154.61 1034.87C1142.09 1049.83 1125.83 1060.91 1107.62 1066.87C1089.42 1072.83 1069.98 1073.45 1051.46 1068.65C1032.94 1063.86 1016.06 1053.83 1002.68 1039.69C989.301 1025.55 979.947 1007.84 975.653 988.52L1011.96 979.814C1014.71 992.178 1020.69 1003.51 1029.26 1012.56C1037.82 1021.61 1048.62 1028.03 1060.48 1031.1C1072.33 1034.17 1084.77 1033.77 1096.42 1029.96C1108.07 1026.14 1118.48 1019.05 1126.49 1009.48C1134.51 999.9 1139.82 988.207 1141.83 975.692C1143.85 963.176 1142.49 950.325 1137.92 938.56C1133.34 926.794 1125.72 916.573 1115.9 909.025C1106.08 901.477 1094.44 896.897 1082.27 895.791L1085.52 857.234Z" fill="#FE6B6B"/>
<path d="M976.527 590.607C981.253 572.286 990.561 555.59 1003.51 542.213C1016.45 528.836 1032.57 519.255 1050.24 514.442C1067.9 509.629 1086.47 509.755 1104.07 514.808C1121.67 519.861 1137.67 529.66 1150.45 543.212C1163.22 556.764 1172.32 573.585 1176.82 591.969C1181.31 610.353 1181.04 629.645 1176.04 647.886C1171.04 666.128 1161.48 682.671 1148.33 695.834C1135.19 708.998 1118.92 718.315 1101.19 722.84L1092.3 685.253C1103.65 682.358 1114.06 676.395 1122.47 667.97C1130.89 659.545 1137 648.958 1140.21 637.283C1143.41 625.608 1143.58 613.262 1140.7 601.496C1137.83 589.73 1132 578.965 1123.83 570.292C1115.65 561.619 1105.41 555.347 1094.15 552.113C1082.88 548.879 1071 548.798 1059.69 551.879C1048.39 554.959 1038.07 561.091 1029.78 569.652C1021.5 578.213 1015.54 588.899 1012.52 600.625L976.527 590.607Z" fill="#FE6B6B"/>
<path d="M721.981 723.594C703.311 719.471 686.101 710.066 672.255 696.418C658.41 682.77 648.467 665.41 643.527 646.259C638.586 627.107 638.841 606.909 644.262 587.898C649.683 568.888 660.06 551.804 674.245 538.537C688.43 525.27 705.871 516.336 724.639 512.723C743.407 509.11 762.771 510.958 780.591 518.064C798.411 525.169 813.992 537.255 825.612 552.985C837.232 568.715 844.438 587.476 846.433 607.195L809.377 611.241C808.1 598.621 803.489 586.613 796.052 576.546C788.615 566.479 778.643 558.744 767.238 554.197C755.834 549.649 743.44 548.466 731.429 550.779C719.417 553.091 708.255 558.809 699.177 567.3C690.098 575.791 683.457 586.724 679.988 598.891C676.518 611.058 676.355 623.984 679.517 636.241C682.679 648.499 689.042 659.609 697.903 668.343C706.765 677.078 717.779 683.098 729.728 685.736L721.981 723.594Z" fill="#FE6B6B"/>
<path d="M847 789.826C847 849.202 800.662 897.336 743.5 897.336C686.339 897.336 640 849.202 640 789.826C640 730.449 686.339 682.315 743.5 682.315C800.662 682.315 847 730.449 847 789.826ZM677.26 789.826C677.26 827.826 706.917 858.632 743.5 858.632C780.084 858.632 809.74 827.826 809.74 789.826C809.74 751.825 780.084 721.019 743.5 721.019C706.917 721.019 677.26 751.825 677.26 789.826Z" fill="#FE6B6B"/>
<path d="M1015 964.335C1015 1023.71 968.662 1071.85 911.5 1071.85C854.339 1071.85 808 1023.71 808 964.335C808 904.959 854.339 856.825 911.5 856.825C968.662 856.825 1015 904.959 1015 964.335ZM845.26 964.335C845.26 1002.34 874.917 1033.14 911.5 1033.14C948.084 1033.14 977.74 1002.34 977.74 964.335C977.74 926.335 948.084 895.529 911.5 895.529C874.917 895.529 845.26 926.335 845.26 964.335Z" fill="#FE6B6B"/>
<path d="M1180 789.826C1180 849.202 1133.66 897.336 1076.5 897.336C1019.34 897.336 973 849.202 973 789.826C973 730.449 1019.34 682.315 1076.5 682.315C1133.66 682.315 1180 730.449 1180 789.826ZM1010.26 789.826C1010.26 827.826 1039.92 858.632 1076.5 858.632C1113.08 858.632 1142.74 827.826 1142.74 789.826C1142.74 751.825 1113.08 721.019 1076.5 721.019C1039.92 721.019 1010.26 751.825 1010.26 789.826Z" fill="#FE6B6B"/>
<path d="M1015 618.433C1015 677.809 968.662 725.943 911.5 725.943C854.339 725.943 808 677.809 808 618.433C808 559.057 854.339 510.923 911.5 510.923C968.662 510.923 1015 559.057 1015 618.433ZM845.26 618.433C845.26 656.434 874.917 687.24 911.5 687.24C948.084 687.24 977.74 656.434 977.74 618.433C977.74 580.432 948.084 549.627 911.5 549.627C874.917 549.627 845.26 580.432 845.26 618.433Z" fill="#FE6B6B"/>
<path d="M1351.91 664.423C1350.43 664.423 1349.53 663.685 1349.2 662.209L1304.67 506.245C1304.18 504.277 1305 503.293 1307.13 503.293H1326.81C1328.45 503.293 1329.44 504.031 1329.77 505.507L1356.09 600.955C1357.24 604.891 1358.3 608.991 1359.29 613.255C1360.27 617.519 1361.25 621.783 1362.24 626.047C1363.22 630.147 1364.21 634.165 1365.19 638.101H1365.44C1367.08 632.361 1368.72 626.703 1370.36 621.127C1372.16 615.387 1373.96 609.729 1375.77 604.153L1395.45 539.455L1386.59 508.951C1386.26 508.131 1386.35 507.475 1386.84 506.983C1387.33 506.327 1387.99 505.999 1388.81 505.999H1408.73C1410.37 505.999 1411.36 506.819 1411.68 508.459L1438.01 605.629C1439.65 611.041 1441.12 616.453 1442.43 621.865C1443.75 627.277 1445.14 632.689 1446.62 638.101H1446.86C1447.68 634.329 1448.58 630.311 1449.57 626.047C1450.55 621.783 1451.54 617.519 1452.52 613.255C1453.5 608.991 1454.49 604.891 1455.47 600.955L1480.81 505.507C1481.14 504.031 1482.12 503.293 1483.76 503.293H1504.18C1506.31 503.293 1507.05 504.277 1506.39 506.245L1463.59 662.209C1463.26 663.685 1462.28 664.423 1460.64 664.423H1434.56C1432.92 664.423 1431.94 663.685 1431.61 662.209L1415.87 607.597C1414.23 602.021 1412.67 596.527 1411.19 591.115C1409.72 585.539 1408.24 579.963 1406.76 574.387H1406.27C1404.8 579.799 1403.24 585.211 1401.6 590.623C1400.12 596.035 1398.48 601.529 1396.68 607.105L1380.2 662.209C1379.87 663.029 1379.46 663.603 1378.97 663.931C1378.64 664.259 1378.06 664.423 1377.24 664.423H1351.91ZM1588.46 667.375C1567.47 667.375 1551.73 662.291 1541.23 652.123C1530.9 641.791 1525.73 627.195 1525.73 608.335V559.381C1525.73 540.357 1530.9 525.761 1541.23 515.593C1551.73 505.425 1567.47 500.341 1588.46 500.341C1609.45 500.341 1625.12 505.425 1635.45 515.593C1645.94 525.761 1651.19 540.357 1651.19 559.381V608.335C1651.19 627.195 1645.94 641.791 1635.45 652.123C1625.12 662.291 1609.45 667.375 1588.46 667.375ZM1588.46 645.481C1600.93 645.481 1610.36 642.283 1616.75 635.887C1623.15 629.327 1626.35 619.897 1626.35 607.597V560.119C1626.35 547.655 1623.15 538.225 1616.75 531.829C1610.36 525.433 1600.93 522.235 1588.46 522.235C1576.16 522.235 1566.73 525.433 1560.17 531.829C1553.78 538.225 1550.58 547.655 1550.58 560.119V607.597C1550.58 619.897 1553.78 629.327 1560.17 635.887C1566.73 642.283 1576.16 645.481 1588.46 645.481ZM1690.43 664.423C1688.62 664.423 1687.72 663.521 1687.72 661.717V505.999C1687.72 504.195 1688.62 503.293 1690.43 503.293H1721.67C1723.31 503.293 1724.37 503.949 1724.87 505.261L1768.16 592.591C1771.11 598.495 1773.74 603.907 1776.03 608.827C1778.49 613.747 1780.63 618.421 1782.43 622.849C1784.4 627.277 1786.2 631.541 1787.84 635.641H1788.33C1788.33 632.361 1788.25 628.835 1788.09 625.063C1788.09 621.291 1788.01 617.519 1787.84 613.747C1787.84 609.811 1787.84 606.039 1787.84 602.431C1787.84 598.659 1787.84 595.051 1787.84 591.607V505.999C1787.84 504.195 1788.66 503.293 1790.3 503.293H1809.49C1811.29 503.293 1812.2 504.195 1812.2 505.999V661.717C1812.2 663.521 1811.29 664.423 1809.49 664.423H1778.49C1777.02 664.423 1776.03 663.767 1775.54 662.455L1733.23 577.585C1730.61 572.337 1728.06 567.171 1725.6 562.087C1723.31 557.003 1721.01 552.001 1718.72 547.081C1716.42 541.997 1714.21 537.077 1712.07 532.321H1711.58C1711.58 536.421 1711.58 540.439 1711.58 544.375C1711.75 548.147 1711.83 552.001 1711.83 555.937C1711.99 559.709 1712.07 563.563 1712.07 567.499C1712.07 571.435 1712.07 575.453 1712.07 579.553V661.717C1712.07 663.521 1711.17 664.423 1709.37 664.423H1690.43ZM1854.03 664.423C1852.22 664.423 1851.32 663.521 1851.32 661.717V505.999C1851.32 504.195 1852.22 503.293 1854.03 503.293H1873.46C1875.26 503.293 1876.17 504.195 1876.17 505.999V661.717C1876.17 663.521 1875.26 664.423 1873.46 664.423H1854.03ZM1902.92 664.423C1901.11 664.423 1900.21 663.603 1900.21 661.963V661.225C1900.21 660.241 1900.62 659.093 1901.44 657.781L1971.3 549.541C1973.93 545.441 1976.47 541.423 1978.93 537.487C1981.55 533.551 1984.26 529.533 1987.05 525.433V525.187C1982.46 525.351 1977.78 525.433 1973.03 525.433C1968.43 525.433 1963.76 525.433 1959 525.433H1910.79C1908.98 525.433 1908.08 524.531 1908.08 522.727V505.999C1908.08 504.195 1908.98 503.293 1910.79 503.293H2023.21C2025.01 503.293 2025.92 504.113 2025.92 505.753V506.491C2025.92 507.147 2025.83 507.803 2025.67 508.459C2025.51 508.951 2025.26 509.443 2024.93 509.935L1955.81 615.715C1952.85 620.307 1949.98 624.817 1947.2 629.245C1944.41 633.509 1941.46 637.855 1938.34 642.283V642.529C1943.59 642.365 1948.84 642.283 1954.08 642.283C1959.33 642.283 1964.58 642.283 1969.83 642.283H2017.55C2019.36 642.283 2020.26 643.185 2020.26 644.989V661.717C2020.26 663.521 2019.36 664.423 2017.55 664.423H1902.92ZM2053.42 664.423C2051.62 664.423 2050.71 663.521 2050.71 661.717V505.999C2050.71 504.195 2051.62 503.293 2053.42 503.293H2143.95C2145.59 503.293 2146.41 504.195 2146.41 505.999V522.727C2146.41 524.531 2145.59 525.433 2143.95 525.433H2075.56V572.173H2138.04C2139.68 572.173 2140.5 572.993 2140.5 574.633V590.623C2140.5 592.427 2139.68 593.329 2138.04 593.329H2075.56V642.283H2143.95C2145.59 642.283 2146.41 643.185 2146.41 644.989V661.717C2146.41 663.521 2145.59 664.423 2143.95 664.423H2053.42ZM2289.13 667.375C2276.99 667.375 2266.58 665.079 2257.89 660.487C2249.19 655.895 2242.47 649.171 2237.71 640.315C2232.96 631.459 2230.58 620.799 2230.58 608.335V559.381C2230.58 540.685 2236.16 526.171 2247.31 515.839C2258.62 505.507 2274.12 500.341 2293.8 500.341C2307.41 500.341 2319.06 502.555 2328.73 506.983C2338.41 511.411 2345.54 517.643 2350.14 525.679C2354.89 533.715 2356.45 543.063 2354.81 553.723C2354.65 555.527 2353.74 556.429 2352.1 556.429L2332.42 556.183C2330.62 556.183 2329.8 555.281 2329.96 553.477C2330.46 546.753 2329.39 541.095 2326.77 536.503C2324.14 531.747 2320.12 528.139 2314.71 525.679C2309.46 523.219 2302.66 521.989 2294.29 521.989C2281.5 521.989 2271.83 525.105 2265.27 531.337C2258.71 537.569 2255.43 546.999 2255.43 559.627V608.089C2255.43 620.717 2258.54 630.147 2264.77 636.379C2271.17 642.611 2280.68 645.727 2293.31 645.727C2305.94 645.727 2315.53 642.693 2322.09 636.625C2328.82 630.393 2332.18 621.537 2332.18 610.057V601.201H2296.02C2294.21 601.201 2293.31 600.381 2293.31 598.741V583.981C2293.31 582.177 2294.21 581.275 2296.02 581.275H2352.84C2353.66 581.275 2354.32 581.521 2354.81 582.013C2355.3 582.505 2355.55 583.161 2355.55 583.981V630.967C2355.55 636.215 2355.63 641.463 2355.79 646.711C2356.12 651.795 2356.61 656.715 2357.27 661.471C2357.6 662.455 2357.52 663.193 2357.02 663.685C2356.53 664.177 2355.88 664.423 2355.06 664.423H2339.07C2338.41 664.423 2337.84 664.259 2337.34 663.931C2336.85 663.603 2336.52 663.029 2336.36 662.209C2335.87 660.077 2335.46 657.699 2335.13 655.075C2334.97 652.451 2334.8 649.663 2334.64 646.711H2334.39C2331.44 651.303 2327.67 655.157 2323.08 658.273C2318.65 661.225 2313.56 663.439 2307.82 664.915C2302.08 666.555 2295.85 667.375 2289.13 667.375ZM2397.68 664.423C2395.87 664.423 2394.97 663.521 2394.97 661.717V505.999C2394.97 504.195 2395.87 503.293 2397.68 503.293H2446.88C2467.21 503.293 2482.14 507.147 2491.65 514.855C2501.16 522.563 2505.92 533.961 2505.92 549.049C2505.92 560.693 2503.21 570.451 2497.8 578.323C2492.39 586.031 2484.51 591.361 2474.18 594.313V594.559L2514.77 661.225C2515.26 662.045 2515.35 662.783 2515.02 663.439C2514.69 664.095 2513.95 664.423 2512.8 664.423H2490.17C2488.7 664.423 2487.63 663.849 2486.97 662.701L2448.11 597.757H2419.82V661.717C2419.82 663.521 2418.91 664.423 2417.11 664.423H2397.68ZM2419.82 578.077H2445.15C2457.78 578.077 2466.88 575.863 2472.46 571.435C2478.2 567.007 2481.07 559.955 2481.07 550.279C2481.07 540.931 2478.45 534.289 2473.2 530.353C2467.95 526.417 2459.09 524.449 2446.63 524.449H2419.82V578.077ZM2602.01 667.375C2581.02 667.375 2565.28 662.291 2554.78 652.123C2544.45 641.791 2539.28 627.195 2539.28 608.335V559.381C2539.28 540.357 2544.45 525.761 2554.78 515.593C2565.28 505.425 2581.02 500.341 2602.01 500.341C2623 500.341 2638.67 505.425 2649 515.593C2659.49 525.761 2664.74 540.357 2664.74 559.381V608.335C2664.74 627.195 2659.49 641.791 2649 652.123C2638.67 662.291 2623 667.375 2602.01 667.375ZM2602.01 645.481C2614.48 645.481 2623.91 642.283 2630.3 635.887C2636.7 629.327 2639.9 619.897 2639.9 607.597V560.119C2639.9 547.655 2636.7 538.225 2630.3 531.829C2623.91 525.433 2614.48 522.235 2602.01 522.235C2589.71 522.235 2580.28 525.433 2573.72 531.829C2567.33 538.225 2564.13 547.655 2564.13 560.119V607.597C2564.13 619.897 2567.33 629.327 2573.72 635.887C2580.28 642.283 2589.71 645.481 2602.01 645.481ZM2761.29 667.375C2741.61 667.375 2726.44 662.373 2715.78 652.369C2705.29 642.201 2700.04 627.441 2700.04 608.089V505.999C2700.04 504.195 2700.94 503.293 2702.74 503.293H2722.18C2723 503.293 2723.65 503.539 2724.15 504.031C2724.64 504.359 2724.88 505.015 2724.88 505.999V608.089C2724.88 620.061 2727.92 629.327 2733.99 635.887C2740.22 642.447 2749.32 645.727 2761.29 645.727C2773.26 645.727 2782.28 642.447 2788.35 635.887C2794.58 629.327 2797.7 620.061 2797.7 608.089V505.999C2797.7 504.195 2798.52 503.293 2800.16 503.293H2819.84C2821.64 503.293 2822.55 504.195 2822.55 505.999V608.335C2822.55 627.031 2817.13 641.545 2806.31 651.877C2795.49 662.209 2780.48 667.375 2761.29 667.375ZM2863.25 664.423C2861.45 664.423 2860.54 663.521 2860.54 661.717V505.999C2860.54 504.195 2861.45 503.293 2863.25 503.293H2906.3C2926.8 503.293 2942.05 507.639 2952.06 516.331C2962.22 525.023 2967.31 537.733 2967.31 554.461C2967.31 571.189 2962.14 583.899 2951.81 592.591C2941.64 601.283 2926.47 605.629 2906.3 605.629H2885.39V661.717C2885.39 663.521 2884.49 664.423 2882.68 664.423H2863.25ZM2885.39 584.719H2905.81C2918.44 584.719 2927.7 582.341 2933.61 577.585C2939.51 572.829 2942.46 565.367 2942.46 555.199C2942.46 544.375 2939.43 536.585 2933.36 531.829C2927.46 526.909 2918.19 524.449 2905.56 524.449H2885.39V584.719Z" fill="#A5A6A9"/>
<path d="M1302.88 1030.42C1299.04 1030.42 1297.72 1028.5 1298.92 1024.66L1373.8 798.583C1374.76 795.943 1376.68 794.623 1379.56 794.623H1443.64C1446.52 794.623 1448.44 795.943 1449.4 798.583L1524.64 1024.66C1525.12 1026.34 1525 1027.78 1524.28 1028.98C1523.8 1029.94 1522.6 1030.42 1520.68 1030.42H1466.68C1463.56 1030.42 1461.64 1029.1 1460.92 1026.46L1424.56 896.143C1422.16 887.503 1419.88 878.863 1417.72 870.223C1415.56 861.583 1413.52 853.063 1411.6 844.663H1410.88C1408.96 853.303 1406.92 861.943 1404.76 870.583C1402.6 879.223 1400.32 887.863 1397.92 896.503L1362.28 1026.1C1361.56 1028.98 1359.64 1030.42 1356.52 1030.42H1302.88ZM1364.08 988.303L1373.44 941.863H1447.96L1457.68 988.303H1364.08ZM1549.87 1030.42C1546.51 1030.42 1544.83 1028.74 1544.83 1025.38V799.663C1544.83 796.303 1546.51 794.623 1549.87 794.623H1600.27C1602.91 794.623 1604.23 796.303 1604.23 799.663V978.943H1693.51C1696.63 978.943 1698.19 980.623 1698.19 983.983V1025.38C1698.19 1028.74 1696.63 1030.42 1693.51 1030.42H1549.87ZM1706.91 956.623C1703.55 956.623 1701.87 954.943 1701.87 951.583V917.383C1701.87 914.023 1703.55 912.343 1706.91 912.343H1836.15C1839.51 912.343 1841.19 914.023 1841.19 917.383V951.583C1841.19 954.943 1839.51 956.623 1836.15 956.623H1706.91ZM1884.56 1030.42C1881.2 1030.42 1879.52 1028.74 1879.52 1025.38V799.663C1879.52 796.303 1881.2 794.623 1884.56 794.623H1965.2C1995.2 794.623 2017.76 799.423 2032.88 809.023C2048 818.383 2055.56 832.783 2055.56 852.223C2055.56 866.623 2052.44 878.023 2046.2 886.423C2040.2 894.823 2030.84 901.183 2018.12 905.503V906.583C2033 909.463 2044.64 915.223 2053.04 923.863C2061.44 932.263 2065.64 944.263 2065.64 959.863C2065.64 985.063 2057.72 1003.18 2041.88 1014.22C2026.28 1025.02 2000.6 1030.42 1964.84 1030.42H1884.56ZM1938.92 982.543H1968.08C1981.52 982.543 1991.24 980.623 1997.24 976.783C2003.24 972.943 2006.24 966.343 2006.24 956.983C2006.24 948.583 2003.12 942.463 1996.88 938.623C1990.88 934.543 1981.16 932.503 1967.72 932.503H1938.92V982.543ZM1938.92 889.663H1964.84C1975.88 889.663 1983.8 887.623 1988.6 883.543C1993.64 879.463 1996.16 873.343 1996.16 865.183C1996.16 857.743 1993.4 852.103 1987.88 848.263C1982.6 844.423 1974.2 842.503 1962.68 842.503H1938.92V889.663ZM2103.23 1030.42C2099.87 1030.42 2098.19 1028.74 2098.19 1025.38V799.663C2098.19 796.303 2099.87 794.623 2103.23 794.623H2152.55C2155.91 794.623 2157.59 796.303 2157.59 799.663V1025.38C2157.59 1028.74 2155.91 1030.42 2152.55 1030.42H2103.23ZM2205.19 1030.42C2201.83 1030.42 2200.15 1028.74 2200.15 1025.38V799.663C2200.15 796.303 2201.83 794.623 2205.19 794.623H2288.35C2322.19 794.623 2346.55 801.223 2361.43 814.423C2376.31 827.623 2383.75 846.463 2383.75 870.943C2383.75 886.783 2380.39 900.343 2373.67 911.623C2366.95 922.903 2356.15 930.823 2341.27 935.383V936.103L2396.71 1024.3C2397.91 1025.98 2398.15 1027.42 2397.43 1028.62C2396.71 1029.82 2395.39 1030.42 2393.47 1030.42H2338.03C2335.39 1030.42 2333.35 1029.34 2331.91 1027.18L2282.95 944.383H2259.55V1025.38C2259.55 1028.74 2257.87 1030.42 2254.51 1030.42H2205.19ZM2259.55 897.943H2288.35C2300.35 897.943 2309.35 895.903 2315.35 891.823C2321.35 887.503 2324.35 880.663 2324.35 871.303C2324.35 862.183 2321.59 855.583 2316.07 851.503C2310.79 847.183 2302.03 845.023 2289.79 845.023H2259.55V897.943ZM2516.39 1034.74C2483.51 1034.74 2458.67 1027.18 2441.87 1012.06C2425.07 996.943 2416.67 973.423 2416.67 941.503V799.663C2416.67 796.303 2418.35 794.623 2421.71 794.623H2471.39C2472.59 794.623 2473.67 795.103 2474.63 796.063C2475.59 796.783 2476.07 797.983 2476.07 799.663V938.623C2476.07 952.783 2479.07 963.823 2485.07 971.743C2491.31 979.663 2501.75 983.623 2516.39 983.623C2530.79 983.623 2540.99 979.663 2546.99 971.743C2553.23 963.823 2556.35 952.783 2556.35 938.623V799.663C2556.35 796.303 2558.03 794.623 2561.39 794.623H2610.71C2614.07 794.623 2615.75 796.303 2615.75 799.663V941.503C2615.75 973.183 2607.35 996.703 2590.55 1012.06C2573.75 1027.18 2549.03 1034.74 2516.39 1034.74ZM2661.52 1030.42C2658.16 1030.42 2656.48 1028.74 2656.48 1025.38V799.663C2656.48 796.303 2658.16 794.623 2661.52 794.623H2724.52C2727.16 794.623 2729.08 795.823 2730.28 798.223L2775.64 888.583C2779 895.303 2782.48 902.503 2786.08 910.183C2789.68 917.863 2792.92 925.423 2795.8 932.863C2798.92 940.303 2801.44 946.903 2803.36 952.663H2804.44C2803.96 948.103 2803.48 942.943 2803 937.183C2802.76 931.423 2802.4 925.543 2801.92 919.543C2801.68 913.543 2801.44 907.663 2801.2 901.903C2801.2 896.143 2801.2 890.983 2801.2 886.423V799.663C2801.2 796.303 2802.76 794.623 2805.88 794.623H2853.4C2856.76 794.623 2858.44 796.303 2858.44 799.663V1025.38C2858.44 1028.74 2856.76 1030.42 2853.4 1030.42H2790.4C2788 1030.42 2786.08 1029.22 2784.64 1026.82L2741.44 940.783C2738.08 934.303 2734.72 927.103 2731.36 919.183C2728.24 911.263 2725.12 903.463 2722 895.783C2718.88 887.863 2716 880.903 2713.36 874.903H2712.28C2712.52 879.943 2712.76 885.343 2713 891.103C2713.24 896.863 2713.36 902.863 2713.36 909.103C2713.6 915.103 2713.72 920.983 2713.72 926.743C2713.72 932.503 2713.72 938.023 2713.72 943.303V1025.38C2713.72 1028.74 2712.04 1030.42 2708.68 1030.42H2661.52ZM2905.85 1030.42C2902.49 1030.42 2900.81 1028.74 2900.81 1025.38V799.663C2900.81 796.303 2902.49 794.623 2905.85 794.623H2955.17C2958.53 794.623 2960.21 796.303 2960.21 799.663V1025.38C2960.21 1028.74 2958.53 1030.42 2955.17 1030.42H2905.85Z" fill="#FE6B6B"/>
<rect x="2540" y="1186.42" width="442" height="187" rx="93.5" fill="#FE6B6B"/>
<path d="M2657.95 1309.57C2649.25 1309.57 2642.4 1307.49 2637.41 1303.33C2632.48 1299.17 2630.02 1292.65 2630.02 1283.75V1270.5C2630.02 1261.41 2632.48 1254.79 2637.41 1250.63C2642.4 1246.47 2649.25 1244.39 2657.95 1244.39C2664.48 1244.39 2669.92 1245.38 2674.27 1247.37C2678.63 1249.35 2681.79 1252.13 2683.78 1255.72C2685.83 1259.3 2686.53 1263.49 2685.89 1268.29C2685.83 1268.68 2685.67 1269 2685.41 1269.25C2685.22 1269.51 2684.9 1269.64 2684.45 1269.64H2669.38C2668.48 1269.64 2668.03 1269.13 2668.03 1268.1C2668.03 1265.67 2667.3 1263.69 2665.83 1262.15C2664.35 1260.55 2661.83 1259.75 2658.24 1259.75C2655.04 1259.75 2652.51 1260.65 2650.66 1262.44C2648.8 1264.17 2647.87 1267.08 2647.87 1271.17V1282.79C2647.87 1286.89 2648.8 1289.83 2650.66 1291.62C2652.51 1293.35 2655.04 1294.21 2658.24 1294.21C2662.08 1294.21 2664.67 1293.38 2666.02 1291.72C2667.36 1289.99 2668.03 1288.04 2668.03 1285.86C2668.03 1284.84 2668.48 1284.33 2669.38 1284.33H2684.45C2685.28 1284.33 2685.76 1284.77 2685.89 1285.67C2686.4 1290.53 2685.63 1294.76 2683.59 1298.34C2681.54 1301.93 2678.34 1304.71 2673.99 1306.69C2669.7 1308.61 2664.35 1309.57 2657.95 1309.57ZM2731.12 1309.57C2721.91 1309.57 2714.9 1307.43 2710.1 1303.14C2705.3 1298.79 2702.9 1292.36 2702.9 1283.85V1270.12C2702.9 1261.54 2705.3 1255.11 2710.1 1250.82C2714.9 1246.53 2721.91 1244.39 2731.12 1244.39C2740.34 1244.39 2747.35 1246.53 2752.15 1250.82C2756.95 1255.11 2759.35 1261.54 2759.35 1270.12V1283.85C2759.35 1292.36 2756.95 1298.79 2752.15 1303.14C2747.35 1307.43 2740.34 1309.57 2731.12 1309.57ZM2731.12 1294.02C2734.71 1294.02 2737.33 1293.03 2739 1291.05C2740.66 1289.06 2741.49 1286.21 2741.49 1282.5V1271.46C2741.49 1267.75 2740.66 1264.9 2739 1262.92C2737.33 1260.93 2734.71 1259.94 2731.12 1259.94C2727.6 1259.94 2724.98 1260.93 2723.25 1262.92C2721.59 1264.9 2720.76 1267.75 2720.76 1271.46V1282.5C2720.76 1286.21 2721.59 1289.06 2723.25 1291.05C2724.98 1293.03 2727.6 1294.02 2731.12 1294.02ZM2779.22 1308.42C2778.26 1308.42 2777.78 1307.94 2777.78 1306.98V1246.98C2777.78 1246.02 2778.26 1245.54 2779.22 1245.54H2802.35C2811.76 1245.54 2818.48 1247.4 2822.51 1251.11C2826.55 1254.76 2828.56 1259.97 2828.56 1266.76C2828.56 1270.85 2827.73 1274.41 2826.07 1277.41C2824.4 1280.42 2821.59 1282.53 2817.62 1283.75V1283.94L2832.11 1306.69C2832.43 1307.14 2832.5 1307.56 2832.31 1307.94C2832.11 1308.26 2831.73 1308.42 2831.15 1308.42H2814.45C2813.68 1308.42 2813.11 1308.1 2812.72 1307.46L2800.34 1286.53H2795.63V1306.98C2795.63 1307.94 2795.15 1308.42 2794.19 1308.42H2779.22ZM2795.63 1272.52H2802.64C2805.27 1272.52 2807.25 1272.07 2808.59 1271.17C2810 1270.21 2810.71 1268.71 2810.71 1266.66C2810.71 1264.61 2810.1 1263.11 2808.88 1262.15C2807.67 1261.19 2805.68 1260.71 2802.93 1260.71H2795.63V1272.52ZM2849.19 1308.42C2848.23 1308.42 2847.75 1307.94 2847.75 1306.98V1246.98C2847.75 1246.02 2848.23 1245.54 2849.19 1245.54H2890.66C2891.56 1245.54 2892.01 1246.02 2892.01 1246.98V1259.56C2892.01 1260.45 2891.56 1260.9 2890.66 1260.9H2865.61V1269.64H2888.36C2889.26 1269.64 2889.7 1270.12 2889.7 1271.08V1282.69C2889.7 1283.65 2889.26 1284.13 2888.36 1284.13H2865.61V1293.06H2890.66C2891.56 1293.06 2892.01 1293.51 2892.01 1294.41V1306.98C2892.01 1307.94 2891.56 1308.42 2890.66 1308.42H2849.19Z" fill="#161720"/>
</svg>
