<svg width="3622" height="1841" viewBox="0 0 3622 1841" fill="none" xmlns="http://www.w3.org/2000/svg">
<rect width="3622" height="1841" fill="#E9EAEE"/>
<path d="M845.428 982.081C842.113 1001.61 833.665 1019.8 821.017 1034.65C808.369 1049.5 792.014 1060.43 773.761 1066.22C755.507 1072.02 736.066 1072.46 717.586 1067.5C699.106 1062.53 682.308 1052.36 669.048 1038.1C655.789 1023.83 646.585 1006.04 642.453 986.682C638.322 967.325 639.424 947.158 645.639 928.411C651.853 909.664 662.937 893.067 677.666 880.455C692.395 867.843 710.194 859.708 729.096 856.949L734.281 895.276C722.184 897.042 710.793 902.248 701.366 910.32C691.94 918.391 684.846 929.013 680.869 941.011C676.892 953.009 676.186 965.916 678.83 978.305C681.474 990.694 687.365 1002.08 695.851 1011.21C704.337 1020.34 715.088 1026.85 726.915 1030.03C738.742 1033.2 751.184 1032.92 762.867 1029.21C774.549 1025.5 785.016 1018.51 793.111 1009.01C801.206 999.501 806.613 987.857 808.734 975.361L845.428 982.081Z" fill="#FE4646"/>
<path d="M1085.52 856.311C1104.54 858.04 1122.72 865.196 1138.06 876.99C1153.41 888.783 1165.31 904.755 1172.46 923.138C1179.61 941.522 1181.73 961.601 1178.58 981.157C1175.43 1000.71 1167.14 1018.98 1154.61 1033.95C1142.09 1048.91 1125.83 1059.98 1107.62 1065.95C1089.42 1071.91 1069.98 1072.53 1051.46 1067.73C1032.94 1062.93 1016.06 1052.91 1002.68 1038.77C989.301 1024.63 979.947 1006.92 975.653 987.597L1011.96 978.891C1014.71 991.255 1020.69 1002.59 1029.26 1011.64C1037.82 1020.69 1048.62 1027.11 1060.48 1030.18C1072.33 1033.25 1084.77 1032.85 1096.42 1029.03C1108.07 1025.22 1118.48 1018.13 1126.49 1008.55C1134.51 998.977 1139.82 987.284 1141.83 974.769C1143.85 962.253 1142.49 949.403 1137.92 937.637C1133.34 925.872 1125.72 915.65 1115.9 908.102C1106.08 900.554 1094.44 895.974 1082.27 894.868L1085.52 856.311Z" fill="#FE4646"/>
<path d="M976.527 589.684C981.253 571.363 990.561 554.667 1003.51 541.29C1016.45 527.913 1032.57 518.332 1050.24 513.519C1067.9 508.706 1086.47 508.832 1104.07 513.885C1121.67 518.938 1137.67 528.738 1150.45 542.289C1163.22 555.841 1172.32 572.662 1176.82 591.046C1181.31 609.43 1181.04 628.722 1176.04 646.964C1171.04 665.205 1161.48 681.748 1148.33 694.912C1135.19 708.076 1118.92 717.393 1101.19 721.917L1092.3 684.331C1103.65 681.435 1114.06 675.472 1122.47 667.047C1130.89 658.622 1137 648.035 1140.21 636.36C1143.41 624.686 1143.58 612.339 1140.7 600.573C1137.83 588.808 1132 578.042 1123.83 569.369C1115.65 560.696 1105.41 554.424 1094.15 551.19C1082.88 547.956 1071 547.875 1059.69 550.956C1048.39 554.036 1038.07 560.168 1029.78 568.729C1021.5 577.291 1015.54 587.976 1012.52 599.702L976.527 589.684Z" fill="#FE4646"/>
<path d="M721.981 722.671C703.311 718.549 686.101 709.143 672.255 695.495C658.41 681.847 648.467 664.488 643.527 645.336C638.586 626.184 638.841 605.986 644.262 586.976C649.683 567.965 660.06 550.882 674.245 537.615C688.43 524.348 705.871 515.414 724.639 511.8C743.407 508.187 762.771 510.035 780.591 517.141C798.411 524.246 813.992 536.332 825.612 552.062C837.232 567.792 844.438 586.554 846.433 606.272L809.377 610.318C808.1 597.698 803.489 585.691 796.052 575.623C788.615 565.556 778.643 557.821 767.238 553.274C755.834 548.726 743.44 547.543 731.429 549.856C719.417 552.168 708.255 557.886 699.177 566.377C690.098 574.868 683.457 585.801 679.988 597.968C676.518 610.135 676.355 623.062 679.517 635.319C682.679 647.576 689.042 658.686 697.903 667.421C706.765 676.155 717.779 682.175 729.728 684.813L721.981 722.671Z" fill="#FE4646"/>
<path d="M847 788.903C847 848.279 800.662 896.413 743.5 896.413C686.339 896.413 640 848.279 640 788.903C640 729.527 686.339 681.393 743.5 681.393C800.662 681.393 847 729.527 847 788.903ZM677.26 788.903C677.26 826.904 706.917 857.709 743.5 857.709C780.084 857.709 809.74 826.904 809.74 788.903C809.74 750.902 780.084 720.096 743.5 720.096C706.917 720.096 677.26 750.902 677.26 788.903Z" fill="#FE4646"/>
<path d="M1015 963.413C1015 1022.79 968.662 1070.92 911.5 1070.92C854.339 1070.92 808 1022.79 808 963.413C808 904.036 854.339 855.902 911.5 855.902C968.662 855.902 1015 904.036 1015 963.413ZM845.26 963.413C845.26 1001.41 874.917 1032.22 911.5 1032.22C948.084 1032.22 977.74 1001.41 977.74 963.413C977.74 925.412 948.084 894.606 911.5 894.606C874.917 894.606 845.26 925.412 845.26 963.413Z" fill="#FE4646"/>
<path d="M1180 788.903C1180 848.279 1133.66 896.413 1076.5 896.413C1019.34 896.413 973 848.279 973 788.903C973 729.527 1019.34 681.393 1076.5 681.393C1133.66 681.393 1180 729.527 1180 788.903ZM1010.26 788.903C1010.26 826.904 1039.92 857.709 1076.5 857.709C1113.08 857.709 1142.74 826.904 1142.74 788.903C1142.74 750.902 1113.08 720.096 1076.5 720.096C1039.92 720.096 1010.26 750.902 1010.26 788.903Z" fill="#FE4646"/>
<path d="M1015 617.51C1015 676.886 968.662 725.02 911.5 725.02C854.339 725.02 808 676.886 808 617.51C808 558.134 854.339 510 911.5 510C968.662 510 1015 558.134 1015 617.51ZM845.26 617.51C845.26 655.511 874.917 686.317 911.5 686.317C948.084 686.317 977.74 655.511 977.74 617.51C977.74 579.509 948.084 548.704 911.5 548.704C874.917 548.704 845.26 579.509 845.26 617.51Z" fill="#FE4646"/>
<path d="M1351.91 663.5C1350.43 663.5 1349.53 662.762 1349.2 661.286L1304.67 505.322C1304.18 503.354 1305 502.37 1307.13 502.37H1326.81C1328.45 502.37 1329.44 503.108 1329.77 504.584L1356.09 600.032C1357.24 603.968 1358.3 608.068 1359.29 612.332C1360.27 616.596 1361.25 620.86 1362.24 625.124C1363.22 629.224 1364.21 633.242 1365.19 637.178H1365.44C1367.08 631.438 1368.72 625.78 1370.36 620.204C1372.16 614.464 1373.96 608.806 1375.77 603.23L1395.45 538.532L1386.59 508.028C1386.26 507.208 1386.35 506.552 1386.84 506.06C1387.33 505.404 1387.99 505.076 1388.81 505.076H1408.73C1410.37 505.076 1411.36 505.896 1411.68 507.536L1438.01 604.706C1439.65 610.118 1441.12 615.53 1442.43 620.942C1443.75 626.354 1445.14 631.766 1446.62 637.178H1446.86C1447.68 633.406 1448.58 629.388 1449.57 625.124C1450.55 620.86 1451.54 616.596 1452.52 612.332C1453.5 608.068 1454.49 603.968 1455.47 600.032L1480.81 504.584C1481.14 503.108 1482.12 502.37 1483.76 502.37H1504.18C1506.31 502.37 1507.05 503.354 1506.39 505.322L1463.59 661.286C1463.26 662.762 1462.28 663.5 1460.64 663.5H1434.56C1432.92 663.5 1431.94 662.762 1431.61 661.286L1415.87 606.674C1414.23 601.098 1412.67 595.604 1411.19 590.192C1409.72 584.616 1408.24 579.04 1406.76 573.464H1406.27C1404.8 578.876 1403.24 584.288 1401.6 589.7C1400.12 595.112 1398.48 600.606 1396.68 606.182L1380.2 661.286C1379.87 662.106 1379.46 662.68 1378.97 663.008C1378.64 663.336 1378.06 663.5 1377.24 663.5H1351.91ZM1588.46 666.452C1567.47 666.452 1551.73 661.368 1541.23 651.2C1530.9 640.868 1525.73 626.272 1525.73 607.412V558.458C1525.73 539.434 1530.9 524.838 1541.23 514.67C1551.73 504.502 1567.47 499.418 1588.46 499.418C1609.45 499.418 1625.12 504.502 1635.45 514.67C1645.94 524.838 1651.19 539.434 1651.19 558.458V607.412C1651.19 626.272 1645.94 640.868 1635.45 651.2C1625.12 661.368 1609.45 666.452 1588.46 666.452ZM1588.46 644.558C1600.93 644.558 1610.36 641.36 1616.75 634.964C1623.15 628.404 1626.35 618.974 1626.35 606.674V559.196C1626.35 546.732 1623.15 537.302 1616.75 530.906C1610.36 524.51 1600.93 521.312 1588.46 521.312C1576.16 521.312 1566.73 524.51 1560.17 530.906C1553.78 537.302 1550.58 546.732 1550.58 559.196V606.674C1550.58 618.974 1553.78 628.404 1560.17 634.964C1566.73 641.36 1576.16 644.558 1588.46 644.558ZM1690.43 663.5C1688.62 663.5 1687.72 662.598 1687.72 660.794V505.076C1687.72 503.272 1688.62 502.37 1690.43 502.37H1721.67C1723.31 502.37 1724.37 503.026 1724.87 504.338L1768.16 591.668C1771.11 597.572 1773.74 602.984 1776.03 607.904C1778.49 612.824 1780.63 617.498 1782.43 621.926C1784.4 626.354 1786.2 630.618 1787.84 634.718H1788.33C1788.33 631.438 1788.25 627.912 1788.09 624.14C1788.09 620.368 1788.01 616.596 1787.84 612.824C1787.84 608.888 1787.84 605.116 1787.84 601.508C1787.84 597.736 1787.84 594.128 1787.84 590.684V505.076C1787.84 503.272 1788.66 502.37 1790.3 502.37H1809.49C1811.29 502.37 1812.2 503.272 1812.2 505.076V660.794C1812.2 662.598 1811.29 663.5 1809.49 663.5H1778.49C1777.02 663.5 1776.03 662.844 1775.54 661.532L1733.23 576.662C1730.61 571.414 1728.06 566.248 1725.6 561.164C1723.31 556.08 1721.01 551.078 1718.72 546.158C1716.42 541.074 1714.21 536.154 1712.07 531.398H1711.58C1711.58 535.498 1711.58 539.516 1711.58 543.452C1711.75 547.224 1711.83 551.078 1711.83 555.014C1711.99 558.786 1712.07 562.64 1712.07 566.576C1712.07 570.512 1712.07 574.53 1712.07 578.63V660.794C1712.07 662.598 1711.17 663.5 1709.37 663.5H1690.43ZM1854.03 663.5C1852.22 663.5 1851.32 662.598 1851.32 660.794V505.076C1851.32 503.272 1852.22 502.37 1854.03 502.37H1873.46C1875.26 502.37 1876.17 503.272 1876.17 505.076V660.794C1876.17 662.598 1875.26 663.5 1873.46 663.5H1854.03ZM1902.92 663.5C1901.11 663.5 1900.21 662.68 1900.21 661.04V660.302C1900.21 659.318 1900.62 658.17 1901.44 656.858L1971.3 548.618C1973.93 544.518 1976.47 540.5 1978.93 536.564C1981.55 532.628 1984.26 528.61 1987.05 524.51V524.264C1982.46 524.428 1977.78 524.51 1973.03 524.51C1968.43 524.51 1963.76 524.51 1959 524.51H1910.79C1908.98 524.51 1908.08 523.608 1908.08 521.804V505.076C1908.08 503.272 1908.98 502.37 1910.79 502.37H2023.21C2025.01 502.37 2025.92 503.19 2025.92 504.83V505.568C2025.92 506.224 2025.83 506.88 2025.67 507.536C2025.51 508.028 2025.26 508.52 2024.93 509.012L1955.81 614.792C1952.85 619.384 1949.98 623.894 1947.2 628.322C1944.41 632.586 1941.46 636.932 1938.34 641.36V641.606C1943.59 641.442 1948.84 641.36 1954.08 641.36C1959.33 641.36 1964.58 641.36 1969.83 641.36H2017.55C2019.36 641.36 2020.26 642.262 2020.26 644.066V660.794C2020.26 662.598 2019.36 663.5 2017.55 663.5H1902.92ZM2053.42 663.5C2051.62 663.5 2050.71 662.598 2050.71 660.794V505.076C2050.71 503.272 2051.62 502.37 2053.42 502.37H2143.95C2145.59 502.37 2146.41 503.272 2146.41 505.076V521.804C2146.41 523.608 2145.59 524.51 2143.95 524.51H2075.56V571.25H2138.04C2139.68 571.25 2140.5 572.07 2140.5 573.71V589.7C2140.5 591.504 2139.68 592.406 2138.04 592.406H2075.56V641.36H2143.95C2145.59 641.36 2146.41 642.262 2146.41 644.066V660.794C2146.41 662.598 2145.59 663.5 2143.95 663.5H2053.42ZM2289.13 666.452C2276.99 666.452 2266.58 664.156 2257.89 659.564C2249.19 654.972 2242.47 648.248 2237.71 639.392C2232.96 630.536 2230.58 619.876 2230.58 607.412V558.458C2230.58 539.762 2236.16 525.248 2247.31 514.916C2258.62 504.584 2274.12 499.418 2293.8 499.418C2307.41 499.418 2319.06 501.632 2328.73 506.06C2338.41 510.488 2345.54 516.72 2350.14 524.756C2354.89 532.792 2356.45 542.14 2354.81 552.8C2354.65 554.604 2353.74 555.506 2352.1 555.506L2332.42 555.26C2330.62 555.26 2329.8 554.358 2329.96 552.554C2330.46 545.83 2329.39 540.172 2326.77 535.58C2324.14 530.824 2320.12 527.216 2314.71 524.756C2309.46 522.296 2302.66 521.066 2294.29 521.066C2281.5 521.066 2271.83 524.182 2265.27 530.414C2258.71 536.646 2255.43 546.076 2255.43 558.704V607.166C2255.43 619.794 2258.54 629.224 2264.77 635.456C2271.17 641.688 2280.68 644.804 2293.31 644.804C2305.94 644.804 2315.53 641.77 2322.09 635.702C2328.82 629.47 2332.18 620.614 2332.18 609.134V600.278H2296.02C2294.21 600.278 2293.31 599.458 2293.31 597.818V583.058C2293.31 581.254 2294.21 580.352 2296.02 580.352H2352.84C2353.66 580.352 2354.32 580.598 2354.81 581.09C2355.3 581.582 2355.55 582.238 2355.55 583.058V630.044C2355.55 635.292 2355.63 640.54 2355.79 645.788C2356.12 650.872 2356.61 655.792 2357.27 660.548C2357.6 661.532 2357.52 662.27 2357.02 662.762C2356.53 663.254 2355.88 663.5 2355.06 663.5H2339.07C2338.41 663.5 2337.84 663.336 2337.34 663.008C2336.85 662.68 2336.52 662.106 2336.36 661.286C2335.87 659.154 2335.46 656.776 2335.13 654.152C2334.97 651.528 2334.8 648.74 2334.64 645.788H2334.39C2331.44 650.38 2327.67 654.234 2323.08 657.35C2318.65 660.302 2313.56 662.516 2307.82 663.992C2302.08 665.632 2295.85 666.452 2289.13 666.452ZM2397.68 663.5C2395.87 663.5 2394.97 662.598 2394.97 660.794V505.076C2394.97 503.272 2395.87 502.37 2397.68 502.37H2446.88C2467.21 502.37 2482.14 506.224 2491.65 513.932C2501.16 521.64 2505.92 533.038 2505.92 548.126C2505.92 559.77 2503.21 569.528 2497.8 577.4C2492.39 585.108 2484.51 590.438 2474.18 593.39V593.636L2514.77 660.302C2515.26 661.122 2515.35 661.86 2515.02 662.516C2514.69 663.172 2513.95 663.5 2512.8 663.5H2490.17C2488.7 663.5 2487.63 662.926 2486.97 661.778L2448.11 596.834H2419.82V660.794C2419.82 662.598 2418.91 663.5 2417.11 663.5H2397.68ZM2419.82 577.154H2445.15C2457.78 577.154 2466.88 574.94 2472.46 570.512C2478.2 566.084 2481.07 559.032 2481.07 549.356C2481.07 540.008 2478.45 533.366 2473.2 529.43C2467.95 525.494 2459.09 523.526 2446.63 523.526H2419.82V577.154ZM2602.01 666.452C2581.02 666.452 2565.28 661.368 2554.78 651.2C2544.45 640.868 2539.28 626.272 2539.28 607.412V558.458C2539.28 539.434 2544.45 524.838 2554.78 514.67C2565.28 504.502 2581.02 499.418 2602.01 499.418C2623 499.418 2638.67 504.502 2649 514.67C2659.49 524.838 2664.74 539.434 2664.74 558.458V607.412C2664.74 626.272 2659.49 640.868 2649 651.2C2638.67 661.368 2623 666.452 2602.01 666.452ZM2602.01 644.558C2614.48 644.558 2623.91 641.36 2630.3 634.964C2636.7 628.404 2639.9 618.974 2639.9 606.674V559.196C2639.9 546.732 2636.7 537.302 2630.3 530.906C2623.91 524.51 2614.48 521.312 2602.01 521.312C2589.71 521.312 2580.28 524.51 2573.72 530.906C2567.33 537.302 2564.13 546.732 2564.13 559.196V606.674C2564.13 618.974 2567.33 628.404 2573.72 634.964C2580.28 641.36 2589.71 644.558 2602.01 644.558ZM2761.29 666.452C2741.61 666.452 2726.44 661.45 2715.78 651.446C2705.29 641.278 2700.04 626.518 2700.04 607.166V505.076C2700.04 503.272 2700.94 502.37 2702.74 502.37H2722.18C2723 502.37 2723.65 502.616 2724.15 503.108C2724.64 503.436 2724.88 504.092 2724.88 505.076V607.166C2724.88 619.138 2727.92 628.404 2733.99 634.964C2740.22 641.524 2749.32 644.804 2761.29 644.804C2773.26 644.804 2782.28 641.524 2788.35 634.964C2794.58 628.404 2797.7 619.138 2797.7 607.166V505.076C2797.7 503.272 2798.52 502.37 2800.16 502.37H2819.84C2821.64 502.37 2822.55 503.272 2822.55 505.076V607.412C2822.55 626.108 2817.13 640.622 2806.31 650.954C2795.49 661.286 2780.48 666.452 2761.29 666.452ZM2863.25 663.5C2861.45 663.5 2860.54 662.598 2860.54 660.794V505.076C2860.54 503.272 2861.45 502.37 2863.25 502.37H2906.3C2926.8 502.37 2942.05 506.716 2952.06 515.408C2962.22 524.1 2967.31 536.81 2967.31 553.538C2967.31 570.266 2962.14 582.976 2951.81 591.668C2941.64 600.36 2926.47 604.706 2906.3 604.706H2885.39V660.794C2885.39 662.598 2884.49 663.5 2882.68 663.5H2863.25ZM2885.39 583.796H2905.81C2918.44 583.796 2927.7 581.418 2933.61 576.662C2939.51 571.906 2942.46 564.444 2942.46 554.276C2942.46 543.452 2939.43 535.662 2933.36 530.906C2927.46 525.986 2918.19 523.526 2905.56 523.526H2885.39V583.796Z" fill="#626264"/>
<path d="M1302.88 1029.5C1299.04 1029.5 1297.72 1027.58 1298.92 1023.74L1373.8 797.66C1374.76 795.02 1376.68 793.7 1379.56 793.7H1443.64C1446.52 793.7 1448.44 795.02 1449.4 797.66L1524.64 1023.74C1525.12 1025.42 1525 1026.86 1524.28 1028.06C1523.8 1029.02 1522.6 1029.5 1520.68 1029.5H1466.68C1463.56 1029.5 1461.64 1028.18 1460.92 1025.54L1424.56 895.22C1422.16 886.58 1419.88 877.94 1417.72 869.3C1415.56 860.66 1413.52 852.14 1411.6 843.74H1410.88C1408.96 852.38 1406.92 861.02 1404.76 869.66C1402.6 878.3 1400.32 886.94 1397.92 895.58L1362.28 1025.18C1361.56 1028.06 1359.64 1029.5 1356.52 1029.5H1302.88ZM1364.08 987.38L1373.44 940.94H1447.96L1457.68 987.38H1364.08ZM1549.87 1029.5C1546.51 1029.5 1544.83 1027.82 1544.83 1024.46V798.74C1544.83 795.38 1546.51 793.7 1549.87 793.7H1600.27C1602.91 793.7 1604.23 795.38 1604.23 798.74V978.02H1693.51C1696.63 978.02 1698.19 979.7 1698.19 983.06V1024.46C1698.19 1027.82 1696.63 1029.5 1693.51 1029.5H1549.87ZM1706.91 955.7C1703.55 955.7 1701.87 954.02 1701.87 950.66V916.46C1701.87 913.1 1703.55 911.42 1706.91 911.42H1836.15C1839.51 911.42 1841.19 913.1 1841.19 916.46V950.66C1841.19 954.02 1839.51 955.7 1836.15 955.7H1706.91ZM1884.56 1029.5C1881.2 1029.5 1879.52 1027.82 1879.52 1024.46V798.74C1879.52 795.38 1881.2 793.7 1884.56 793.7H1965.2C1995.2 793.7 2017.76 798.5 2032.88 808.1C2048 817.46 2055.56 831.86 2055.56 851.3C2055.56 865.7 2052.44 877.1 2046.2 885.5C2040.2 893.9 2030.84 900.26 2018.12 904.58V905.66C2033 908.54 2044.64 914.3 2053.04 922.94C2061.44 931.34 2065.64 943.34 2065.64 958.94C2065.64 984.14 2057.72 1002.26 2041.88 1013.3C2026.28 1024.1 2000.6 1029.5 1964.84 1029.5H1884.56ZM1938.92 981.62H1968.08C1981.52 981.62 1991.24 979.7 1997.24 975.86C2003.24 972.02 2006.24 965.42 2006.24 956.06C2006.24 947.66 2003.12 941.54 1996.88 937.7C1990.88 933.62 1981.16 931.58 1967.72 931.58H1938.92V981.62ZM1938.92 888.74H1964.84C1975.88 888.74 1983.8 886.7 1988.6 882.62C1993.64 878.54 1996.16 872.42 1996.16 864.26C1996.16 856.82 1993.4 851.18 1987.88 847.34C1982.6 843.5 1974.2 841.58 1962.68 841.58H1938.92V888.74ZM2103.23 1029.5C2099.87 1029.5 2098.19 1027.82 2098.19 1024.46V798.74C2098.19 795.38 2099.87 793.7 2103.23 793.7H2152.55C2155.91 793.7 2157.59 795.38 2157.59 798.74V1024.46C2157.59 1027.82 2155.91 1029.5 2152.55 1029.5H2103.23ZM2205.19 1029.5C2201.83 1029.5 2200.15 1027.82 2200.15 1024.46V798.74C2200.15 795.38 2201.83 793.7 2205.19 793.7H2288.35C2322.19 793.7 2346.55 800.3 2361.43 813.5C2376.31 826.7 2383.75 845.54 2383.75 870.02C2383.75 885.86 2380.39 899.42 2373.67 910.7C2366.95 921.98 2356.15 929.9 2341.27 934.46V935.18L2396.71 1023.38C2397.91 1025.06 2398.15 1026.5 2397.43 1027.7C2396.71 1028.9 2395.39 1029.5 2393.47 1029.5H2338.03C2335.39 1029.5 2333.35 1028.42 2331.91 1026.26L2282.95 943.46H2259.55V1024.46C2259.55 1027.82 2257.87 1029.5 2254.51 1029.5H2205.19ZM2259.55 897.02H2288.35C2300.35 897.02 2309.35 894.98 2315.35 890.9C2321.35 886.58 2324.35 879.74 2324.35 870.38C2324.35 861.26 2321.59 854.66 2316.07 850.58C2310.79 846.26 2302.03 844.1 2289.79 844.1H2259.55V897.02ZM2516.39 1033.82C2483.51 1033.82 2458.67 1026.26 2441.87 1011.14C2425.07 996.02 2416.67 972.5 2416.67 940.58V798.74C2416.67 795.38 2418.35 793.7 2421.71 793.7H2471.39C2472.59 793.7 2473.67 794.18 2474.63 795.14C2475.59 795.86 2476.07 797.06 2476.07 798.74V937.7C2476.07 951.86 2479.07 962.9 2485.07 970.82C2491.31 978.74 2501.75 982.7 2516.39 982.7C2530.79 982.7 2540.99 978.74 2546.99 970.82C2553.23 962.9 2556.35 951.86 2556.35 937.7V798.74C2556.35 795.38 2558.03 793.7 2561.39 793.7H2610.71C2614.07 793.7 2615.75 795.38 2615.75 798.74V940.58C2615.75 972.26 2607.35 995.78 2590.55 1011.14C2573.75 1026.26 2549.03 1033.82 2516.39 1033.82ZM2661.52 1029.5C2658.16 1029.5 2656.48 1027.82 2656.48 1024.46V798.74C2656.48 795.38 2658.16 793.7 2661.52 793.7H2724.52C2727.16 793.7 2729.08 794.9 2730.28 797.3L2775.64 887.66C2779 894.38 2782.48 901.58 2786.08 909.26C2789.68 916.94 2792.92 924.5 2795.8 931.94C2798.92 939.38 2801.44 945.98 2803.36 951.74H2804.44C2803.96 947.18 2803.48 942.02 2803 936.26C2802.76 930.5 2802.4 924.62 2801.92 918.62C2801.68 912.62 2801.44 906.74 2801.2 900.98C2801.2 895.22 2801.2 890.06 2801.2 885.5V798.74C2801.2 795.38 2802.76 793.7 2805.88 793.7H2853.4C2856.76 793.7 2858.44 795.38 2858.44 798.74V1024.46C2858.44 1027.82 2856.76 1029.5 2853.4 1029.5H2790.4C2788 1029.5 2786.08 1028.3 2784.64 1025.9L2741.44 939.86C2738.08 933.38 2734.72 926.18 2731.36 918.26C2728.24 910.34 2725.12 902.54 2722 894.86C2718.88 886.94 2716 879.98 2713.36 873.98H2712.28C2712.52 879.02 2712.76 884.42 2713 890.18C2713.24 895.94 2713.36 901.94 2713.36 908.18C2713.6 914.18 2713.72 920.06 2713.72 925.82C2713.72 931.58 2713.72 937.1 2713.72 942.38V1024.46C2713.72 1027.82 2712.04 1029.5 2708.68 1029.5H2661.52ZM2905.85 1029.5C2902.49 1029.5 2900.81 1027.82 2900.81 1024.46V798.74C2900.81 795.38 2902.49 793.7 2905.85 793.7H2955.17C2958.53 793.7 2960.21 795.38 2960.21 798.74V1024.46C2960.21 1027.82 2958.53 1029.5 2955.17 1029.5H2905.85Z" fill="#FE4646"/>
<rect x="2540" y="1185.5" width="442" height="187" rx="93.5" fill="#FE4646"/>
<path d="M2657.95 1308.65C2649.25 1308.65 2642.4 1306.57 2637.41 1302.41C2632.48 1298.25 2630.02 1291.72 2630.02 1282.83V1269.58C2630.02 1260.49 2632.48 1253.87 2637.41 1249.71C2642.4 1245.55 2649.25 1243.47 2657.95 1243.47C2664.48 1243.47 2669.92 1244.46 2674.27 1246.44C2678.63 1248.43 2681.79 1251.21 2683.78 1254.8C2685.83 1258.38 2686.53 1262.57 2685.89 1267.37C2685.83 1267.76 2685.67 1268.08 2685.41 1268.33C2685.22 1268.59 2684.9 1268.72 2684.45 1268.72H2669.38C2668.48 1268.72 2668.03 1268.2 2668.03 1267.18C2668.03 1264.75 2667.3 1262.76 2665.83 1261.23C2664.35 1259.63 2661.83 1258.83 2658.24 1258.83C2655.04 1258.83 2652.51 1259.72 2650.66 1261.52C2648.8 1263.24 2647.87 1266.16 2647.87 1270.25V1281.87C2647.87 1285.96 2648.8 1288.91 2650.66 1290.7C2652.51 1292.43 2655.04 1293.29 2658.24 1293.29C2662.08 1293.29 2664.67 1292.46 2666.02 1290.8C2667.36 1289.07 2668.03 1287.12 2668.03 1284.94C2668.03 1283.92 2668.48 1283.4 2669.38 1283.4H2684.45C2685.28 1283.4 2685.76 1283.85 2685.89 1284.75C2686.4 1289.61 2685.63 1293.84 2683.59 1297.42C2681.54 1301 2678.34 1303.79 2673.99 1305.77C2669.7 1307.69 2664.35 1308.65 2657.95 1308.65ZM2731.12 1308.65C2721.91 1308.65 2714.9 1306.51 2710.1 1302.22C2705.3 1297.87 2702.9 1291.44 2702.9 1282.92V1269.2C2702.9 1260.62 2705.3 1254.19 2710.1 1249.9C2714.9 1245.61 2721.91 1243.47 2731.12 1243.47C2740.34 1243.47 2747.35 1245.61 2752.15 1249.9C2756.95 1254.19 2759.35 1260.62 2759.35 1269.2V1282.92C2759.35 1291.44 2756.95 1297.87 2752.15 1302.22C2747.35 1306.51 2740.34 1308.65 2731.12 1308.65ZM2731.12 1293.1C2734.71 1293.1 2737.33 1292.11 2739 1290.12C2740.66 1288.14 2741.49 1285.29 2741.49 1281.58V1270.54C2741.49 1266.83 2740.66 1263.98 2739 1262C2737.33 1260.01 2734.71 1259.02 2731.12 1259.02C2727.6 1259.02 2724.98 1260.01 2723.25 1262C2721.59 1263.98 2720.76 1266.83 2720.76 1270.54V1281.58C2720.76 1285.29 2721.59 1288.14 2723.25 1290.12C2724.98 1292.11 2727.6 1293.1 2731.12 1293.1ZM2779.22 1307.5C2778.26 1307.5 2777.78 1307.02 2777.78 1306.06V1246.06C2777.78 1245.1 2778.26 1244.62 2779.22 1244.62H2802.35C2811.76 1244.62 2818.48 1246.48 2822.51 1250.19C2826.55 1253.84 2828.56 1259.05 2828.56 1265.84C2828.56 1269.93 2827.73 1273.48 2826.07 1276.49C2824.4 1279.5 2821.59 1281.61 2817.62 1282.83V1283.02L2832.11 1305.77C2832.43 1306.22 2832.5 1306.64 2832.31 1307.02C2832.11 1307.34 2831.73 1307.5 2831.15 1307.5H2814.45C2813.68 1307.5 2813.11 1307.18 2812.72 1306.54L2800.34 1285.61H2795.63V1306.06C2795.63 1307.02 2795.15 1307.5 2794.19 1307.5H2779.22ZM2795.63 1271.6H2802.64C2805.27 1271.6 2807.25 1271.15 2808.59 1270.25C2810 1269.29 2810.71 1267.79 2810.71 1265.74C2810.71 1263.69 2810.1 1262.19 2808.88 1261.23C2807.67 1260.27 2805.68 1259.79 2802.93 1259.79H2795.63V1271.6ZM2849.19 1307.5C2848.23 1307.5 2847.75 1307.02 2847.75 1306.06V1246.06C2847.75 1245.1 2848.23 1244.62 2849.19 1244.62H2890.66C2891.56 1244.62 2892.01 1245.1 2892.01 1246.06V1258.64C2892.01 1259.53 2891.56 1259.98 2890.66 1259.98H2865.61V1268.72H2888.36C2889.26 1268.72 2889.7 1269.2 2889.7 1270.16V1281.77C2889.7 1282.73 2889.26 1283.21 2888.36 1283.21H2865.61V1292.14H2890.66C2891.56 1292.14 2892.01 1292.59 2892.01 1293.48V1306.06C2892.01 1307.02 2891.56 1307.5 2890.66 1307.5H2849.19Z" fill="#E9EAEE"/>
</svg>
