<svg width="3622" height="1842" viewBox="0 0 3622 1842" fill="none" xmlns="http://www.w3.org/2000/svg">
<rect width="3622" height="1840.92" transform="translate(0 0.922852)" fill="#161720"/>
<path d="M847 919.826C847 979.202 800.662 1027.34 743.5 1027.34C686.339 1027.34 640 979.202 640 919.826C640 860.45 686.339 812.316 743.5 812.316C800.662 812.316 847 860.45 847 919.826ZM677.26 919.826C677.26 957.827 706.917 988.633 743.5 988.633C780.084 988.633 809.74 957.827 809.74 919.826C809.74 881.825 780.084 851.02 743.5 851.02C706.917 851.02 677.26 881.825 677.26 919.826Z" fill="#FE6B6B"/>
<path d="M845.428 1113C842.113 1132.53 833.665 1150.72 821.017 1165.57C808.369 1180.42 792.014 1191.35 773.761 1197.15C755.507 1202.94 736.066 1203.39 717.586 1198.42C699.106 1193.46 682.308 1183.28 669.048 1169.02C655.789 1154.76 646.585 1136.96 642.453 1117.6C638.322 1098.25 639.424 1078.08 645.639 1059.33C651.853 1040.59 662.937 1023.99 677.666 1011.38C692.395 998.766 710.194 990.631 729.096 987.871L734.281 1026.2C722.184 1027.96 710.793 1033.17 701.366 1041.24C691.94 1049.31 684.846 1059.94 680.869 1071.93C676.892 1083.93 676.186 1096.84 678.83 1109.23C681.474 1121.62 687.365 1133 695.851 1142.13C704.337 1151.26 715.088 1157.77 726.915 1160.95C738.742 1164.13 751.184 1163.85 762.867 1160.14C774.549 1156.43 785.016 1149.43 793.111 1139.93C801.206 1130.42 806.613 1118.78 808.734 1106.28L845.428 1113Z" fill="#FE6B6B"/>
<path d="M1015 1094.34C1015 1153.71 968.662 1201.85 911.5 1201.85C854.339 1201.85 808 1153.71 808 1094.34C808 1034.96 854.339 986.825 911.5 986.825C968.662 986.825 1015 1034.96 1015 1094.34ZM845.26 1094.34C845.26 1132.34 874.917 1163.14 911.5 1163.14C948.084 1163.14 977.74 1132.34 977.74 1094.34C977.74 1056.33 948.084 1025.53 911.5 1025.53C874.917 1025.53 845.26 1056.33 845.26 1094.34Z" fill="#FE6B6B"/>
<path d="M1085.52 987.234C1104.54 988.962 1122.72 996.119 1138.06 1007.91C1153.41 1019.71 1165.31 1035.68 1172.46 1054.06C1179.61 1072.44 1181.73 1092.52 1178.58 1112.08C1175.43 1131.63 1167.14 1149.9 1154.61 1164.87C1142.09 1179.83 1125.83 1190.91 1107.62 1196.87C1089.42 1202.83 1069.98 1203.45 1051.46 1198.65C1032.94 1193.86 1016.06 1183.83 1002.68 1169.69C989.301 1155.55 979.947 1137.84 975.653 1118.52L1011.96 1109.81C1014.71 1122.18 1020.69 1133.51 1029.26 1142.56C1037.82 1151.61 1048.62 1158.03 1060.48 1161.1C1072.33 1164.17 1084.77 1163.77 1096.42 1159.96C1108.07 1156.14 1118.48 1149.05 1126.49 1139.48C1134.51 1129.9 1139.82 1118.21 1141.83 1105.69C1143.85 1093.18 1142.49 1080.33 1137.92 1068.56C1133.34 1056.79 1125.72 1046.57 1115.9 1039.02C1106.08 1031.48 1094.44 1026.9 1082.27 1025.79L1085.52 987.234Z" fill="#FE6B6B"/>
<path d="M1180 919.826C1180 979.202 1133.66 1027.34 1076.5 1027.34C1019.34 1027.34 973 979.202 973 919.826C973 860.45 1019.34 812.316 1076.5 812.316C1133.66 812.316 1180 860.45 1180 919.826ZM1010.26 919.826C1010.26 957.827 1039.92 988.633 1076.5 988.633C1113.08 988.633 1142.74 957.827 1142.74 919.826C1142.74 881.825 1113.08 851.02 1076.5 851.02C1039.92 851.02 1010.26 881.825 1010.26 919.826Z" fill="#FE6B6B"/>
<path d="M976.527 720.607C981.253 702.286 990.561 685.59 1003.51 672.213C1016.45 658.836 1032.57 649.255 1050.24 644.442C1067.9 639.629 1086.47 639.755 1104.07 644.808C1121.67 649.861 1137.67 659.66 1150.45 673.212C1163.22 686.764 1172.32 703.585 1176.82 721.969C1181.31 740.353 1181.04 759.645 1176.04 777.886C1171.04 796.128 1161.48 812.671 1148.33 825.834C1135.19 838.998 1118.92 848.315 1101.19 852.84L1092.3 815.253C1103.65 812.358 1114.06 806.395 1122.47 797.97C1130.89 789.545 1137 778.958 1140.21 767.283C1143.41 755.608 1143.58 743.262 1140.7 731.496C1137.83 719.73 1132 708.965 1123.83 700.292C1115.65 691.619 1105.41 685.347 1094.15 682.113C1082.88 678.879 1071 678.798 1059.69 681.879C1048.39 684.959 1038.07 691.091 1029.78 699.652C1021.5 708.213 1015.54 718.899 1012.52 730.625L976.527 720.607Z" fill="#FE6B6B"/>
<path d="M1015 748.433C1015 807.809 968.662 855.943 911.5 855.943C854.339 855.943 808 807.809 808 748.433C808 689.057 854.339 640.923 911.5 640.923C968.662 640.923 1015 689.057 1015 748.433ZM845.26 748.433C845.26 786.434 874.917 817.24 911.5 817.24C948.084 817.24 977.74 786.434 977.74 748.433C977.74 710.432 948.084 679.627 911.5 679.627C874.917 679.627 845.26 710.432 845.26 748.433Z" fill="#FE6B6B"/>
<path d="M721.981 853.594C703.311 849.471 686.101 840.066 672.255 826.418C658.41 812.77 648.467 795.41 643.527 776.259C638.586 757.107 638.841 736.909 644.262 717.898C649.683 698.888 660.06 681.804 674.245 668.537C688.43 655.27 705.871 646.336 724.639 642.723C743.407 639.11 762.771 640.958 780.591 648.064C798.411 655.169 813.992 667.255 825.612 682.985C837.232 698.715 844.438 717.476 846.433 737.195L809.377 741.241C808.1 728.621 803.489 716.613 796.052 706.546C788.615 696.479 778.643 688.744 767.238 684.197C755.834 679.649 743.44 678.466 731.429 680.779C719.417 683.091 708.255 688.809 699.177 697.3C690.098 705.791 683.457 716.724 679.988 728.891C676.518 741.058 676.355 753.984 679.517 766.241C682.679 778.499 689.042 789.609 697.903 798.343C706.765 807.078 717.779 813.098 729.728 815.736L721.981 853.594Z" fill="#FE6B6B"/>
<path d="M1351.91 822.384C1350.43 822.384 1349.53 821.646 1349.2 820.17L1304.67 664.206C1304.18 662.238 1305 661.254 1307.13 661.254H1326.81C1328.45 661.254 1329.44 661.992 1329.77 663.468L1356.09 758.916C1357.24 762.852 1358.3 766.952 1359.29 771.216C1360.27 775.48 1361.25 779.744 1362.24 784.008C1363.22 788.108 1364.21 792.126 1365.19 796.062H1365.44C1367.08 790.322 1368.72 784.664 1370.36 779.088C1372.16 773.348 1373.96 767.69 1375.77 762.114L1395.45 697.416L1386.59 666.912C1386.26 666.092 1386.35 665.436 1386.84 664.944C1387.33 664.288 1387.99 663.96 1388.81 663.96H1408.73C1410.37 663.96 1411.36 664.78 1411.68 666.42L1438.01 763.59C1439.65 769.002 1441.12 774.414 1442.43 779.826C1443.75 785.238 1445.14 790.65 1446.62 796.062H1446.86C1447.68 792.29 1448.58 788.272 1449.57 784.008C1450.55 779.744 1451.54 775.48 1452.52 771.216C1453.5 766.952 1454.49 762.852 1455.47 758.916L1480.81 663.468C1481.14 661.992 1482.12 661.254 1483.76 661.254H1504.18C1506.31 661.254 1507.05 662.238 1506.39 664.206L1463.59 820.17C1463.26 821.646 1462.28 822.384 1460.64 822.384H1434.56C1432.92 822.384 1431.94 821.646 1431.61 820.17L1415.87 765.558C1414.23 759.982 1412.67 754.488 1411.19 749.076C1409.72 743.5 1408.24 737.924 1406.76 732.348H1406.27C1404.8 737.76 1403.24 743.172 1401.6 748.584C1400.12 753.996 1398.48 759.49 1396.68 765.066L1380.2 820.17C1379.87 820.99 1379.46 821.564 1378.97 821.892C1378.64 822.22 1378.06 822.384 1377.24 822.384H1351.91ZM1588.46 825.336C1567.47 825.336 1551.73 820.252 1541.23 810.084C1530.9 799.752 1525.73 785.156 1525.73 766.296V717.342C1525.73 698.318 1530.9 683.722 1541.23 673.554C1551.73 663.386 1567.47 658.302 1588.46 658.302C1609.45 658.302 1625.12 663.386 1635.45 673.554C1645.94 683.722 1651.19 698.318 1651.19 717.342V766.296C1651.19 785.156 1645.94 799.752 1635.45 810.084C1625.12 820.252 1609.45 825.336 1588.46 825.336ZM1588.46 803.442C1600.93 803.442 1610.36 800.244 1616.75 793.848C1623.15 787.288 1626.35 777.858 1626.35 765.558V718.08C1626.35 705.616 1623.15 696.186 1616.75 689.79C1610.36 683.394 1600.93 680.196 1588.46 680.196C1576.16 680.196 1566.73 683.394 1560.17 689.79C1553.78 696.186 1550.58 705.616 1550.58 718.08V765.558C1550.58 777.858 1553.78 787.288 1560.17 793.848C1566.73 800.244 1576.16 803.442 1588.46 803.442ZM1690.43 822.384C1688.62 822.384 1687.72 821.482 1687.72 819.678V663.96C1687.72 662.156 1688.62 661.254 1690.43 661.254H1721.67C1723.31 661.254 1724.37 661.91 1724.87 663.222L1768.16 750.552C1771.11 756.456 1773.74 761.868 1776.03 766.788C1778.49 771.708 1780.63 776.382 1782.43 780.81C1784.4 785.238 1786.2 789.502 1787.84 793.602H1788.33C1788.33 790.322 1788.25 786.796 1788.09 783.024C1788.09 779.252 1788.01 775.48 1787.84 771.708C1787.84 767.772 1787.84 764 1787.84 760.392C1787.84 756.62 1787.84 753.012 1787.84 749.568V663.96C1787.84 662.156 1788.66 661.254 1790.3 661.254H1809.49C1811.29 661.254 1812.2 662.156 1812.2 663.96V819.678C1812.2 821.482 1811.29 822.384 1809.49 822.384H1778.49C1777.02 822.384 1776.03 821.728 1775.54 820.416L1733.23 735.546C1730.61 730.298 1728.06 725.132 1725.6 720.048C1723.31 714.964 1721.01 709.962 1718.72 705.042C1716.42 699.958 1714.21 695.038 1712.07 690.282H1711.58C1711.58 694.382 1711.58 698.4 1711.58 702.336C1711.75 706.108 1711.83 709.962 1711.83 713.898C1711.99 717.67 1712.07 721.524 1712.07 725.46C1712.07 729.396 1712.07 733.414 1712.07 737.514V819.678C1712.07 821.482 1711.17 822.384 1709.37 822.384H1690.43ZM1854.03 822.384C1852.22 822.384 1851.32 821.482 1851.32 819.678V663.96C1851.32 662.156 1852.22 661.254 1854.03 661.254H1873.46C1875.26 661.254 1876.17 662.156 1876.17 663.96V819.678C1876.17 821.482 1875.26 822.384 1873.46 822.384H1854.03ZM1902.92 822.384C1901.11 822.384 1900.21 821.564 1900.21 819.924V819.186C1900.21 818.202 1900.62 817.054 1901.44 815.742L1971.3 707.502C1973.93 703.402 1976.47 699.384 1978.93 695.448C1981.55 691.512 1984.26 687.494 1987.05 683.394V683.148C1982.46 683.312 1977.78 683.394 1973.03 683.394C1968.43 683.394 1963.76 683.394 1959 683.394H1910.79C1908.98 683.394 1908.08 682.492 1908.08 680.688V663.96C1908.08 662.156 1908.98 661.254 1910.79 661.254H2023.21C2025.01 661.254 2025.92 662.074 2025.92 663.714V664.452C2025.92 665.108 2025.83 665.764 2025.67 666.42C2025.51 666.912 2025.26 667.404 2024.93 667.896L1955.81 773.676C1952.85 778.268 1949.98 782.778 1947.2 787.206C1944.41 791.47 1941.46 795.816 1938.34 800.244V800.49C1943.59 800.326 1948.84 800.244 1954.08 800.244C1959.33 800.244 1964.58 800.244 1969.83 800.244H2017.55C2019.36 800.244 2020.26 801.146 2020.26 802.95V819.678C2020.26 821.482 2019.36 822.384 2017.55 822.384H1902.92ZM2053.42 822.384C2051.62 822.384 2050.71 821.482 2050.71 819.678V663.96C2050.71 662.156 2051.62 661.254 2053.42 661.254H2143.95C2145.59 661.254 2146.41 662.156 2146.41 663.96V680.688C2146.41 682.492 2145.59 683.394 2143.95 683.394H2075.56V730.134H2138.04C2139.68 730.134 2140.5 730.954 2140.5 732.594V748.584C2140.5 750.388 2139.68 751.29 2138.04 751.29H2075.56V800.244H2143.95C2145.59 800.244 2146.41 801.146 2146.41 802.95V819.678C2146.41 821.482 2145.59 822.384 2143.95 822.384H2053.42ZM2289.13 825.336C2276.99 825.336 2266.58 823.04 2257.89 818.448C2249.19 813.856 2242.47 807.132 2237.71 798.276C2232.96 789.42 2230.58 778.76 2230.58 766.296V717.342C2230.58 698.646 2236.16 684.132 2247.31 673.8C2258.62 663.468 2274.12 658.302 2293.8 658.302C2307.41 658.302 2319.06 660.516 2328.73 664.944C2338.41 669.372 2345.54 675.604 2350.14 683.64C2354.89 691.676 2356.45 701.024 2354.81 711.684C2354.65 713.488 2353.74 714.39 2352.1 714.39L2332.42 714.144C2330.62 714.144 2329.8 713.242 2329.96 711.438C2330.46 704.714 2329.39 699.056 2326.77 694.464C2324.14 689.708 2320.12 686.1 2314.71 683.64C2309.46 681.18 2302.66 679.95 2294.29 679.95C2281.5 679.95 2271.83 683.066 2265.27 689.298C2258.71 695.53 2255.43 704.96 2255.43 717.588V766.05C2255.43 778.678 2258.54 788.108 2264.77 794.34C2271.17 800.572 2280.68 803.688 2293.31 803.688C2305.94 803.688 2315.53 800.654 2322.09 794.586C2328.82 788.354 2332.18 779.498 2332.18 768.018V759.162H2296.02C2294.21 759.162 2293.31 758.342 2293.31 756.702V741.942C2293.31 740.138 2294.21 739.236 2296.02 739.236H2352.84C2353.66 739.236 2354.32 739.482 2354.81 739.974C2355.3 740.466 2355.55 741.122 2355.55 741.942V788.928C2355.55 794.176 2355.63 799.424 2355.79 804.672C2356.12 809.756 2356.61 814.676 2357.27 819.432C2357.6 820.416 2357.52 821.154 2357.02 821.646C2356.53 822.138 2355.88 822.384 2355.06 822.384H2339.07C2338.41 822.384 2337.84 822.22 2337.34 821.892C2336.85 821.564 2336.52 820.99 2336.36 820.17C2335.87 818.038 2335.46 815.66 2335.13 813.036C2334.97 810.412 2334.8 807.624 2334.64 804.672H2334.39C2331.44 809.264 2327.67 813.118 2323.08 816.234C2318.65 819.186 2313.56 821.4 2307.82 822.876C2302.08 824.516 2295.85 825.336 2289.13 825.336ZM2397.68 822.384C2395.87 822.384 2394.97 821.482 2394.97 819.678V663.96C2394.97 662.156 2395.87 661.254 2397.68 661.254H2446.88C2467.21 661.254 2482.14 665.108 2491.65 672.816C2501.16 680.524 2505.92 691.922 2505.92 707.01C2505.92 718.654 2503.21 728.412 2497.8 736.284C2492.39 743.992 2484.51 749.322 2474.18 752.274V752.52L2514.77 819.186C2515.26 820.006 2515.35 820.744 2515.02 821.4C2514.69 822.056 2513.95 822.384 2512.8 822.384H2490.17C2488.7 822.384 2487.63 821.81 2486.97 820.662L2448.11 755.718H2419.82V819.678C2419.82 821.482 2418.91 822.384 2417.11 822.384H2397.68ZM2419.82 736.038H2445.15C2457.78 736.038 2466.88 733.824 2472.46 729.396C2478.2 724.968 2481.07 717.916 2481.07 708.24C2481.07 698.892 2478.45 692.25 2473.2 688.314C2467.95 684.378 2459.09 682.41 2446.63 682.41H2419.82V736.038ZM2602.01 825.336C2581.02 825.336 2565.28 820.252 2554.78 810.084C2544.45 799.752 2539.28 785.156 2539.28 766.296V717.342C2539.28 698.318 2544.45 683.722 2554.78 673.554C2565.28 663.386 2581.02 658.302 2602.01 658.302C2623 658.302 2638.67 663.386 2649 673.554C2659.49 683.722 2664.74 698.318 2664.74 717.342V766.296C2664.74 785.156 2659.49 799.752 2649 810.084C2638.67 820.252 2623 825.336 2602.01 825.336ZM2602.01 803.442C2614.48 803.442 2623.91 800.244 2630.3 793.848C2636.7 787.288 2639.9 777.858 2639.9 765.558V718.08C2639.9 705.616 2636.7 696.186 2630.3 689.79C2623.91 683.394 2614.48 680.196 2602.01 680.196C2589.71 680.196 2580.28 683.394 2573.72 689.79C2567.33 696.186 2564.13 705.616 2564.13 718.08V765.558C2564.13 777.858 2567.33 787.288 2573.72 793.848C2580.28 800.244 2589.71 803.442 2602.01 803.442ZM2761.29 825.336C2741.61 825.336 2726.44 820.334 2715.78 810.33C2705.29 800.162 2700.04 785.402 2700.04 766.05V663.96C2700.04 662.156 2700.94 661.254 2702.74 661.254H2722.18C2723 661.254 2723.65 661.5 2724.15 661.992C2724.64 662.32 2724.88 662.976 2724.88 663.96V766.05C2724.88 778.022 2727.92 787.288 2733.99 793.848C2740.22 800.408 2749.32 803.688 2761.29 803.688C2773.26 803.688 2782.28 800.408 2788.35 793.848C2794.58 787.288 2797.7 778.022 2797.7 766.05V663.96C2797.7 662.156 2798.52 661.254 2800.16 661.254H2819.84C2821.64 661.254 2822.55 662.156 2822.55 663.96V766.296C2822.55 784.992 2817.13 799.506 2806.31 809.838C2795.49 820.17 2780.48 825.336 2761.29 825.336ZM2863.25 822.384C2861.45 822.384 2860.54 821.482 2860.54 819.678V663.96C2860.54 662.156 2861.45 661.254 2863.25 661.254H2906.3C2926.8 661.254 2942.05 665.6 2952.06 674.292C2962.22 682.984 2967.31 695.694 2967.31 712.422C2967.31 729.15 2962.14 741.86 2951.81 750.552C2941.64 759.244 2926.47 763.59 2906.3 763.59H2885.39V819.678C2885.39 821.482 2884.49 822.384 2882.68 822.384H2863.25ZM2885.39 742.68H2905.81C2918.44 742.68 2927.7 740.302 2933.61 735.546C2939.51 730.79 2942.46 723.328 2942.46 713.16C2942.46 702.336 2939.43 694.546 2933.36 689.79C2927.46 684.87 2918.19 682.41 2905.56 682.41H2885.39V742.68Z" fill="#A5A6A9"/>
<path d="M1302.88 1188.38C1299.04 1188.38 1297.72 1186.46 1298.92 1182.62L1373.8 956.544C1374.76 953.904 1376.68 952.584 1379.56 952.584H1443.64C1446.52 952.584 1448.44 953.904 1449.4 956.544L1524.64 1182.62C1525.12 1184.3 1525 1185.74 1524.28 1186.94C1523.8 1187.9 1522.6 1188.38 1520.68 1188.38H1466.68C1463.56 1188.38 1461.64 1187.06 1460.92 1184.42L1424.56 1054.1C1422.16 1045.46 1419.88 1036.82 1417.72 1028.18C1415.56 1019.54 1413.52 1011.02 1411.6 1002.62H1410.88C1408.96 1011.26 1406.92 1019.9 1404.76 1028.54C1402.6 1037.18 1400.32 1045.82 1397.92 1054.46L1362.28 1184.06C1361.56 1186.94 1359.64 1188.38 1356.52 1188.38H1302.88ZM1364.08 1146.26L1373.44 1099.82H1447.96L1457.68 1146.26H1364.08ZM1549.87 1188.38C1546.51 1188.38 1544.83 1186.7 1544.83 1183.34V957.624C1544.83 954.264 1546.51 952.584 1549.87 952.584H1600.27C1602.91 952.584 1604.23 954.264 1604.23 957.624V1136.9H1693.51C1696.63 1136.9 1698.19 1138.58 1698.19 1141.94V1183.34C1698.19 1186.7 1696.63 1188.38 1693.51 1188.38H1549.87ZM1706.91 1114.58C1703.55 1114.58 1701.87 1112.9 1701.87 1109.54V1075.34C1701.87 1071.98 1703.55 1070.3 1706.91 1070.3H1836.15C1839.51 1070.3 1841.19 1071.98 1841.19 1075.34V1109.54C1841.19 1112.9 1839.51 1114.58 1836.15 1114.58H1706.91ZM1884.56 1188.38C1881.2 1188.38 1879.52 1186.7 1879.52 1183.34V957.624C1879.52 954.264 1881.2 952.584 1884.56 952.584H1965.2C1995.2 952.584 2017.76 957.384 2032.88 966.984C2048 976.344 2055.56 990.744 2055.56 1010.18C2055.56 1024.58 2052.44 1035.98 2046.2 1044.38C2040.2 1052.78 2030.84 1059.14 2018.12 1063.46V1064.54C2033 1067.42 2044.64 1073.18 2053.04 1081.82C2061.44 1090.22 2065.64 1102.22 2065.64 1117.82C2065.64 1143.02 2057.72 1161.14 2041.88 1172.18C2026.28 1182.98 2000.6 1188.38 1964.84 1188.38H1884.56ZM1938.92 1140.5H1968.08C1981.52 1140.5 1991.24 1138.58 1997.24 1134.74C2003.24 1130.9 2006.24 1124.3 2006.24 1114.94C2006.24 1106.54 2003.12 1100.42 1996.88 1096.58C1990.88 1092.5 1981.16 1090.46 1967.72 1090.46H1938.92V1140.5ZM1938.92 1047.62H1964.84C1975.88 1047.62 1983.8 1045.58 1988.6 1041.5C1993.64 1037.42 1996.16 1031.3 1996.16 1023.14C1996.16 1015.7 1993.4 1010.06 1987.88 1006.22C1982.6 1002.38 1974.2 1000.46 1962.68 1000.46H1938.92V1047.62ZM2103.23 1188.38C2099.87 1188.38 2098.19 1186.7 2098.19 1183.34V957.624C2098.19 954.264 2099.87 952.584 2103.23 952.584H2152.55C2155.91 952.584 2157.59 954.264 2157.59 957.624V1183.34C2157.59 1186.7 2155.91 1188.38 2152.55 1188.38H2103.23ZM2205.19 1188.38C2201.83 1188.38 2200.15 1186.7 2200.15 1183.34V957.624C2200.15 954.264 2201.83 952.584 2205.19 952.584H2288.35C2322.19 952.584 2346.55 959.184 2361.43 972.384C2376.31 985.584 2383.75 1004.42 2383.75 1028.9C2383.75 1044.74 2380.39 1058.3 2373.67 1069.58C2366.95 1080.86 2356.15 1088.78 2341.27 1093.34V1094.06L2396.71 1182.26C2397.91 1183.94 2398.15 1185.38 2397.43 1186.58C2396.71 1187.78 2395.39 1188.38 2393.47 1188.38H2338.03C2335.39 1188.38 2333.35 1187.3 2331.91 1185.14L2282.95 1102.34H2259.55V1183.34C2259.55 1186.7 2257.87 1188.38 2254.51 1188.38H2205.19ZM2259.55 1055.9H2288.35C2300.35 1055.9 2309.35 1053.86 2315.35 1049.78C2321.35 1045.46 2324.35 1038.62 2324.35 1029.26C2324.35 1020.14 2321.59 1013.54 2316.07 1009.46C2310.79 1005.14 2302.03 1002.98 2289.79 1002.98H2259.55V1055.9ZM2516.39 1192.7C2483.51 1192.7 2458.67 1185.14 2441.87 1170.02C2425.07 1154.9 2416.67 1131.38 2416.67 1099.46V957.624C2416.67 954.264 2418.35 952.584 2421.71 952.584H2471.39C2472.59 952.584 2473.67 953.064 2474.63 954.024C2475.59 954.744 2476.07 955.944 2476.07 957.624V1096.58C2476.07 1110.74 2479.07 1121.78 2485.07 1129.7C2491.31 1137.62 2501.75 1141.58 2516.39 1141.58C2530.79 1141.58 2540.99 1137.62 2546.99 1129.7C2553.23 1121.78 2556.35 1110.74 2556.35 1096.58V957.624C2556.35 954.264 2558.03 952.584 2561.39 952.584H2610.71C2614.07 952.584 2615.75 954.264 2615.75 957.624V1099.46C2615.75 1131.14 2607.35 1154.66 2590.55 1170.02C2573.75 1185.14 2549.03 1192.7 2516.39 1192.7ZM2661.52 1188.38C2658.16 1188.38 2656.48 1186.7 2656.48 1183.34V957.624C2656.48 954.264 2658.16 952.584 2661.52 952.584H2724.52C2727.16 952.584 2729.08 953.784 2730.28 956.184L2775.64 1046.54C2779 1053.26 2782.48 1060.46 2786.08 1068.14C2789.68 1075.82 2792.92 1083.38 2795.8 1090.82C2798.92 1098.26 2801.44 1104.86 2803.36 1110.62H2804.44C2803.96 1106.06 2803.48 1100.9 2803 1095.14C2802.76 1089.38 2802.4 1083.5 2801.92 1077.5C2801.68 1071.5 2801.44 1065.62 2801.2 1059.86C2801.2 1054.1 2801.2 1048.94 2801.2 1044.38V957.624C2801.2 954.264 2802.76 952.584 2805.88 952.584H2853.4C2856.76 952.584 2858.44 954.264 2858.44 957.624V1183.34C2858.44 1186.7 2856.76 1188.38 2853.4 1188.38H2790.4C2788 1188.38 2786.08 1187.18 2784.64 1184.78L2741.44 1098.74C2738.08 1092.26 2734.72 1085.06 2731.36 1077.14C2728.24 1069.22 2725.12 1061.42 2722 1053.74C2718.88 1045.82 2716 1038.86 2713.36 1032.86H2712.28C2712.52 1037.9 2712.76 1043.3 2713 1049.06C2713.24 1054.82 2713.36 1060.82 2713.36 1067.06C2713.6 1073.06 2713.72 1078.94 2713.72 1084.7C2713.72 1090.46 2713.72 1095.98 2713.72 1101.26V1183.34C2713.72 1186.7 2712.04 1188.38 2708.68 1188.38H2661.52ZM2905.85 1188.38C2902.49 1188.38 2900.81 1186.7 2900.81 1183.34V957.624C2900.81 954.264 2902.49 952.584 2905.85 952.584H2955.17C2958.53 952.584 2960.21 954.264 2960.21 957.624V1183.34C2960.21 1186.7 2958.53 1188.38 2955.17 1188.38H2905.85Z" fill="#FE6B6B"/>
</svg>
