<svg width="320" height="320" viewBox="0 0 320 320" fill="none" xmlns="http://www.w3.org/2000/svg">
<g style="mix-blend-mode:plus-darker">
<path d="M125.994 255.704C124.267 265.495 119.867 274.617 113.28 282.063C106.692 289.509 98.174 294.988 88.6669 297.895C79.1598 300.801 69.0341 301.022 59.4092 298.533C49.7843 296.044 41.0353 290.942 34.1293 283.79C27.2234 276.639 22.4295 267.717 20.2778 258.011C18.1261 248.305 18.7002 238.193 21.9369 228.794C25.1735 219.394 30.9465 211.072 38.6177 204.748C46.2888 198.425 55.5592 194.346 65.4039 192.962L68.1048 212.18C61.8041 213.065 55.8711 215.676 50.9615 219.723C46.052 223.77 42.3573 229.096 40.2859 235.112C38.2144 241.128 37.8469 247.599 39.224 253.811C40.6012 260.023 43.6692 265.733 48.089 270.309C52.5088 274.886 58.1082 278.152 64.2681 279.745C70.4281 281.338 76.9085 281.197 82.9931 279.336C89.0776 277.476 94.5293 273.969 98.7452 269.204C102.961 264.439 105.777 258.601 106.882 252.335L125.994 255.704Z" fill="#E9EAEE"/>
<path d="M251.042 192.643C260.946 193.509 270.417 197.097 278.408 203.011C286.4 208.924 292.601 216.932 296.325 226.15C300.049 235.368 301.152 245.436 299.511 255.241C297.87 265.046 293.55 274.206 287.027 281.709C280.505 289.212 272.035 294.766 262.554 297.755C253.072 300.745 242.949 301.054 233.303 298.649C223.657 296.244 214.863 291.218 207.895 284.127C200.927 277.037 196.056 268.157 193.819 258.47L212.728 254.105C214.159 260.304 217.277 265.987 221.737 270.525C226.196 275.063 231.824 278.28 237.998 279.819C244.171 281.358 250.65 281.16 256.718 279.247C262.786 277.334 268.207 273.78 272.381 268.978C276.555 264.176 279.32 258.313 280.371 252.038C281.421 245.763 280.715 239.319 278.332 233.42C275.948 227.521 271.98 222.395 266.865 218.611C261.751 214.826 255.689 212.53 249.351 211.975L251.042 192.643Z" fill="#E9EAEE"/>
<path d="M194.274 58.9543C196.736 49.7679 201.584 41.3963 208.326 34.6891C215.069 27.9819 223.466 23.1778 232.665 20.7645C241.864 18.3511 251.538 18.4145 260.704 20.948C269.871 23.4815 278.204 28.3951 284.858 35.19C291.512 41.9849 296.25 50.4193 298.591 59.6371C300.932 68.8548 300.793 78.5278 298.188 87.6744C295.582 96.8209 290.603 105.115 283.756 111.716C276.909 118.316 268.438 122.988 259.202 125.256L254.573 106.41C260.484 104.959 265.906 101.969 270.288 97.7444C274.67 93.5201 277.856 88.2116 279.524 82.3578C281.191 76.5041 281.28 70.3133 279.782 64.414C278.284 58.5146 275.252 53.1166 270.993 48.7679C266.734 44.4191 261.401 41.2744 255.534 39.653C249.668 38.0315 243.477 37.991 237.589 39.5355C231.702 41.08 226.328 44.1547 222.013 48.4473C217.697 52.7399 214.595 58.0977 213.019 63.977L194.274 58.9543Z" fill="#E9EAEE"/>
<path d="M61.6985 125.635C51.9742 123.568 43.011 118.852 35.7996 112.008C28.5883 105.165 23.4099 96.461 20.8368 86.8582C18.2638 77.2554 18.3963 67.1282 21.2199 57.5961C24.0434 48.0639 29.4479 39.4983 36.8359 32.8461C44.2239 26.1939 53.3076 21.7144 63.0826 19.9027C72.8577 18.091 82.9433 19.0177 92.2245 22.5804C101.506 26.1431 109.621 32.2031 115.673 40.0902C121.725 47.9773 125.478 57.3844 126.517 67.2715L107.217 69.3C106.552 62.9723 104.15 56.9517 100.277 51.904C96.4036 46.8562 91.2099 42.9779 85.2699 40.6977C79.33 38.4176 72.8751 37.8245 66.6191 38.984C60.3631 40.1434 54.5496 43.0104 49.8212 47.2678C45.0929 51.5251 41.634 57.0072 39.827 63.1077C38.0199 69.2083 37.9351 75.6897 39.5818 81.8355C41.2286 87.9813 44.5428 93.552 49.158 97.9317C53.7733 102.311 59.5098 105.329 65.7333 106.652L61.6985 125.635Z" fill="#E9EAEE"/>
<path d="M126.812 158.844C126.812 188.615 102.678 212.75 72.9062 212.75C43.1346 212.75 19 188.615 19 158.844C19 129.072 43.1346 104.938 72.9062 104.938C102.678 104.938 126.812 129.072 126.812 158.844ZM38.4062 158.844C38.4062 177.898 53.8524 193.344 72.9062 193.344C91.9601 193.344 107.406 177.898 107.406 158.844C107.406 139.79 91.9601 124.344 72.9062 124.344C53.8524 124.344 38.4062 139.79 38.4062 158.844Z" fill="#E9EAEE"/>
<path d="M214.312 246.344C214.312 276.115 190.178 300.25 160.406 300.25C130.635 300.25 106.5 276.115 106.5 246.344C106.5 216.572 130.635 192.438 160.406 192.438C190.178 192.438 214.312 216.572 214.312 246.344ZM125.906 246.344C125.906 265.398 141.352 280.844 160.406 280.844C179.46 280.844 194.906 265.398 194.906 246.344C194.906 227.29 179.46 211.844 160.406 211.844C141.352 211.844 125.906 227.29 125.906 246.344Z" fill="#E9EAEE"/>
<path d="M300.25 158.844C300.25 188.615 276.115 212.75 246.344 212.75C216.572 212.75 192.438 188.615 192.438 158.844C192.438 129.072 216.572 104.938 246.344 104.938C276.115 104.938 300.25 129.072 300.25 158.844ZM211.844 158.844C211.844 177.898 227.29 193.344 246.344 193.344C265.398 193.344 280.844 177.898 280.844 158.844C280.844 139.79 265.398 124.344 246.344 124.344C227.29 124.344 211.844 139.79 211.844 158.844Z" fill="#E9EAEE"/>
<path d="M214.312 72.9062C214.312 102.678 190.178 126.812 160.406 126.812C130.635 126.812 106.5 102.678 106.5 72.9062C106.5 43.1346 130.635 19 160.406 19C190.178 19 214.312 43.1346 214.312 72.9062ZM125.906 72.9062C125.906 91.9601 141.352 107.406 160.406 107.406C179.46 107.406 194.906 91.9601 194.906 72.9062C194.906 53.8524 179.46 38.4062 160.406 38.4062C141.352 38.4062 125.906 53.8524 125.906 72.9062Z" fill="#E9EAEE"/>
</g>
</svg>
