<svg width="3622" height="1841" viewBox="0 0 3622 1841" fill="none" xmlns="http://www.w3.org/2000/svg">
<rect width="3622" height="1840.92" fill="#E9EAEE"/>
<path d="M847 918.903C847 978.279 800.662 1026.41 743.5 1026.41C686.339 1026.41 640 978.279 640 918.903C640 859.527 686.339 811.393 743.5 811.393C800.662 811.393 847 859.527 847 918.903ZM677.26 918.903C677.26 956.904 706.917 987.71 743.5 987.71C780.084 987.71 809.74 956.904 809.74 918.903C809.74 880.902 780.084 850.097 743.5 850.097C706.917 850.097 677.26 880.902 677.26 918.903Z" fill="#FE4646"/>
<path d="M845.428 1112.08C842.113 1131.61 833.665 1149.8 821.017 1164.65C808.369 1179.5 792.014 1190.43 773.761 1196.22C755.507 1202.02 736.066 1202.46 717.586 1197.5C699.106 1192.53 682.308 1182.36 669.048 1168.1C655.789 1153.83 646.585 1136.04 642.453 1116.68C638.322 1097.32 639.424 1077.16 645.639 1058.41C651.853 1039.66 662.937 1023.07 677.666 1010.45C692.395 997.843 710.194 989.708 729.096 986.949L734.281 1025.28C722.184 1027.04 710.793 1032.25 701.366 1040.32C691.94 1048.39 684.846 1059.01 680.869 1071.01C676.892 1083.01 676.186 1095.92 678.83 1108.3C681.474 1120.69 687.365 1132.08 695.851 1141.21C704.337 1150.34 715.088 1156.85 726.915 1160.03C738.742 1163.2 751.184 1162.92 762.867 1159.21C774.549 1155.5 785.016 1148.51 793.111 1139C801.206 1129.5 806.613 1117.86 808.734 1105.36L845.428 1112.08Z" fill="#FE4646"/>
<path d="M1015 1093.41C1015 1152.79 968.662 1200.92 911.5 1200.92C854.339 1200.92 808 1152.79 808 1093.41C808 1034.04 854.339 985.902 911.5 985.902C968.662 985.902 1015 1034.04 1015 1093.41ZM845.26 1093.41C845.26 1131.41 874.917 1162.22 911.5 1162.22C948.084 1162.22 977.74 1131.41 977.74 1093.41C977.74 1055.41 948.084 1024.61 911.5 1024.61C874.917 1024.61 845.26 1055.41 845.26 1093.41Z" fill="#FE4646"/>
<path d="M1085.52 986.311C1104.54 988.039 1122.72 995.196 1138.06 1006.99C1153.41 1018.78 1165.31 1034.75 1172.46 1053.14C1179.61 1071.52 1181.73 1091.6 1178.58 1111.16C1175.43 1130.71 1167.14 1148.98 1154.61 1163.95C1142.09 1178.91 1125.83 1189.98 1107.62 1195.95C1089.42 1201.91 1069.98 1202.53 1051.46 1197.73C1032.94 1192.93 1016.06 1182.91 1002.68 1168.77C989.301 1154.63 979.947 1136.92 975.653 1117.6L1011.96 1108.89C1014.71 1121.25 1020.69 1132.59 1029.26 1141.64C1037.82 1150.69 1048.62 1157.11 1060.48 1160.18C1072.33 1163.24 1084.77 1162.85 1096.42 1159.03C1108.07 1155.22 1118.48 1148.13 1126.49 1138.55C1134.51 1128.98 1139.82 1117.28 1141.83 1104.77C1143.85 1092.25 1142.49 1079.4 1137.92 1067.64C1133.34 1055.87 1125.72 1045.65 1115.9 1038.1C1106.08 1030.55 1094.44 1025.97 1082.27 1024.87L1085.52 986.311Z" fill="#FE4646"/>
<path d="M1180 918.903C1180 978.279 1133.66 1026.41 1076.5 1026.41C1019.34 1026.41 973 978.279 973 918.903C973 859.527 1019.34 811.393 1076.5 811.393C1133.66 811.393 1180 859.527 1180 918.903ZM1010.26 918.903C1010.26 956.904 1039.92 987.71 1076.5 987.71C1113.08 987.71 1142.74 956.904 1142.74 918.903C1142.74 880.902 1113.08 850.097 1076.5 850.097C1039.92 850.097 1010.26 880.902 1010.26 918.903Z" fill="#FE4646"/>
<path d="M976.527 719.684C981.253 701.363 990.561 684.667 1003.51 671.29C1016.45 657.913 1032.57 648.332 1050.24 643.519C1067.9 638.706 1086.47 638.832 1104.07 643.885C1121.67 648.938 1137.67 658.738 1150.45 672.289C1163.22 685.841 1172.32 702.662 1176.82 721.046C1181.31 739.43 1181.04 758.722 1176.04 776.964C1171.04 795.205 1161.48 811.748 1148.33 824.912C1135.19 838.076 1118.92 847.393 1101.19 851.917L1092.3 814.331C1103.65 811.435 1114.06 805.472 1122.47 797.047C1130.89 788.622 1137 778.035 1140.21 766.36C1143.41 754.686 1143.58 742.339 1140.7 730.573C1137.83 718.808 1132 708.042 1123.83 699.369C1115.65 690.696 1105.41 684.424 1094.15 681.19C1082.88 677.956 1071 677.875 1059.69 680.956C1048.39 684.036 1038.07 690.168 1029.78 698.729C1021.5 707.291 1015.54 717.976 1012.52 729.702L976.527 719.684Z" fill="#FE4646"/>
<path d="M1015 747.51C1015 806.886 968.662 855.02 911.5 855.02C854.339 855.02 808 806.886 808 747.51C808 688.134 854.339 640 911.5 640C968.662 640 1015 688.134 1015 747.51ZM845.26 747.51C845.26 785.511 874.917 816.317 911.5 816.317C948.084 816.317 977.74 785.511 977.74 747.51C977.74 709.509 948.084 678.704 911.5 678.704C874.917 678.704 845.26 709.509 845.26 747.51Z" fill="#FE4646"/>
<path d="M721.981 852.671C703.311 848.549 686.101 839.143 672.255 825.495C658.41 811.847 648.467 794.488 643.527 775.336C638.586 756.184 638.841 735.986 644.262 716.976C649.683 697.965 660.06 680.882 674.245 667.615C688.43 654.348 705.871 645.414 724.639 641.8C743.407 638.187 762.771 640.035 780.591 647.141C798.411 654.246 813.992 666.332 825.612 682.062C837.232 697.792 844.438 716.554 846.433 736.272L809.377 740.318C808.1 727.698 803.489 715.691 796.052 705.623C788.615 695.556 778.643 687.821 767.238 683.274C755.834 678.726 743.44 677.543 731.429 679.856C719.417 682.168 708.255 687.886 699.177 696.377C690.098 704.868 683.457 715.801 679.988 727.968C676.518 740.135 676.355 753.062 679.517 765.319C682.679 777.576 689.042 788.686 697.903 797.421C706.765 806.155 717.779 812.175 729.728 814.813L721.981 852.671Z" fill="#FE4646"/>
<path d="M1351.91 821.461C1350.43 821.461 1349.53 820.723 1349.2 819.247L1304.67 663.283C1304.18 661.315 1305 660.331 1307.13 660.331H1326.81C1328.45 660.331 1329.44 661.069 1329.77 662.545L1356.09 757.993C1357.24 761.929 1358.3 766.029 1359.29 770.293C1360.27 774.557 1361.25 778.821 1362.24 783.085C1363.22 787.185 1364.21 791.203 1365.19 795.139H1365.44C1367.08 789.399 1368.72 783.741 1370.36 778.165C1372.16 772.425 1373.96 766.767 1375.77 761.191L1395.45 696.493L1386.59 665.989C1386.26 665.169 1386.35 664.513 1386.84 664.021C1387.33 663.365 1387.99 663.037 1388.81 663.037H1408.73C1410.37 663.037 1411.36 663.857 1411.68 665.497L1438.01 762.667C1439.65 768.079 1441.12 773.491 1442.43 778.903C1443.75 784.315 1445.14 789.727 1446.62 795.139H1446.86C1447.68 791.367 1448.58 787.349 1449.57 783.085C1450.55 778.821 1451.54 774.557 1452.52 770.293C1453.5 766.029 1454.49 761.929 1455.47 757.993L1480.81 662.545C1481.14 661.069 1482.12 660.331 1483.76 660.331H1504.18C1506.31 660.331 1507.05 661.315 1506.39 663.283L1463.59 819.247C1463.26 820.723 1462.28 821.461 1460.64 821.461H1434.56C1432.92 821.461 1431.94 820.723 1431.61 819.247L1415.87 764.635C1414.23 759.059 1412.67 753.565 1411.19 748.153C1409.72 742.577 1408.24 737.001 1406.76 731.425H1406.27C1404.8 736.837 1403.24 742.249 1401.6 747.661C1400.12 753.073 1398.48 758.567 1396.68 764.143L1380.2 819.247C1379.87 820.067 1379.46 820.641 1378.97 820.969C1378.64 821.297 1378.06 821.461 1377.24 821.461H1351.91ZM1588.46 824.413C1567.47 824.413 1551.73 819.329 1541.23 809.161C1530.9 798.829 1525.73 784.233 1525.73 765.373V716.419C1525.73 697.395 1530.9 682.799 1541.23 672.631C1551.73 662.463 1567.47 657.379 1588.46 657.379C1609.45 657.379 1625.12 662.463 1635.45 672.631C1645.94 682.799 1651.19 697.395 1651.19 716.419V765.373C1651.19 784.233 1645.94 798.829 1635.45 809.161C1625.12 819.329 1609.45 824.413 1588.46 824.413ZM1588.46 802.519C1600.93 802.519 1610.36 799.321 1616.75 792.925C1623.15 786.365 1626.35 776.935 1626.35 764.635V717.157C1626.35 704.693 1623.15 695.263 1616.75 688.867C1610.36 682.471 1600.93 679.273 1588.46 679.273C1576.16 679.273 1566.73 682.471 1560.17 688.867C1553.78 695.263 1550.58 704.693 1550.58 717.157V764.635C1550.58 776.935 1553.78 786.365 1560.17 792.925C1566.73 799.321 1576.16 802.519 1588.46 802.519ZM1690.43 821.461C1688.62 821.461 1687.72 820.559 1687.72 818.755V663.037C1687.72 661.233 1688.62 660.331 1690.43 660.331H1721.67C1723.31 660.331 1724.37 660.987 1724.87 662.299L1768.16 749.629C1771.11 755.533 1773.74 760.945 1776.03 765.865C1778.49 770.785 1780.63 775.459 1782.43 779.887C1784.4 784.315 1786.2 788.579 1787.84 792.679H1788.33C1788.33 789.399 1788.25 785.873 1788.09 782.101C1788.09 778.329 1788.01 774.557 1787.84 770.785C1787.84 766.849 1787.84 763.077 1787.84 759.469C1787.84 755.697 1787.84 752.089 1787.84 748.645V663.037C1787.84 661.233 1788.66 660.331 1790.3 660.331H1809.49C1811.29 660.331 1812.2 661.233 1812.2 663.037V818.755C1812.2 820.559 1811.29 821.461 1809.49 821.461H1778.49C1777.02 821.461 1776.03 820.805 1775.54 819.493L1733.23 734.623C1730.61 729.375 1728.06 724.209 1725.6 719.125C1723.31 714.041 1721.01 709.039 1718.72 704.119C1716.42 699.035 1714.21 694.115 1712.07 689.359H1711.58C1711.58 693.459 1711.58 697.477 1711.58 701.413C1711.75 705.185 1711.83 709.039 1711.83 712.975C1711.99 716.747 1712.07 720.601 1712.07 724.537C1712.07 728.473 1712.07 732.491 1712.07 736.591V818.755C1712.07 820.559 1711.17 821.461 1709.37 821.461H1690.43ZM1854.03 821.461C1852.22 821.461 1851.32 820.559 1851.32 818.755V663.037C1851.32 661.233 1852.22 660.331 1854.03 660.331H1873.46C1875.26 660.331 1876.17 661.233 1876.17 663.037V818.755C1876.17 820.559 1875.26 821.461 1873.46 821.461H1854.03ZM1902.92 821.461C1901.11 821.461 1900.21 820.641 1900.21 819.001V818.263C1900.21 817.279 1900.62 816.131 1901.44 814.819L1971.3 706.579C1973.93 702.479 1976.47 698.461 1978.93 694.525C1981.55 690.589 1984.26 686.571 1987.05 682.471V682.225C1982.46 682.389 1977.78 682.471 1973.03 682.471C1968.43 682.471 1963.76 682.471 1959 682.471H1910.79C1908.98 682.471 1908.08 681.569 1908.08 679.765V663.037C1908.08 661.233 1908.98 660.331 1910.79 660.331H2023.21C2025.01 660.331 2025.92 661.151 2025.92 662.791V663.529C2025.92 664.185 2025.83 664.841 2025.67 665.497C2025.51 665.989 2025.26 666.481 2024.93 666.973L1955.81 772.753C1952.85 777.345 1949.98 781.855 1947.2 786.283C1944.41 790.547 1941.46 794.893 1938.34 799.321V799.567C1943.59 799.403 1948.84 799.321 1954.08 799.321C1959.33 799.321 1964.58 799.321 1969.83 799.321H2017.55C2019.36 799.321 2020.26 800.223 2020.26 802.027V818.755C2020.26 820.559 2019.36 821.461 2017.55 821.461H1902.92ZM2053.42 821.461C2051.62 821.461 2050.71 820.559 2050.71 818.755V663.037C2050.71 661.233 2051.62 660.331 2053.42 660.331H2143.95C2145.59 660.331 2146.41 661.233 2146.41 663.037V679.765C2146.41 681.569 2145.59 682.471 2143.95 682.471H2075.56V729.211H2138.04C2139.68 729.211 2140.5 730.031 2140.5 731.671V747.661C2140.5 749.465 2139.68 750.367 2138.04 750.367H2075.56V799.321H2143.95C2145.59 799.321 2146.41 800.223 2146.41 802.027V818.755C2146.41 820.559 2145.59 821.461 2143.95 821.461H2053.42ZM2289.13 824.413C2276.99 824.413 2266.58 822.117 2257.89 817.525C2249.19 812.933 2242.47 806.209 2237.71 797.353C2232.96 788.497 2230.58 777.837 2230.58 765.373V716.419C2230.58 697.723 2236.16 683.209 2247.31 672.877C2258.62 662.545 2274.12 657.379 2293.8 657.379C2307.41 657.379 2319.06 659.593 2328.73 664.021C2338.41 668.449 2345.54 674.681 2350.14 682.717C2354.89 690.753 2356.45 700.101 2354.81 710.761C2354.65 712.565 2353.74 713.467 2352.1 713.467L2332.42 713.221C2330.62 713.221 2329.8 712.319 2329.96 710.515C2330.46 703.791 2329.39 698.133 2326.77 693.541C2324.14 688.785 2320.12 685.177 2314.71 682.717C2309.46 680.257 2302.66 679.027 2294.29 679.027C2281.5 679.027 2271.83 682.143 2265.27 688.375C2258.71 694.607 2255.43 704.037 2255.43 716.665V765.127C2255.43 777.755 2258.54 787.185 2264.77 793.417C2271.17 799.649 2280.68 802.765 2293.31 802.765C2305.94 802.765 2315.53 799.731 2322.09 793.663C2328.82 787.431 2332.18 778.575 2332.18 767.095V758.239H2296.02C2294.21 758.239 2293.31 757.419 2293.31 755.779V741.019C2293.31 739.215 2294.21 738.313 2296.02 738.313H2352.84C2353.66 738.313 2354.32 738.559 2354.81 739.051C2355.3 739.543 2355.55 740.199 2355.55 741.019V788.005C2355.55 793.253 2355.63 798.501 2355.79 803.749C2356.12 808.833 2356.61 813.753 2357.27 818.509C2357.6 819.493 2357.52 820.231 2357.02 820.723C2356.53 821.215 2355.88 821.461 2355.06 821.461H2339.07C2338.41 821.461 2337.84 821.297 2337.34 820.969C2336.85 820.641 2336.52 820.067 2336.36 819.247C2335.87 817.115 2335.46 814.737 2335.13 812.113C2334.97 809.489 2334.8 806.701 2334.64 803.749H2334.39C2331.44 808.341 2327.67 812.195 2323.08 815.311C2318.65 818.263 2313.56 820.477 2307.82 821.953C2302.08 823.593 2295.85 824.413 2289.13 824.413ZM2397.68 821.461C2395.87 821.461 2394.97 820.559 2394.97 818.755V663.037C2394.97 661.233 2395.87 660.331 2397.68 660.331H2446.88C2467.21 660.331 2482.14 664.185 2491.65 671.893C2501.16 679.601 2505.92 690.999 2505.92 706.087C2505.92 717.731 2503.21 727.489 2497.8 735.361C2492.39 743.069 2484.51 748.399 2474.18 751.351V751.597L2514.77 818.263C2515.26 819.083 2515.35 819.821 2515.02 820.477C2514.69 821.133 2513.95 821.461 2512.8 821.461H2490.17C2488.7 821.461 2487.63 820.887 2486.97 819.739L2448.11 754.795H2419.82V818.755C2419.82 820.559 2418.91 821.461 2417.11 821.461H2397.68ZM2419.82 735.115H2445.15C2457.78 735.115 2466.88 732.901 2472.46 728.473C2478.2 724.045 2481.07 716.993 2481.07 707.317C2481.07 697.969 2478.45 691.327 2473.2 687.391C2467.95 683.455 2459.09 681.487 2446.63 681.487H2419.82V735.115ZM2602.01 824.413C2581.02 824.413 2565.28 819.329 2554.78 809.161C2544.45 798.829 2539.28 784.233 2539.28 765.373V716.419C2539.28 697.395 2544.45 682.799 2554.78 672.631C2565.28 662.463 2581.02 657.379 2602.01 657.379C2623 657.379 2638.67 662.463 2649 672.631C2659.49 682.799 2664.74 697.395 2664.74 716.419V765.373C2664.74 784.233 2659.49 798.829 2649 809.161C2638.67 819.329 2623 824.413 2602.01 824.413ZM2602.01 802.519C2614.48 802.519 2623.91 799.321 2630.3 792.925C2636.7 786.365 2639.9 776.935 2639.9 764.635V717.157C2639.9 704.693 2636.7 695.263 2630.3 688.867C2623.91 682.471 2614.48 679.273 2602.01 679.273C2589.71 679.273 2580.28 682.471 2573.72 688.867C2567.33 695.263 2564.13 704.693 2564.13 717.157V764.635C2564.13 776.935 2567.33 786.365 2573.72 792.925C2580.28 799.321 2589.71 802.519 2602.01 802.519ZM2761.29 824.413C2741.61 824.413 2726.44 819.411 2715.78 809.407C2705.29 799.239 2700.04 784.479 2700.04 765.127V663.037C2700.04 661.233 2700.94 660.331 2702.74 660.331H2722.18C2723 660.331 2723.65 660.577 2724.15 661.069C2724.64 661.397 2724.88 662.053 2724.88 663.037V765.127C2724.88 777.099 2727.92 786.365 2733.99 792.925C2740.22 799.485 2749.32 802.765 2761.29 802.765C2773.26 802.765 2782.28 799.485 2788.35 792.925C2794.58 786.365 2797.7 777.099 2797.7 765.127V663.037C2797.7 661.233 2798.52 660.331 2800.16 660.331H2819.84C2821.64 660.331 2822.55 661.233 2822.55 663.037V765.373C2822.55 784.069 2817.13 798.583 2806.31 808.915C2795.49 819.247 2780.48 824.413 2761.29 824.413ZM2863.25 821.461C2861.45 821.461 2860.54 820.559 2860.54 818.755V663.037C2860.54 661.233 2861.45 660.331 2863.25 660.331H2906.3C2926.8 660.331 2942.05 664.677 2952.06 673.369C2962.22 682.061 2967.31 694.771 2967.31 711.499C2967.31 728.227 2962.14 740.937 2951.81 749.629C2941.64 758.321 2926.47 762.667 2906.3 762.667H2885.39V818.755C2885.39 820.559 2884.49 821.461 2882.68 821.461H2863.25ZM2885.39 741.757H2905.81C2918.44 741.757 2927.7 739.379 2933.61 734.623C2939.51 729.867 2942.46 722.405 2942.46 712.237C2942.46 701.413 2939.43 693.623 2933.36 688.867C2927.46 683.947 2918.19 681.487 2905.56 681.487H2885.39V741.757Z" fill="#626264"/>
<path d="M1302.88 1187.46C1299.04 1187.46 1297.72 1185.54 1298.92 1181.7L1373.8 955.621C1374.76 952.981 1376.68 951.661 1379.56 951.661H1443.64C1446.52 951.661 1448.44 952.981 1449.4 955.621L1524.64 1181.7C1525.12 1183.38 1525 1184.82 1524.28 1186.02C1523.8 1186.98 1522.6 1187.46 1520.68 1187.46H1466.68C1463.56 1187.46 1461.64 1186.14 1460.92 1183.5L1424.56 1053.18C1422.16 1044.54 1419.88 1035.9 1417.72 1027.26C1415.56 1018.62 1413.52 1010.1 1411.6 1001.7H1410.88C1408.96 1010.34 1406.92 1018.98 1404.76 1027.62C1402.6 1036.26 1400.32 1044.9 1397.92 1053.54L1362.28 1183.14C1361.56 1186.02 1359.64 1187.46 1356.52 1187.46H1302.88ZM1364.08 1145.34L1373.44 1098.9H1447.96L1457.68 1145.34H1364.08ZM1549.87 1187.46C1546.51 1187.46 1544.83 1185.78 1544.83 1182.42V956.701C1544.83 953.341 1546.51 951.661 1549.87 951.661H1600.27C1602.91 951.661 1604.23 953.341 1604.23 956.701V1135.98H1693.51C1696.63 1135.98 1698.19 1137.66 1698.19 1141.02V1182.42C1698.19 1185.78 1696.63 1187.46 1693.51 1187.46H1549.87ZM1706.91 1113.66C1703.55 1113.66 1701.87 1111.98 1701.87 1108.62V1074.42C1701.87 1071.06 1703.55 1069.38 1706.91 1069.38H1836.15C1839.51 1069.38 1841.19 1071.06 1841.19 1074.42V1108.62C1841.19 1111.98 1839.51 1113.66 1836.15 1113.66H1706.91ZM1884.56 1187.46C1881.2 1187.46 1879.52 1185.78 1879.52 1182.42V956.701C1879.52 953.341 1881.2 951.661 1884.56 951.661H1965.2C1995.2 951.661 2017.76 956.461 2032.88 966.061C2048 975.421 2055.56 989.821 2055.56 1009.26C2055.56 1023.66 2052.44 1035.06 2046.2 1043.46C2040.2 1051.86 2030.84 1058.22 2018.12 1062.54V1063.62C2033 1066.5 2044.64 1072.26 2053.04 1080.9C2061.44 1089.3 2065.64 1101.3 2065.64 1116.9C2065.64 1142.1 2057.72 1160.22 2041.88 1171.26C2026.28 1182.06 2000.6 1187.46 1964.84 1187.46H1884.56ZM1938.92 1139.58H1968.08C1981.52 1139.58 1991.24 1137.66 1997.24 1133.82C2003.24 1129.98 2006.24 1123.38 2006.24 1114.02C2006.24 1105.62 2003.12 1099.5 1996.88 1095.66C1990.88 1091.58 1981.16 1089.54 1967.72 1089.54H1938.92V1139.58ZM1938.92 1046.7H1964.84C1975.88 1046.7 1983.8 1044.66 1988.6 1040.58C1993.64 1036.5 1996.16 1030.38 1996.16 1022.22C1996.16 1014.78 1993.4 1009.14 1987.88 1005.3C1982.6 1001.46 1974.2 999.541 1962.68 999.541H1938.92V1046.7ZM2103.23 1187.46C2099.87 1187.46 2098.19 1185.78 2098.19 1182.42V956.701C2098.19 953.341 2099.87 951.661 2103.23 951.661H2152.55C2155.91 951.661 2157.59 953.341 2157.59 956.701V1182.42C2157.59 1185.78 2155.91 1187.46 2152.55 1187.46H2103.23ZM2205.19 1187.46C2201.83 1187.46 2200.15 1185.78 2200.15 1182.42V956.701C2200.15 953.341 2201.83 951.661 2205.19 951.661H2288.35C2322.19 951.661 2346.55 958.261 2361.43 971.461C2376.31 984.661 2383.75 1003.5 2383.75 1027.98C2383.75 1043.82 2380.39 1057.38 2373.67 1068.66C2366.95 1079.94 2356.15 1087.86 2341.27 1092.42V1093.14L2396.71 1181.34C2397.91 1183.02 2398.15 1184.46 2397.43 1185.66C2396.71 1186.86 2395.39 1187.46 2393.47 1187.46H2338.03C2335.39 1187.46 2333.35 1186.38 2331.91 1184.22L2282.95 1101.42H2259.55V1182.42C2259.55 1185.78 2257.87 1187.46 2254.51 1187.46H2205.19ZM2259.55 1054.98H2288.35C2300.35 1054.98 2309.35 1052.94 2315.35 1048.86C2321.35 1044.54 2324.35 1037.7 2324.35 1028.34C2324.35 1019.22 2321.59 1012.62 2316.07 1008.54C2310.79 1004.22 2302.03 1002.06 2289.79 1002.06H2259.55V1054.98ZM2516.39 1191.78C2483.51 1191.78 2458.67 1184.22 2441.87 1169.1C2425.07 1153.98 2416.67 1130.46 2416.67 1098.54V956.701C2416.67 953.341 2418.35 951.661 2421.71 951.661H2471.39C2472.59 951.661 2473.67 952.141 2474.63 953.101C2475.59 953.821 2476.07 955.021 2476.07 956.701V1095.66C2476.07 1109.82 2479.07 1120.86 2485.07 1128.78C2491.31 1136.7 2501.75 1140.66 2516.39 1140.66C2530.79 1140.66 2540.99 1136.7 2546.99 1128.78C2553.23 1120.86 2556.35 1109.82 2556.35 1095.66V956.701C2556.35 953.341 2558.03 951.661 2561.39 951.661H2610.71C2614.07 951.661 2615.75 953.341 2615.75 956.701V1098.54C2615.75 1130.22 2607.35 1153.74 2590.55 1169.1C2573.75 1184.22 2549.03 1191.78 2516.39 1191.78ZM2661.52 1187.46C2658.16 1187.46 2656.48 1185.78 2656.48 1182.42V956.701C2656.48 953.341 2658.16 951.661 2661.52 951.661H2724.52C2727.16 951.661 2729.08 952.861 2730.28 955.261L2775.64 1045.62C2779 1052.34 2782.48 1059.54 2786.08 1067.22C2789.68 1074.9 2792.92 1082.46 2795.8 1089.9C2798.92 1097.34 2801.44 1103.94 2803.36 1109.7H2804.44C2803.96 1105.14 2803.48 1099.98 2803 1094.22C2802.76 1088.46 2802.4 1082.58 2801.92 1076.58C2801.68 1070.58 2801.44 1064.7 2801.2 1058.94C2801.2 1053.18 2801.2 1048.02 2801.2 1043.46V956.701C2801.2 953.341 2802.76 951.661 2805.88 951.661H2853.4C2856.76 951.661 2858.44 953.341 2858.44 956.701V1182.42C2858.44 1185.78 2856.76 1187.46 2853.4 1187.46H2790.4C2788 1187.46 2786.08 1186.26 2784.64 1183.86L2741.44 1097.82C2738.08 1091.34 2734.72 1084.14 2731.36 1076.22C2728.24 1068.3 2725.12 1060.5 2722 1052.82C2718.88 1044.9 2716 1037.94 2713.36 1031.94H2712.28C2712.52 1036.98 2712.76 1042.38 2713 1048.14C2713.24 1053.9 2713.36 1059.9 2713.36 1066.14C2713.6 1072.14 2713.72 1078.02 2713.72 1083.78C2713.72 1089.54 2713.72 1095.06 2713.72 1100.34V1182.42C2713.72 1185.78 2712.04 1187.46 2708.68 1187.46H2661.52ZM2905.85 1187.46C2902.49 1187.46 2900.81 1185.78 2900.81 1182.42V956.701C2900.81 953.341 2902.49 951.661 2905.85 951.661H2955.17C2958.53 951.661 2960.21 953.341 2960.21 956.701V1182.42C2960.21 1185.78 2958.53 1187.46 2955.17 1187.46H2905.85Z" fill="#FE4646"/>
</svg>
