<svg width="3622" height="1841" viewBox="0 0 3622 1841" fill="none" xmlns="http://www.w3.org/2000/svg">
<g clip-path="url(#clip0_79_499)">
<rect width="3622" height="1841" fill="#E9EAEE"/>
<g opacity="0.5">
<path d="M4.57764e-05 938.229C78.702 938.229 142.503 874.428 142.503 795.726C142.503 717.024 78.702 653.224 4.57764e-05 653.224C-78.7019 653.224 -142.502 717.024 -142.502 795.726C-142.502 874.428 -78.7019 938.229 4.57764e-05 938.229Z" fill="#A5A6A9"/>
<path d="M-399.007 1079.05L-430.541 1070.99C-664.772 1011.83 -799.132 911.245 -799.132 795.407C-799.132 679.489 -664.692 578.978 -430.541 519.822L-399.007 511.839L-390.145 543.053C-366.472 624.779 -336.14 704.426 -299.455 781.196L-292.669 795.407L-299.455 809.617C-336.178 886.496 -366.595 966.17 -390.145 1047.92L-399.007 1079.05ZM-445.071 592.47C-623.019 642.606 -732.311 719.086 -732.311 795.407C-732.311 871.568 -623.099 948.128 -445.071 998.183C-423.276 928.888 -396.931 861.109 -366.435 795.407C-397.152 729.594 -423.423 661.797 -445.071 592.47ZM398.927 1079.05L390.145 1047.76C366.409 966.019 336.052 886.348 299.375 809.537L292.589 795.407L299.375 781.116C336.098 704.397 366.355 624.643 390.145 542.894L398.927 511.759L430.461 519.742C664.772 578.899 799.052 679.409 799.052 795.407C799.052 911.325 664.692 1011.83 430.461 1070.99L398.927 1079.05ZM366.196 795.407C398.129 864.542 424.713 932.56 444.991 998.183C623.019 948.128 732.311 871.568 732.311 795.407C732.311 719.086 623.099 642.685 444.991 592.47C423.219 661.775 396.896 729.568 366.196 795.407Z" fill="#A5A6A9"/>
<path d="M-445.55 592.151L-454.332 561.016C-520.274 328.861 -500.316 162.568 -399.486 104.609C-300.892 47.5279 -142.263 114.987 23.8701 285.431L46.5428 308.743L23.8701 331.974C-35.1367 393.341 -89.068 459.393 -137.393 529.482L-146.414 542.415L-162.062 543.692C-247.038 550.366 -331.328 563.956 -414.095 584.327L-445.55 592.151ZM-319.253 150.752C-337.136 150.752 -352.943 154.664 -366.275 162.328C-432.377 200.409 -444.033 333.012 -398.528 511.998C-327.397 496.271 -255.626 485.015 -183.297 478.708C-141.423 419.316 -95.7429 362.702 -46.5429 309.222C-150.566 208.073 -248.761 150.752 -319.253 150.752ZM319.174 1506.64C224.332 1506.64 102.506 1435.11 -23.95 1305.3L-46.5429 1282.07L-23.95 1258.92C35.0661 1197.45 89.0225 1131.32 137.393 1061.17L146.335 1048.4L161.822 1046.88C246.828 1040.33 331.15 1026.79 413.936 1006.41L445.47 998.423L454.332 1029.64C519.954 1261.63 500.076 1428.17 399.406 1486.12C374.964 1499.98 347.267 1507.06 319.174 1506.64ZM46.5428 1281.51C150.486 1382.66 248.761 1440.06 319.174 1440.06C337.136 1440.06 352.943 1436.07 366.195 1428.48C432.377 1390.32 444.113 1257.48 398.448 1078.5C327.396 1094.3 255.547 1105.64 183.058 1111.95C141.362 1171.43 95.7561 1228.08 46.5428 1281.51Z" fill="#A5A6A9"/>
<path d="M445.47 592.151L413.936 584.247C331.154 563.813 246.832 550.222 161.822 543.612L146.334 542.255L137.393 529.322C89.0898 459.195 35.1287 393.139 -23.95 331.814L-46.5428 308.583L-23.95 285.431C142.103 115.067 300.652 47.6078 399.406 104.609C500.156 162.648 520.194 328.94 454.331 561.016L445.47 592.151ZM183.058 478.708C259.219 485.494 331.388 496.91 398.448 511.998C444.033 333.012 432.377 200.409 366.195 162.248C300.413 124.168 176.591 182.446 46.5428 309.222C95.7202 362.71 141.385 419.232 183.058 478.708ZM-319.253 1506.64C-347.344 1507.04 -375.036 1499.96 -399.486 1486.12C-500.316 1428.17 -520.274 1261.71 -454.411 1029.64L-445.789 998.423L-414.255 1006.41C-337.296 1025.81 -252.513 1039.46 -162.142 1046.88L-146.654 1048.4L-137.633 1061.17C-89.4133 1131.27 -35.446 1197.45 23.6307 1258.92L46.3033 1282.07L23.6307 1305.3C-102.746 1435.19 -224.571 1506.64 -319.253 1506.64ZM-398.528 1078.58C-444.033 1257.56 -432.377 1390.4 -366.275 1428.56C-300.413 1466.09 -176.991 1408.21 -46.5428 1281.51C-95.724 1228.02 -141.404 1171.4 -183.297 1112.03C-255.699 1105.62 -327.598 1094.45 -398.528 1078.58Z" fill="#A5A6A9"/>
<path d="M3.05176e-05 1120.49C-54.8455 1120.49 -111.128 1118.17 -167.65 1113.46L-183.297 1112.11L-192.319 1099.17C-224.192 1053.34 -254.181 1006.23 -282.211 957.948C-310.034 909.539 -335.894 860.029 -359.729 809.537L-366.435 795.407L-359.729 781.117C-335.859 730.662 -310.073 681.165 -282.211 632.786C-254.509 585.206 -224.252 537.625 -192.319 491.481L-183.297 478.708L-167.65 477.271C-56.1318 467.93 55.9721 467.93 167.49 477.271L182.978 478.788L191.999 491.561C255.849 583.27 311.928 680.152 359.649 781.197L366.275 795.487L359.649 809.617C312.06 910.731 255.975 1007.62 191.999 1099.25L182.978 1112.19L167.49 1113.54C111.128 1118.09 54.7657 1120.49 3.05176e-05 1120.49ZM-146.414 1048.32C-47.8201 1055.74 47.8202 1055.74 146.335 1048.32C201.331 967.784 250.219 883.243 292.589 795.407C250.369 707.491 201.474 622.94 146.335 542.495C48.8959 534.99 -48.9756 534.99 -146.414 542.495C-201.6 622.911 -250.497 707.466 -292.669 795.407C-250.207 883.195 -201.323 967.729 -146.414 1048.32Z" fill="#A5A6A9"/>
</g>
<path d="M845.428 982.081C842.113 1001.61 833.665 1019.8 821.017 1034.65C808.369 1049.5 792.014 1060.43 773.761 1066.22C755.507 1072.02 736.066 1072.46 717.586 1067.5C699.106 1062.53 682.308 1052.36 669.048 1038.1C655.789 1023.83 646.585 1006.04 642.453 986.682C638.322 967.325 639.424 947.158 645.639 928.411C651.853 909.664 662.937 893.067 677.666 880.455C692.395 867.843 710.194 859.708 729.096 856.949L734.281 895.276C722.184 897.042 710.793 902.248 701.366 910.32C691.94 918.391 684.846 929.013 680.869 941.011C676.892 953.009 676.186 965.916 678.83 978.305C681.474 990.694 687.365 1002.08 695.851 1011.21C704.337 1020.34 715.088 1026.85 726.915 1030.03C738.742 1033.2 751.184 1032.92 762.867 1029.21C774.549 1025.5 785.016 1018.51 793.111 1009.01C801.206 999.501 806.613 987.857 808.734 975.361L845.428 982.081Z" fill="#FE4646"/>
<path d="M1085.52 856.311C1104.54 858.04 1122.72 865.196 1138.06 876.99C1153.41 888.783 1165.31 904.755 1172.46 923.138C1179.61 941.522 1181.73 961.601 1178.58 981.157C1175.43 1000.71 1167.14 1018.98 1154.61 1033.95C1142.09 1048.91 1125.83 1059.98 1107.62 1065.95C1089.42 1071.91 1069.98 1072.53 1051.46 1067.73C1032.94 1062.93 1016.06 1052.91 1002.68 1038.77C989.301 1024.63 979.947 1006.92 975.653 987.597L1011.96 978.891C1014.71 991.255 1020.69 1002.59 1029.26 1011.64C1037.82 1020.69 1048.62 1027.11 1060.48 1030.18C1072.33 1033.25 1084.77 1032.85 1096.42 1029.03C1108.07 1025.22 1118.48 1018.13 1126.49 1008.55C1134.51 998.977 1139.82 987.284 1141.83 974.769C1143.85 962.253 1142.49 949.403 1137.92 937.637C1133.34 925.872 1125.72 915.65 1115.9 908.102C1106.08 900.554 1094.44 895.974 1082.27 894.868L1085.52 856.311Z" fill="#FE4646"/>
<path d="M976.527 589.684C981.253 571.363 990.561 554.667 1003.51 541.29C1016.45 527.913 1032.57 518.332 1050.24 513.519C1067.9 508.706 1086.47 508.832 1104.07 513.885C1121.67 518.938 1137.67 528.738 1150.45 542.289C1163.22 555.841 1172.32 572.662 1176.82 591.046C1181.31 609.43 1181.04 628.722 1176.04 646.964C1171.04 665.205 1161.48 681.748 1148.33 694.912C1135.19 708.076 1118.92 717.393 1101.19 721.917L1092.3 684.331C1103.65 681.435 1114.06 675.472 1122.47 667.047C1130.89 658.622 1137 648.035 1140.21 636.36C1143.41 624.686 1143.58 612.339 1140.7 600.573C1137.83 588.808 1132 578.042 1123.83 569.369C1115.65 560.696 1105.41 554.424 1094.15 551.19C1082.88 547.956 1071 547.875 1059.69 550.956C1048.39 554.036 1038.07 560.168 1029.78 568.729C1021.5 577.291 1015.54 587.976 1012.52 599.702L976.527 589.684Z" fill="#FE4646"/>
<path d="M721.981 722.671C703.311 718.549 686.101 709.143 672.255 695.495C658.41 681.847 648.467 664.488 643.527 645.336C638.586 626.184 638.841 605.986 644.262 586.976C649.683 567.965 660.06 550.882 674.245 537.615C688.43 524.348 705.871 515.414 724.639 511.8C743.407 508.187 762.771 510.035 780.591 517.141C798.411 524.246 813.992 536.332 825.612 552.062C837.232 567.792 844.438 586.554 846.433 606.272L809.377 610.318C808.1 597.698 803.489 585.691 796.052 575.623C788.615 565.556 778.643 557.821 767.238 553.274C755.834 548.726 743.44 547.543 731.429 549.856C719.417 552.168 708.255 557.886 699.177 566.377C690.098 574.868 683.457 585.801 679.988 597.968C676.518 610.135 676.355 623.062 679.517 635.319C682.679 647.576 689.042 658.686 697.903 667.421C706.765 676.155 717.779 682.175 729.728 684.813L721.981 722.671Z" fill="#FE4646"/>
<path d="M847 788.903C847 848.279 800.662 896.413 743.5 896.413C686.339 896.413 640 848.279 640 788.903C640 729.527 686.339 681.393 743.5 681.393C800.662 681.393 847 729.527 847 788.903ZM677.26 788.903C677.26 826.904 706.917 857.709 743.5 857.709C780.084 857.709 809.74 826.904 809.74 788.903C809.74 750.902 780.084 720.096 743.5 720.096C706.917 720.096 677.26 750.902 677.26 788.903Z" fill="#FE4646"/>
<path d="M1015 963.413C1015 1022.79 968.662 1070.92 911.5 1070.92C854.339 1070.92 808 1022.79 808 963.413C808 904.036 854.339 855.902 911.5 855.902C968.662 855.902 1015 904.036 1015 963.413ZM845.26 963.413C845.26 1001.41 874.917 1032.22 911.5 1032.22C948.084 1032.22 977.74 1001.41 977.74 963.413C977.74 925.412 948.084 894.606 911.5 894.606C874.917 894.606 845.26 925.412 845.26 963.413Z" fill="#FE4646"/>
<path d="M1180 788.903C1180 848.279 1133.66 896.413 1076.5 896.413C1019.34 896.413 973 848.279 973 788.903C973 729.527 1019.34 681.393 1076.5 681.393C1133.66 681.393 1180 729.527 1180 788.903ZM1010.26 788.903C1010.26 826.904 1039.92 857.709 1076.5 857.709C1113.08 857.709 1142.74 826.904 1142.74 788.903C1142.74 750.902 1113.08 720.096 1076.5 720.096C1039.92 720.096 1010.26 750.902 1010.26 788.903Z" fill="#FE4646"/>
<path d="M1015 617.51C1015 676.886 968.662 725.02 911.5 725.02C854.339 725.02 808 676.886 808 617.51C808 558.134 854.339 510 911.5 510C968.662 510 1015 558.134 1015 617.51ZM845.26 617.51C845.26 655.511 874.917 686.317 911.5 686.317C948.084 686.317 977.74 655.511 977.74 617.51C977.74 579.509 948.084 548.704 911.5 548.704C874.917 548.704 845.26 579.509 845.26 617.51Z" fill="#FE4646"/>
<path d="M1351.91 663.5C1350.43 663.5 1349.53 662.762 1349.2 661.286L1304.67 505.322C1304.18 503.354 1305 502.37 1307.13 502.37H1326.81C1328.45 502.37 1329.44 503.108 1329.77 504.584L1356.09 600.032C1357.24 603.968 1358.3 608.068 1359.29 612.332C1360.27 616.596 1361.25 620.86 1362.24 625.124C1363.22 629.224 1364.21 633.242 1365.19 637.178H1365.44C1367.08 631.438 1368.72 625.78 1370.36 620.204C1372.16 614.464 1373.96 608.806 1375.77 603.23L1395.45 538.532L1386.59 508.028C1386.26 507.208 1386.35 506.552 1386.84 506.06C1387.33 505.404 1387.99 505.076 1388.81 505.076H1408.73C1410.37 505.076 1411.36 505.896 1411.68 507.536L1438.01 604.706C1439.65 610.118 1441.12 615.53 1442.43 620.942C1443.75 626.354 1445.14 631.766 1446.62 637.178H1446.86C1447.68 633.406 1448.58 629.388 1449.57 625.124C1450.55 620.86 1451.54 616.596 1452.52 612.332C1453.5 608.068 1454.49 603.968 1455.47 600.032L1480.81 504.584C1481.14 503.108 1482.12 502.37 1483.76 502.37H1504.18C1506.31 502.37 1507.05 503.354 1506.39 505.322L1463.59 661.286C1463.26 662.762 1462.28 663.5 1460.64 663.5H1434.56C1432.92 663.5 1431.94 662.762 1431.61 661.286L1415.87 606.674C1414.23 601.098 1412.67 595.604 1411.19 590.192C1409.72 584.616 1408.24 579.04 1406.76 573.464H1406.27C1404.8 578.876 1403.24 584.288 1401.6 589.7C1400.12 595.112 1398.48 600.606 1396.68 606.182L1380.2 661.286C1379.87 662.106 1379.46 662.68 1378.97 663.008C1378.64 663.336 1378.06 663.5 1377.24 663.5H1351.91ZM1588.46 666.452C1567.47 666.452 1551.73 661.368 1541.23 651.2C1530.9 640.868 1525.73 626.272 1525.73 607.412V558.458C1525.73 539.434 1530.9 524.838 1541.23 514.67C1551.73 504.502 1567.47 499.418 1588.46 499.418C1609.45 499.418 1625.12 504.502 1635.45 514.67C1645.94 524.838 1651.19 539.434 1651.19 558.458V607.412C1651.19 626.272 1645.94 640.868 1635.45 651.2C1625.12 661.368 1609.45 666.452 1588.46 666.452ZM1588.46 644.558C1600.93 644.558 1610.36 641.36 1616.75 634.964C1623.15 628.404 1626.35 618.974 1626.35 606.674V559.196C1626.35 546.732 1623.15 537.302 1616.75 530.906C1610.36 524.51 1600.93 521.312 1588.46 521.312C1576.16 521.312 1566.73 524.51 1560.17 530.906C1553.78 537.302 1550.58 546.732 1550.58 559.196V606.674C1550.58 618.974 1553.78 628.404 1560.17 634.964C1566.73 641.36 1576.16 644.558 1588.46 644.558ZM1690.43 663.5C1688.62 663.5 1687.72 662.598 1687.72 660.794V505.076C1687.72 503.272 1688.62 502.37 1690.43 502.37H1721.67C1723.31 502.37 1724.37 503.026 1724.87 504.338L1768.16 591.668C1771.11 597.572 1773.74 602.984 1776.03 607.904C1778.49 612.824 1780.63 617.498 1782.43 621.926C1784.4 626.354 1786.2 630.618 1787.84 634.718H1788.33C1788.33 631.438 1788.25 627.912 1788.09 624.14C1788.09 620.368 1788.01 616.596 1787.84 612.824C1787.84 608.888 1787.84 605.116 1787.84 601.508C1787.84 597.736 1787.84 594.128 1787.84 590.684V505.076C1787.84 503.272 1788.66 502.37 1790.3 502.37H1809.49C1811.29 502.37 1812.2 503.272 1812.2 505.076V660.794C1812.2 662.598 1811.29 663.5 1809.49 663.5H1778.49C1777.02 663.5 1776.03 662.844 1775.54 661.532L1733.23 576.662C1730.61 571.414 1728.06 566.248 1725.6 561.164C1723.31 556.08 1721.01 551.078 1718.72 546.158C1716.42 541.074 1714.21 536.154 1712.07 531.398H1711.58C1711.58 535.498 1711.58 539.516 1711.58 543.452C1711.75 547.224 1711.83 551.078 1711.83 555.014C1711.99 558.786 1712.07 562.64 1712.07 566.576C1712.07 570.512 1712.07 574.53 1712.07 578.63V660.794C1712.07 662.598 1711.17 663.5 1709.37 663.5H1690.43ZM1854.03 663.5C1852.22 663.5 1851.32 662.598 1851.32 660.794V505.076C1851.32 503.272 1852.22 502.37 1854.03 502.37H1873.46C1875.26 502.37 1876.17 503.272 1876.17 505.076V660.794C1876.17 662.598 1875.26 663.5 1873.46 663.5H1854.03ZM1902.92 663.5C1901.11 663.5 1900.21 662.68 1900.21 661.04V660.302C1900.21 659.318 1900.62 658.17 1901.44 656.858L1971.3 548.618C1973.93 544.518 1976.47 540.5 1978.93 536.564C1981.55 532.628 1984.26 528.61 1987.05 524.51V524.264C1982.46 524.428 1977.78 524.51 1973.03 524.51C1968.43 524.51 1963.76 524.51 1959 524.51H1910.79C1908.98 524.51 1908.08 523.608 1908.08 521.804V505.076C1908.08 503.272 1908.98 502.37 1910.79 502.37H2023.21C2025.01 502.37 2025.92 503.19 2025.92 504.83V505.568C2025.92 506.224 2025.83 506.88 2025.67 507.536C2025.51 508.028 2025.26 508.52 2024.93 509.012L1955.81 614.792C1952.85 619.384 1949.98 623.894 1947.2 628.322C1944.41 632.586 1941.46 636.932 1938.34 641.36V641.606C1943.59 641.442 1948.84 641.36 1954.08 641.36C1959.33 641.36 1964.58 641.36 1969.83 641.36H2017.55C2019.36 641.36 2020.26 642.262 2020.26 644.066V660.794C2020.26 662.598 2019.36 663.5 2017.55 663.5H1902.92ZM2053.42 663.5C2051.62 663.5 2050.71 662.598 2050.71 660.794V505.076C2050.71 503.272 2051.62 502.37 2053.42 502.37H2143.95C2145.59 502.37 2146.41 503.272 2146.41 505.076V521.804C2146.41 523.608 2145.59 524.51 2143.95 524.51H2075.56V571.25H2138.04C2139.68 571.25 2140.5 572.07 2140.5 573.71V589.7C2140.5 591.504 2139.68 592.406 2138.04 592.406H2075.56V641.36H2143.95C2145.59 641.36 2146.41 642.262 2146.41 644.066V660.794C2146.41 662.598 2145.59 663.5 2143.95 663.5H2053.42ZM2289.13 666.452C2276.99 666.452 2266.58 664.156 2257.89 659.564C2249.19 654.972 2242.47 648.248 2237.71 639.392C2232.96 630.536 2230.58 619.876 2230.58 607.412V558.458C2230.58 539.762 2236.16 525.248 2247.31 514.916C2258.62 504.584 2274.12 499.418 2293.8 499.418C2307.41 499.418 2319.06 501.632 2328.73 506.06C2338.41 510.488 2345.54 516.72 2350.14 524.756C2354.89 532.792 2356.45 542.14 2354.81 552.8C2354.65 554.604 2353.74 555.506 2352.1 555.506L2332.42 555.26C2330.62 555.26 2329.8 554.358 2329.96 552.554C2330.46 545.83 2329.39 540.172 2326.77 535.58C2324.14 530.824 2320.12 527.216 2314.71 524.756C2309.46 522.296 2302.66 521.066 2294.29 521.066C2281.5 521.066 2271.83 524.182 2265.27 530.414C2258.71 536.646 2255.43 546.076 2255.43 558.704V607.166C2255.43 619.794 2258.54 629.224 2264.77 635.456C2271.17 641.688 2280.68 644.804 2293.31 644.804C2305.94 644.804 2315.53 641.77 2322.09 635.702C2328.82 629.47 2332.18 620.614 2332.18 609.134V600.278H2296.02C2294.21 600.278 2293.31 599.458 2293.31 597.818V583.058C2293.31 581.254 2294.21 580.352 2296.02 580.352H2352.84C2353.66 580.352 2354.32 580.598 2354.81 581.09C2355.3 581.582 2355.55 582.238 2355.55 583.058V630.044C2355.55 635.292 2355.63 640.54 2355.79 645.788C2356.12 650.872 2356.61 655.792 2357.27 660.548C2357.6 661.532 2357.52 662.27 2357.02 662.762C2356.53 663.254 2355.88 663.5 2355.06 663.5H2339.07C2338.41 663.5 2337.84 663.336 2337.34 663.008C2336.85 662.68 2336.52 662.106 2336.36 661.286C2335.87 659.154 2335.46 656.776 2335.13 654.152C2334.97 651.528 2334.8 648.74 2334.64 645.788H2334.39C2331.44 650.38 2327.67 654.234 2323.08 657.35C2318.65 660.302 2313.56 662.516 2307.82 663.992C2302.08 665.632 2295.85 666.452 2289.13 666.452ZM2397.68 663.5C2395.87 663.5 2394.97 662.598 2394.97 660.794V505.076C2394.97 503.272 2395.87 502.37 2397.68 502.37H2446.88C2467.21 502.37 2482.14 506.224 2491.65 513.932C2501.16 521.64 2505.92 533.038 2505.92 548.126C2505.92 559.77 2503.21 569.528 2497.8 577.4C2492.39 585.108 2484.51 590.438 2474.18 593.39V593.636L2514.77 660.302C2515.26 661.122 2515.35 661.86 2515.02 662.516C2514.69 663.172 2513.95 663.5 2512.8 663.5H2490.17C2488.7 663.5 2487.63 662.926 2486.97 661.778L2448.11 596.834H2419.82V660.794C2419.82 662.598 2418.91 663.5 2417.11 663.5H2397.68ZM2419.82 577.154H2445.15C2457.78 577.154 2466.88 574.94 2472.46 570.512C2478.2 566.084 2481.07 559.032 2481.07 549.356C2481.07 540.008 2478.45 533.366 2473.2 529.43C2467.95 525.494 2459.09 523.526 2446.63 523.526H2419.82V577.154ZM2602.01 666.452C2581.02 666.452 2565.28 661.368 2554.78 651.2C2544.45 640.868 2539.28 626.272 2539.28 607.412V558.458C2539.28 539.434 2544.45 524.838 2554.78 514.67C2565.28 504.502 2581.02 499.418 2602.01 499.418C2623 499.418 2638.67 504.502 2649 514.67C2659.49 524.838 2664.74 539.434 2664.74 558.458V607.412C2664.74 626.272 2659.49 640.868 2649 651.2C2638.67 661.368 2623 666.452 2602.01 666.452ZM2602.01 644.558C2614.48 644.558 2623.91 641.36 2630.3 634.964C2636.7 628.404 2639.9 618.974 2639.9 606.674V559.196C2639.9 546.732 2636.7 537.302 2630.3 530.906C2623.91 524.51 2614.48 521.312 2602.01 521.312C2589.71 521.312 2580.28 524.51 2573.72 530.906C2567.33 537.302 2564.13 546.732 2564.13 559.196V606.674C2564.13 618.974 2567.33 628.404 2573.72 634.964C2580.28 641.36 2589.71 644.558 2602.01 644.558ZM2761.29 666.452C2741.61 666.452 2726.44 661.45 2715.78 651.446C2705.29 641.278 2700.04 626.518 2700.04 607.166V505.076C2700.04 503.272 2700.94 502.37 2702.74 502.37H2722.18C2723 502.37 2723.65 502.616 2724.15 503.108C2724.64 503.436 2724.88 504.092 2724.88 505.076V607.166C2724.88 619.138 2727.92 628.404 2733.99 634.964C2740.22 641.524 2749.32 644.804 2761.29 644.804C2773.26 644.804 2782.28 641.524 2788.35 634.964C2794.58 628.404 2797.7 619.138 2797.7 607.166V505.076C2797.7 503.272 2798.52 502.37 2800.16 502.37H2819.84C2821.64 502.37 2822.55 503.272 2822.55 505.076V607.412C2822.55 626.108 2817.13 640.622 2806.31 650.954C2795.49 661.286 2780.48 666.452 2761.29 666.452ZM2863.25 663.5C2861.45 663.5 2860.54 662.598 2860.54 660.794V505.076C2860.54 503.272 2861.45 502.37 2863.25 502.37H2906.3C2926.8 502.37 2942.05 506.716 2952.06 515.408C2962.22 524.1 2967.31 536.81 2967.31 553.538C2967.31 570.266 2962.14 582.976 2951.81 591.668C2941.64 600.36 2926.47 604.706 2906.3 604.706H2885.39V660.794C2885.39 662.598 2884.49 663.5 2882.68 663.5H2863.25ZM2885.39 583.796H2905.81C2918.44 583.796 2927.7 581.418 2933.61 576.662C2939.51 571.906 2942.46 564.444 2942.46 554.276C2942.46 543.452 2939.43 535.662 2933.36 530.906C2927.46 525.986 2918.19 523.526 2905.56 523.526H2885.39V583.796Z" fill="#626264"/>
<path d="M1302.88 1029.5C1299.04 1029.5 1297.72 1027.58 1298.92 1023.74L1373.8 797.66C1374.76 795.02 1376.68 793.7 1379.56 793.7H1443.64C1446.52 793.7 1448.44 795.02 1449.4 797.66L1524.64 1023.74C1525.12 1025.42 1525 1026.86 1524.28 1028.06C1523.8 1029.02 1522.6 1029.5 1520.68 1029.5H1466.68C1463.56 1029.5 1461.64 1028.18 1460.92 1025.54L1424.56 895.22C1422.16 886.58 1419.88 877.94 1417.72 869.3C1415.56 860.66 1413.52 852.14 1411.6 843.74H1410.88C1408.96 852.38 1406.92 861.02 1404.76 869.66C1402.6 878.3 1400.32 886.94 1397.92 895.58L1362.28 1025.18C1361.56 1028.06 1359.64 1029.5 1356.52 1029.5H1302.88ZM1364.08 987.38L1373.44 940.94H1447.96L1457.68 987.38H1364.08ZM1549.87 1029.5C1546.51 1029.5 1544.83 1027.82 1544.83 1024.46V798.74C1544.83 795.38 1546.51 793.7 1549.87 793.7H1600.27C1602.91 793.7 1604.23 795.38 1604.23 798.74V978.02H1693.51C1696.63 978.02 1698.19 979.7 1698.19 983.06V1024.46C1698.19 1027.82 1696.63 1029.5 1693.51 1029.5H1549.87ZM1706.91 955.7C1703.55 955.7 1701.87 954.02 1701.87 950.66V916.46C1701.87 913.1 1703.55 911.42 1706.91 911.42H1836.15C1839.51 911.42 1841.19 913.1 1841.19 916.46V950.66C1841.19 954.02 1839.51 955.7 1836.15 955.7H1706.91ZM1884.56 1029.5C1881.2 1029.5 1879.52 1027.82 1879.52 1024.46V798.74C1879.52 795.38 1881.2 793.7 1884.56 793.7H1965.2C1995.2 793.7 2017.76 798.5 2032.88 808.1C2048 817.46 2055.56 831.86 2055.56 851.3C2055.56 865.7 2052.44 877.1 2046.2 885.5C2040.2 893.9 2030.84 900.26 2018.12 904.58V905.66C2033 908.54 2044.64 914.3 2053.04 922.94C2061.44 931.34 2065.64 943.34 2065.64 958.94C2065.64 984.14 2057.72 1002.26 2041.88 1013.3C2026.28 1024.1 2000.6 1029.5 1964.84 1029.5H1884.56ZM1938.92 981.62H1968.08C1981.52 981.62 1991.24 979.7 1997.24 975.86C2003.24 972.02 2006.24 965.42 2006.24 956.06C2006.24 947.66 2003.12 941.54 1996.88 937.7C1990.88 933.62 1981.16 931.58 1967.72 931.58H1938.92V981.62ZM1938.92 888.74H1964.84C1975.88 888.74 1983.8 886.7 1988.6 882.62C1993.64 878.54 1996.16 872.42 1996.16 864.26C1996.16 856.82 1993.4 851.18 1987.88 847.34C1982.6 843.5 1974.2 841.58 1962.68 841.58H1938.92V888.74ZM2103.23 1029.5C2099.87 1029.5 2098.19 1027.82 2098.19 1024.46V798.74C2098.19 795.38 2099.87 793.7 2103.23 793.7H2152.55C2155.91 793.7 2157.59 795.38 2157.59 798.74V1024.46C2157.59 1027.82 2155.91 1029.5 2152.55 1029.5H2103.23ZM2205.19 1029.5C2201.83 1029.5 2200.15 1027.82 2200.15 1024.46V798.74C2200.15 795.38 2201.83 793.7 2205.19 793.7H2288.35C2322.19 793.7 2346.55 800.3 2361.43 813.5C2376.31 826.7 2383.75 845.54 2383.75 870.02C2383.75 885.86 2380.39 899.42 2373.67 910.7C2366.95 921.98 2356.15 929.9 2341.27 934.46V935.18L2396.71 1023.38C2397.91 1025.06 2398.15 1026.5 2397.43 1027.7C2396.71 1028.9 2395.39 1029.5 2393.47 1029.5H2338.03C2335.39 1029.5 2333.35 1028.42 2331.91 1026.26L2282.95 943.46H2259.55V1024.46C2259.55 1027.82 2257.87 1029.5 2254.51 1029.5H2205.19ZM2259.55 897.02H2288.35C2300.35 897.02 2309.35 894.98 2315.35 890.9C2321.35 886.58 2324.35 879.74 2324.35 870.38C2324.35 861.26 2321.59 854.66 2316.07 850.58C2310.79 846.26 2302.03 844.1 2289.79 844.1H2259.55V897.02ZM2516.39 1033.82C2483.51 1033.82 2458.67 1026.26 2441.87 1011.14C2425.07 996.02 2416.67 972.5 2416.67 940.58V798.74C2416.67 795.38 2418.35 793.7 2421.71 793.7H2471.39C2472.59 793.7 2473.67 794.18 2474.63 795.14C2475.59 795.86 2476.07 797.06 2476.07 798.74V937.7C2476.07 951.86 2479.07 962.9 2485.07 970.82C2491.31 978.74 2501.75 982.7 2516.39 982.7C2530.79 982.7 2540.99 978.74 2546.99 970.82C2553.23 962.9 2556.35 951.86 2556.35 937.7V798.74C2556.35 795.38 2558.03 793.7 2561.39 793.7H2610.71C2614.07 793.7 2615.75 795.38 2615.75 798.74V940.58C2615.75 972.26 2607.35 995.78 2590.55 1011.14C2573.75 1026.26 2549.03 1033.82 2516.39 1033.82ZM2661.52 1029.5C2658.16 1029.5 2656.48 1027.82 2656.48 1024.46V798.74C2656.48 795.38 2658.16 793.7 2661.52 793.7H2724.52C2727.16 793.7 2729.08 794.9 2730.28 797.3L2775.64 887.66C2779 894.38 2782.48 901.58 2786.08 909.26C2789.68 916.94 2792.92 924.5 2795.8 931.94C2798.92 939.38 2801.44 945.98 2803.36 951.74H2804.44C2803.96 947.18 2803.48 942.02 2803 936.26C2802.76 930.5 2802.4 924.62 2801.92 918.62C2801.68 912.62 2801.44 906.74 2801.2 900.98C2801.2 895.22 2801.2 890.06 2801.2 885.5V798.74C2801.2 795.38 2802.76 793.7 2805.88 793.7H2853.4C2856.76 793.7 2858.44 795.38 2858.44 798.74V1024.46C2858.44 1027.82 2856.76 1029.5 2853.4 1029.5H2790.4C2788 1029.5 2786.08 1028.3 2784.64 1025.9L2741.44 939.86C2738.08 933.38 2734.72 926.18 2731.36 918.26C2728.24 910.34 2725.12 902.54 2722 894.86C2718.88 886.94 2716 879.98 2713.36 873.98H2712.28C2712.52 879.02 2712.76 884.42 2713 890.18C2713.24 895.94 2713.36 901.94 2713.36 908.18C2713.6 914.18 2713.72 920.06 2713.72 925.82C2713.72 931.58 2713.72 937.1 2713.72 942.38V1024.46C2713.72 1027.82 2712.04 1029.5 2708.68 1029.5H2661.52ZM2905.85 1029.5C2902.49 1029.5 2900.81 1027.82 2900.81 1024.46V798.74C2900.81 795.38 2902.49 793.7 2905.85 793.7H2955.17C2958.53 793.7 2960.21 795.38 2960.21 798.74V1024.46C2960.21 1027.82 2958.53 1029.5 2955.17 1029.5H2905.85Z" fill="#FE4646"/>
<rect x="2479" y="1185.5" width="503" height="187" rx="93.5" fill="#FE4646"/>
<path d="M2571.58 1307.5C2570.62 1307.5 2570.14 1307.02 2570.14 1306.06V1246.06C2570.14 1245.1 2570.62 1244.62 2571.58 1244.62H2594.71C2604.12 1244.62 2610.84 1246.48 2614.87 1250.19C2618.9 1253.84 2620.92 1259.05 2620.92 1265.84C2620.92 1269.93 2620.09 1273.48 2618.42 1276.49C2616.76 1279.5 2613.94 1281.61 2609.98 1282.83V1283.02L2624.47 1305.77C2624.79 1306.22 2624.86 1306.64 2624.66 1307.02C2624.47 1307.34 2624.09 1307.5 2623.51 1307.5H2606.81C2606.04 1307.5 2605.46 1307.18 2605.08 1306.54L2592.7 1285.61H2587.99V1306.06C2587.99 1307.02 2587.51 1307.5 2586.55 1307.5H2571.58ZM2587.99 1271.6H2595C2597.62 1271.6 2599.61 1271.15 2600.95 1270.25C2602.36 1269.29 2603.06 1267.79 2603.06 1265.74C2603.06 1263.69 2602.46 1262.19 2601.24 1261.23C2600.02 1260.27 2598.04 1259.79 2595.29 1259.79H2587.99V1271.6ZM2641.55 1307.5C2640.59 1307.5 2640.11 1307.02 2640.11 1306.06V1246.06C2640.11 1245.1 2640.59 1244.62 2641.55 1244.62H2683.02C2683.92 1244.62 2684.37 1245.1 2684.37 1246.06V1258.64C2684.37 1259.53 2683.92 1259.98 2683.02 1259.98H2657.97V1268.72H2680.72C2681.62 1268.72 2682.06 1269.2 2682.06 1270.16V1281.77C2682.06 1282.73 2681.62 1283.21 2680.72 1283.21H2657.97V1292.14H2683.02C2683.92 1292.14 2684.37 1292.59 2684.37 1293.48V1306.06C2684.37 1307.02 2683.92 1307.5 2683.02 1307.5H2641.55ZM2699.49 1307.5C2698.4 1307.5 2698.02 1306.96 2698.34 1305.87L2718.02 1245.77C2718.27 1245 2718.82 1244.62 2719.65 1244.62H2738.94C2739.78 1244.62 2740.32 1245 2740.58 1245.77L2760.26 1305.87C2760.38 1306.32 2760.35 1306.7 2760.16 1307.02C2760.03 1307.34 2759.71 1307.5 2759.2 1307.5H2742.69C2741.86 1307.5 2741.34 1307.12 2741.15 1306.35L2732.61 1273.9C2731.97 1271.47 2731.36 1269.07 2730.78 1266.7C2730.27 1264.27 2729.79 1261.87 2729.34 1259.5H2729.06C2728.61 1261.93 2728.1 1264.36 2727.52 1266.8C2727.01 1269.23 2726.43 1271.66 2725.79 1274.09L2717.54 1306.25C2717.34 1307.08 2716.8 1307.5 2715.9 1307.5H2699.49ZM2717.34 1297.23L2719.94 1283.4H2738.08L2740.86 1297.23H2717.34ZM2799.53 1308.65C2790.83 1308.65 2783.98 1306.57 2778.99 1302.41C2774.06 1298.25 2771.6 1291.72 2771.6 1282.83V1269.58C2771.6 1260.49 2774.06 1253.87 2778.99 1249.71C2783.98 1245.55 2790.83 1243.47 2799.53 1243.47C2806.06 1243.47 2811.5 1244.46 2815.85 1246.44C2820.2 1248.43 2823.37 1251.21 2825.36 1254.8C2827.4 1258.38 2828.11 1262.57 2827.47 1267.37C2827.4 1267.76 2827.24 1268.08 2826.99 1268.33C2826.8 1268.59 2826.48 1268.72 2826.03 1268.72H2810.96C2810.06 1268.72 2809.61 1268.2 2809.61 1267.18C2809.61 1264.75 2808.88 1262.76 2807.4 1261.23C2805.93 1259.63 2803.4 1258.83 2799.82 1258.83C2796.62 1258.83 2794.09 1259.72 2792.24 1261.52C2790.38 1263.24 2789.45 1266.16 2789.45 1270.25V1281.87C2789.45 1285.96 2790.38 1288.91 2792.24 1290.7C2794.09 1292.43 2796.62 1293.29 2799.82 1293.29C2803.66 1293.29 2806.25 1292.46 2807.6 1290.8C2808.94 1289.07 2809.61 1287.12 2809.61 1284.94C2809.61 1283.92 2810.06 1283.4 2810.96 1283.4H2826.03C2826.86 1283.4 2827.34 1283.85 2827.47 1284.75C2827.98 1289.61 2827.21 1293.84 2825.16 1297.42C2823.12 1301 2819.92 1303.79 2815.56 1305.77C2811.28 1307.69 2805.93 1308.65 2799.53 1308.65ZM2861.25 1307.5C2860.36 1307.5 2859.91 1307.02 2859.91 1306.06V1259.98H2844.64C2843.68 1259.98 2843.2 1259.53 2843.2 1258.64V1246.06C2843.2 1245.1 2843.68 1244.62 2844.64 1244.62H2893.03C2893.92 1244.62 2894.37 1245.1 2894.37 1246.06V1258.64C2894.37 1259.53 2893.92 1259.98 2893.03 1259.98H2877.76V1306.06C2877.76 1307.02 2877.28 1307.5 2876.32 1307.5H2861.25Z" fill="#E9EAEE"/>
</g>
<defs>
<clipPath id="clip0_79_499">
<rect width="3622" height="1841" fill="white"/>
</clipPath>
</defs>
</svg>
